<?xml version="1.0" encoding="utf-8" standalone="no"?>
<!DOCTYPE svg PUBLIC "-//W3C//DTD SVG 1.1//EN"
  "http://www.w3.org/Graphics/SVG/1.1/DTD/svg11.dtd">
<svg xmlns:xlink="http://www.w3.org/1999/xlink" width="969.634892pt" height="347.374125pt" viewBox="0 0 969.634892 347.374125" xmlns="http://www.w3.org/2000/svg" version="1.1">
 <metadata>
  <rdf:RDF xmlns:dc="http://purl.org/dc/elements/1.1/" xmlns:cc="http://creativecommons.org/ns#" xmlns:rdf="http://www.w3.org/1999/02/22-rdf-syntax-ns#">
   <cc:Work>
    <dc:type rdf:resource="http://purl.org/dc/dcmitype/StillImage"/>
    <dc:date>2026-06-02T06:57:19.245713</dc:date>
    <dc:format>image/svg+xml</dc:format>
    <dc:creator>
     <cc:Agent>
      <dc:title>Matplotlib v3.10.9, https://matplotlib.org/</dc:title>
     </cc:Agent>
    </dc:creator>
   </cc:Work>
  </rdf:RDF>
 </metadata>
 <defs>
  <style type="text/css">*{stroke-linejoin: round; stroke-linecap: butt}</style>
 </defs>
 <g id="figure_1">
  <g id="patch_1">
   <path d="M 0 347.374125 
L 969.634892 347.374125 
L 969.634892 0 
L 0 0 
z
" style="fill: #ffffff"/>
  </g>
  <g id="axes_1">
   <g id="patch_2">
    <path d="M 196.213283 108.647537 
L 239.362709 108.647537 
L 239.362709 66.718125 
L 196.213283 66.718125 
z
" clip-path="url(#p3c7e011084)" style="fill: #fdba8c"/>
   </g>
   <g id="patch_3">
    <path d="M 196.213283 184.882831 
L 299.771904 184.882831 
L 299.771904 142.953419 
L 196.213283 142.953419 
z
" clip-path="url(#p3c7e011084)" style="fill: #fb7c5c"/>
   </g>
   <g id="patch_4">
    <path d="M 196.213283 261.118125 
L 403.330526 261.118125 
L 403.330526 219.188713 
L 196.213283 219.188713 
z
" clip-path="url(#p3c7e011084)" style="fill: #e64a28"/>
   </g>
   <g id="text_1">
    <!-- Boutique -->
    <g style="fill: #1a1a1a" transform="translate(133.343437 86.906379) scale(0.11 -0.11)">
     <defs>
      <path id="DejaVuSans-Bold-42" d="M 2456 2859 
Q 2741 2859 2887 2984 
Q 3034 3109 3034 3353 
Q 3034 3594 2887 3720 
Q 2741 3847 2456 3847 
L 1791 3847 
L 1791 2859 
L 2456 2859 
z
M 2497 819 
Q 2859 819 3042 972 
Q 3225 1125 3225 1434 
Q 3225 1738 3044 1889 
Q 2863 2041 2497 2041 
L 1791 2041 
L 1791 819 
L 2497 819 
z
M 3616 2497 
Q 4003 2384 4215 2081 
Q 4428 1778 4428 1338 
Q 4428 663 3972 331 
Q 3516 0 2584 0 
L 588 0 
L 588 4666 
L 2394 4666 
Q 3366 4666 3802 4372 
Q 4238 4078 4238 3431 
Q 4238 3091 4078 2852 
Q 3919 2613 3616 2497 
z
" transform="scale(0.015625)"/>
      <path id="DejaVuSans-Bold-6f" d="M 2203 2784 
Q 1831 2784 1636 2517 
Q 1441 2250 1441 1747 
Q 1441 1244 1636 976 
Q 1831 709 2203 709 
Q 2569 709 2762 976 
Q 2956 1244 2956 1747 
Q 2956 2250 2762 2517 
Q 2569 2784 2203 2784 
z
M 2203 3584 
Q 3106 3584 3614 3096 
Q 4122 2609 4122 1747 
Q 4122 884 3614 396 
Q 3106 -91 2203 -91 
Q 1297 -91 786 396 
Q 275 884 275 1747 
Q 275 2609 786 3096 
Q 1297 3584 2203 3584 
z
" transform="scale(0.015625)"/>
      <path id="DejaVuSans-Bold-75" d="M 500 1363 
L 500 3500 
L 1625 3500 
L 1625 3150 
Q 1625 2866 1622 2436 
Q 1619 2006 1619 1863 
Q 1619 1441 1641 1255 
Q 1663 1069 1716 984 
Q 1784 875 1895 815 
Q 2006 756 2150 756 
Q 2500 756 2700 1025 
Q 2900 1294 2900 1772 
L 2900 3500 
L 4019 3500 
L 4019 0 
L 2900 0 
L 2900 506 
Q 2647 200 2364 54 
Q 2081 -91 1741 -91 
Q 1134 -91 817 281 
Q 500 653 500 1363 
z
" transform="scale(0.015625)"/>
      <path id="DejaVuSans-Bold-74" d="M 1759 4494 
L 1759 3500 
L 2913 3500 
L 2913 2700 
L 1759 2700 
L 1759 1216 
Q 1759 972 1856 886 
Q 1953 800 2241 800 
L 2816 800 
L 2816 0 
L 1856 0 
Q 1194 0 917 276 
Q 641 553 641 1216 
L 641 2700 
L 84 2700 
L 84 3500 
L 641 3500 
L 641 4494 
L 1759 4494 
z
" transform="scale(0.015625)"/>
      <path id="DejaVuSans-Bold-69" d="M 538 3500 
L 1656 3500 
L 1656 0 
L 538 0 
L 538 3500 
z
M 538 4863 
L 1656 4863 
L 1656 3950 
L 538 3950 
L 538 4863 
z
" transform="scale(0.015625)"/>
      <path id="DejaVuSans-Bold-71" d="M 2181 2772 
Q 1825 2772 1636 2509 
Q 1447 2247 1447 1747 
Q 1447 1247 1636 984 
Q 1825 722 2181 722 
Q 2541 722 2730 984 
Q 2919 1247 2919 1747 
Q 2919 2247 2730 2509 
Q 2541 2772 2181 2772 
z
M 2919 506 
Q 2688 197 2409 53 
Q 2131 -91 1766 -91 
Q 1119 -91 703 423 
Q 288 938 288 1747 
Q 288 2556 703 3067 
Q 1119 3578 1766 3578 
Q 2131 3578 2409 3434 
Q 2688 3291 2919 2981 
L 2919 3500 
L 4044 3500 
L 4044 -1331 
L 2919 -1331 
L 2919 506 
z
" transform="scale(0.015625)"/>
      <path id="DejaVuSans-Bold-65" d="M 4031 1759 
L 4031 1441 
L 1416 1441 
Q 1456 1047 1700 850 
Q 1944 653 2381 653 
Q 2734 653 3104 758 
Q 3475 863 3866 1075 
L 3866 213 
Q 3469 63 3072 -14 
Q 2675 -91 2278 -91 
Q 1328 -91 801 392 
Q 275 875 275 1747 
Q 275 2603 792 3093 
Q 1309 3584 2216 3584 
Q 3041 3584 3536 3087 
Q 4031 2591 4031 1759 
z
M 2881 2131 
Q 2881 2450 2695 2645 
Q 2509 2841 2209 2841 
Q 1884 2841 1681 2658 
Q 1478 2475 1428 2131 
L 2881 2131 
z
" transform="scale(0.015625)"/>
     </defs>
     <use xlink:href="#DejaVuSans-Bold-42"/>
     <use xlink:href="#DejaVuSans-Bold-6f" transform="translate(76.220703 0)"/>
     <use xlink:href="#DejaVuSans-Bold-75" transform="translate(144.921875 0)"/>
     <use xlink:href="#DejaVuSans-Bold-74" transform="translate(216.113281 0)"/>
     <use xlink:href="#DejaVuSans-Bold-69" transform="translate(263.916016 0)"/>
     <use xlink:href="#DejaVuSans-Bold-71" transform="translate(298.193359 0)"/>
     <use xlink:href="#DejaVuSans-Bold-75" transform="translate(369.775391 0)"/>
     <use xlink:href="#DejaVuSans-Bold-65" transform="translate(440.966797 0)"/>
    </g>
   </g>
   <g id="text_2">
    <!-- ≤200 attendees  ·  Self-serve dashboard -->
    <g style="fill: #6b6b6b" transform="translate(7.2 106.938033) scale(0.09 -0.09)">
     <defs>
      <path id="DejaVuSans-2264" d="M 4684 3175 
L 1684 2309 
L 4684 1453 
L 4684 897 
L 678 2047 
L 678 2578 
L 4684 3725 
L 4684 3175 
z
M 678 531 
L 4684 531 
L 4684 0 
L 678 0 
L 678 531 
z
" transform="scale(0.015625)"/>
      <path id="DejaVuSans-32" d="M 1228 531 
L 3431 531 
L 3431 0 
L 469 0 
L 469 531 
Q 828 903 1448 1529 
Q 2069 2156 2228 2338 
Q 2531 2678 2651 2914 
Q 2772 3150 2772 3378 
Q 2772 3750 2511 3984 
Q 2250 4219 1831 4219 
Q 1534 4219 1204 4116 
Q 875 4013 500 3803 
L 500 4441 
Q 881 4594 1212 4672 
Q 1544 4750 1819 4750 
Q 2544 4750 2975 4387 
Q 3406 4025 3406 3419 
Q 3406 3131 3298 2873 
Q 3191 2616 2906 2266 
Q 2828 2175 2409 1742 
Q 1991 1309 1228 531 
z
" transform="scale(0.015625)"/>
      <path id="DejaVuSans-30" d="M 2034 4250 
Q 1547 4250 1301 3770 
Q 1056 3291 1056 2328 
Q 1056 1369 1301 889 
Q 1547 409 2034 409 
Q 2525 409 2770 889 
Q 3016 1369 3016 2328 
Q 3016 3291 2770 3770 
Q 2525 4250 2034 4250 
z
M 2034 4750 
Q 2819 4750 3233 4129 
Q 3647 3509 3647 2328 
Q 3647 1150 3233 529 
Q 2819 -91 2034 -91 
Q 1250 -91 836 529 
Q 422 1150 422 2328 
Q 422 3509 836 4129 
Q 1250 4750 2034 4750 
z
" transform="scale(0.015625)"/>
      <path id="DejaVuSans-20" transform="scale(0.015625)"/>
      <path id="DejaVuSans-61" d="M 2194 1759 
Q 1497 1759 1228 1600 
Q 959 1441 959 1056 
Q 959 750 1161 570 
Q 1363 391 1709 391 
Q 2188 391 2477 730 
Q 2766 1069 2766 1631 
L 2766 1759 
L 2194 1759 
z
M 3341 1997 
L 3341 0 
L 2766 0 
L 2766 531 
Q 2569 213 2275 61 
Q 1981 -91 1556 -91 
Q 1019 -91 701 211 
Q 384 513 384 1019 
Q 384 1609 779 1909 
Q 1175 2209 1959 2209 
L 2766 2209 
L 2766 2266 
Q 2766 2663 2505 2880 
Q 2244 3097 1772 3097 
Q 1472 3097 1187 3025 
Q 903 2953 641 2809 
L 641 3341 
Q 956 3463 1253 3523 
Q 1550 3584 1831 3584 
Q 2591 3584 2966 3190 
Q 3341 2797 3341 1997 
z
" transform="scale(0.015625)"/>
      <path id="DejaVuSans-74" d="M 1172 4494 
L 1172 3500 
L 2356 3500 
L 2356 3053 
L 1172 3053 
L 1172 1153 
Q 1172 725 1289 603 
Q 1406 481 1766 481 
L 2356 481 
L 2356 0 
L 1766 0 
Q 1100 0 847 248 
Q 594 497 594 1153 
L 594 3053 
L 172 3053 
L 172 3500 
L 594 3500 
L 594 4494 
L 1172 4494 
z
" transform="scale(0.015625)"/>
      <path id="DejaVuSans-65" d="M 3597 1894 
L 3597 1613 
L 953 1613 
Q 991 1019 1311 708 
Q 1631 397 2203 397 
Q 2534 397 2845 478 
Q 3156 559 3463 722 
L 3463 178 
Q 3153 47 2828 -22 
Q 2503 -91 2169 -91 
Q 1331 -91 842 396 
Q 353 884 353 1716 
Q 353 2575 817 3079 
Q 1281 3584 2069 3584 
Q 2775 3584 3186 3129 
Q 3597 2675 3597 1894 
z
M 3022 2063 
Q 3016 2534 2758 2815 
Q 2500 3097 2075 3097 
Q 1594 3097 1305 2825 
Q 1016 2553 972 2059 
L 3022 2063 
z
" transform="scale(0.015625)"/>
      <path id="DejaVuSans-6e" d="M 3513 2113 
L 3513 0 
L 2938 0 
L 2938 2094 
Q 2938 2591 2744 2837 
Q 2550 3084 2163 3084 
Q 1697 3084 1428 2787 
Q 1159 2491 1159 1978 
L 1159 0 
L 581 0 
L 581 3500 
L 1159 3500 
L 1159 2956 
Q 1366 3272 1645 3428 
Q 1925 3584 2291 3584 
Q 2894 3584 3203 3211 
Q 3513 2838 3513 2113 
z
" transform="scale(0.015625)"/>
      <path id="DejaVuSans-64" d="M 2906 2969 
L 2906 4863 
L 3481 4863 
L 3481 0 
L 2906 0 
L 2906 525 
Q 2725 213 2448 61 
Q 2172 -91 1784 -91 
Q 1150 -91 751 415 
Q 353 922 353 1747 
Q 353 2572 751 3078 
Q 1150 3584 1784 3584 
Q 2172 3584 2448 3432 
Q 2725 3281 2906 2969 
z
M 947 1747 
Q 947 1113 1208 752 
Q 1469 391 1925 391 
Q 2381 391 2643 752 
Q 2906 1113 2906 1747 
Q 2906 2381 2643 2742 
Q 2381 3103 1925 3103 
Q 1469 3103 1208 2742 
Q 947 2381 947 1747 
z
" transform="scale(0.015625)"/>
      <path id="DejaVuSans-73" d="M 2834 3397 
L 2834 2853 
Q 2591 2978 2328 3040 
Q 2066 3103 1784 3103 
Q 1356 3103 1142 2972 
Q 928 2841 928 2578 
Q 928 2378 1081 2264 
Q 1234 2150 1697 2047 
L 1894 2003 
Q 2506 1872 2764 1633 
Q 3022 1394 3022 966 
Q 3022 478 2636 193 
Q 2250 -91 1575 -91 
Q 1294 -91 989 -36 
Q 684 19 347 128 
L 347 722 
Q 666 556 975 473 
Q 1284 391 1588 391 
Q 1994 391 2212 530 
Q 2431 669 2431 922 
Q 2431 1156 2273 1281 
Q 2116 1406 1581 1522 
L 1381 1569 
Q 847 1681 609 1914 
Q 372 2147 372 2553 
Q 372 3047 722 3315 
Q 1072 3584 1716 3584 
Q 2034 3584 2315 3537 
Q 2597 3491 2834 3397 
z
" transform="scale(0.015625)"/>
      <path id="DejaVuSans-b7" d="M 684 2619 
L 1344 2619 
L 1344 1825 
L 684 1825 
L 684 2619 
z
" transform="scale(0.015625)"/>
      <path id="DejaVuSans-53" d="M 3425 4513 
L 3425 3897 
Q 3066 4069 2747 4153 
Q 2428 4238 2131 4238 
Q 1616 4238 1336 4038 
Q 1056 3838 1056 3469 
Q 1056 3159 1242 3001 
Q 1428 2844 1947 2747 
L 2328 2669 
Q 3034 2534 3370 2195 
Q 3706 1856 3706 1288 
Q 3706 609 3251 259 
Q 2797 -91 1919 -91 
Q 1588 -91 1214 -16 
Q 841 59 441 206 
L 441 856 
Q 825 641 1194 531 
Q 1563 422 1919 422 
Q 2459 422 2753 634 
Q 3047 847 3047 1241 
Q 3047 1584 2836 1778 
Q 2625 1972 2144 2069 
L 1759 2144 
Q 1053 2284 737 2584 
Q 422 2884 422 3419 
Q 422 4038 858 4394 
Q 1294 4750 2059 4750 
Q 2388 4750 2728 4690 
Q 3069 4631 3425 4513 
z
" transform="scale(0.015625)"/>
      <path id="DejaVuSans-6c" d="M 603 4863 
L 1178 4863 
L 1178 0 
L 603 0 
L 603 4863 
z
" transform="scale(0.015625)"/>
      <path id="DejaVuSans-66" d="M 2375 4863 
L 2375 4384 
L 1825 4384 
Q 1516 4384 1395 4259 
Q 1275 4134 1275 3809 
L 1275 3500 
L 2222 3500 
L 2222 3053 
L 1275 3053 
L 1275 0 
L 697 0 
L 697 3053 
L 147 3053 
L 147 3500 
L 697 3500 
L 697 3744 
Q 697 4328 969 4595 
Q 1241 4863 1831 4863 
L 2375 4863 
z
" transform="scale(0.015625)"/>
      <path id="DejaVuSans-2d" d="M 313 2009 
L 1997 2009 
L 1997 1497 
L 313 1497 
L 313 2009 
z
" transform="scale(0.015625)"/>
      <path id="DejaVuSans-72" d="M 2631 2963 
Q 2534 3019 2420 3045 
Q 2306 3072 2169 3072 
Q 1681 3072 1420 2755 
Q 1159 2438 1159 1844 
L 1159 0 
L 581 0 
L 581 3500 
L 1159 3500 
L 1159 2956 
Q 1341 3275 1631 3429 
Q 1922 3584 2338 3584 
Q 2397 3584 2469 3576 
Q 2541 3569 2628 3553 
L 2631 2963 
z
" transform="scale(0.015625)"/>
      <path id="DejaVuSans-76" d="M 191 3500 
L 800 3500 
L 1894 563 
L 2988 3500 
L 3597 3500 
L 2284 0 
L 1503 0 
L 191 3500 
z
" transform="scale(0.015625)"/>
      <path id="DejaVuSans-68" d="M 3513 2113 
L 3513 0 
L 2938 0 
L 2938 2094 
Q 2938 2591 2744 2837 
Q 2550 3084 2163 3084 
Q 1697 3084 1428 2787 
Q 1159 2491 1159 1978 
L 1159 0 
L 581 0 
L 581 4863 
L 1159 4863 
L 1159 2956 
Q 1366 3272 1645 3428 
Q 1925 3584 2291 3584 
Q 2894 3584 3203 3211 
Q 3513 2838 3513 2113 
z
" transform="scale(0.015625)"/>
      <path id="DejaVuSans-62" d="M 3116 1747 
Q 3116 2381 2855 2742 
Q 2594 3103 2138 3103 
Q 1681 3103 1420 2742 
Q 1159 2381 1159 1747 
Q 1159 1113 1420 752 
Q 1681 391 2138 391 
Q 2594 391 2855 752 
Q 3116 1113 3116 1747 
z
M 1159 2969 
Q 1341 3281 1617 3432 
Q 1894 3584 2278 3584 
Q 2916 3584 3314 3078 
Q 3713 2572 3713 1747 
Q 3713 922 3314 415 
Q 2916 -91 2278 -91 
Q 1894 -91 1617 61 
Q 1341 213 1159 525 
L 1159 0 
L 581 0 
L 581 4863 
L 1159 4863 
L 1159 2969 
z
" transform="scale(0.015625)"/>
      <path id="DejaVuSans-6f" d="M 1959 3097 
Q 1497 3097 1228 2736 
Q 959 2375 959 1747 
Q 959 1119 1226 758 
Q 1494 397 1959 397 
Q 2419 397 2687 759 
Q 2956 1122 2956 1747 
Q 2956 2369 2687 2733 
Q 2419 3097 1959 3097 
z
M 1959 3584 
Q 2709 3584 3137 3096 
Q 3566 2609 3566 1747 
Q 3566 888 3137 398 
Q 2709 -91 1959 -91 
Q 1206 -91 779 398 
Q 353 888 353 1747 
Q 353 2609 779 3096 
Q 1206 3584 1959 3584 
z
" transform="scale(0.015625)"/>
     </defs>
     <use xlink:href="#DejaVuSans-2264"/>
     <use xlink:href="#DejaVuSans-32" transform="translate(83.789062 0)"/>
     <use xlink:href="#DejaVuSans-30" transform="translate(147.412109 0)"/>
     <use xlink:href="#DejaVuSans-30" transform="translate(211.035156 0)"/>
     <use xlink:href="#DejaVuSans-20" transform="translate(274.658203 0)"/>
     <use xlink:href="#DejaVuSans-61" transform="translate(306.445312 0)"/>
     <use xlink:href="#DejaVuSans-74" transform="translate(367.724609 0)"/>
     <use xlink:href="#DejaVuSans-74" transform="translate(406.933594 0)"/>
     <use xlink:href="#DejaVuSans-65" transform="translate(446.142578 0)"/>
     <use xlink:href="#DejaVuSans-6e" transform="translate(507.666016 0)"/>
     <use xlink:href="#DejaVuSans-64" transform="translate(571.044922 0)"/>
     <use xlink:href="#DejaVuSans-65" transform="translate(634.521484 0)"/>
     <use xlink:href="#DejaVuSans-65" transform="translate(696.044922 0)"/>
     <use xlink:href="#DejaVuSans-73" transform="translate(757.568359 0)"/>
     <use xlink:href="#DejaVuSans-20" transform="translate(809.667969 0)"/>
     <use xlink:href="#DejaVuSans-20" transform="translate(841.455078 0)"/>
     <use xlink:href="#DejaVuSans-b7" transform="translate(873.242188 0)"/>
     <use xlink:href="#DejaVuSans-20" transform="translate(905.029297 0)"/>
     <use xlink:href="#DejaVuSans-20" transform="translate(936.816406 0)"/>
     <use xlink:href="#DejaVuSans-53" transform="translate(968.603516 0)"/>
     <use xlink:href="#DejaVuSans-65" transform="translate(1032.080078 0)"/>
     <use xlink:href="#DejaVuSans-6c" transform="translate(1093.603516 0)"/>
     <use xlink:href="#DejaVuSans-66" transform="translate(1121.386719 0)"/>
     <use xlink:href="#DejaVuSans-2d" transform="translate(1151.091797 0)"/>
     <use xlink:href="#DejaVuSans-73" transform="translate(1187.175781 0)"/>
     <use xlink:href="#DejaVuSans-65" transform="translate(1239.275391 0)"/>
     <use xlink:href="#DejaVuSans-72" transform="translate(1300.798828 0)"/>
     <use xlink:href="#DejaVuSans-76" transform="translate(1341.912109 0)"/>
     <use xlink:href="#DejaVuSans-65" transform="translate(1401.091797 0)"/>
     <use xlink:href="#DejaVuSans-20" transform="translate(1462.615234 0)"/>
     <use xlink:href="#DejaVuSans-64" transform="translate(1494.402344 0)"/>
     <use xlink:href="#DejaVuSans-61" transform="translate(1557.878906 0)"/>
     <use xlink:href="#DejaVuSans-73" transform="translate(1619.158203 0)"/>
     <use xlink:href="#DejaVuSans-68" transform="translate(1671.257812 0)"/>
     <use xlink:href="#DejaVuSans-62" transform="translate(1734.636719 0)"/>
     <use xlink:href="#DejaVuSans-6f" transform="translate(1798.113281 0)"/>
     <use xlink:href="#DejaVuSans-61" transform="translate(1859.294922 0)"/>
     <use xlink:href="#DejaVuSans-72" transform="translate(1920.574219 0)"/>
     <use xlink:href="#DejaVuSans-64" transform="translate(1959.9375 0)"/>
    </g>
   </g>
   <g id="text_3">
    <!-- $2,500 -->
    <g style="fill: #1a1a1a" transform="translate(244.54064 91.270018) scale(0.13 -0.13)">
     <defs>
      <path id="DejaVuSans-Bold-24" d="M 2484 -941 
L 1978 -941 
L 1975 0 
Q 1584 16 1218 87 
Q 853 159 506 288 
L 506 1106 
Q 866 922 1233 823 
Q 1600 725 1978 713 
L 1978 1684 
L 1875 1703 
Q 1128 1834 814 2115 
Q 500 2397 500 2925 
Q 500 3484 883 3798 
Q 1266 4113 1975 4141 
L 1978 4863 
L 2484 4863 
L 2484 4153 
Q 2797 4128 3109 4075 
Q 3422 4022 3738 3938 
L 3738 3144 
Q 3425 3275 3112 3348 
Q 2800 3422 2484 3438 
L 2484 2541 
L 2584 2522 
Q 3378 2397 3698 2105 
Q 4019 1813 4019 1241 
Q 4019 666 3637 358 
Q 3256 50 2484 6 
L 2484 -941 
z
M 1978 2613 
L 1978 3428 
Q 1756 3416 1623 3308 
Q 1491 3200 1491 3034 
Q 1491 2850 1612 2745 
Q 1734 2641 1978 2613 
z
M 2484 1594 
L 2484 725 
Q 2756 728 2892 831 
Q 3028 934 3028 1141 
Q 3028 1353 2903 1458 
Q 2778 1563 2484 1594 
z
" transform="scale(0.015625)"/>
      <path id="DejaVuSans-Bold-32" d="M 1844 884 
L 3897 884 
L 3897 0 
L 506 0 
L 506 884 
L 2209 2388 
Q 2438 2594 2547 2791 
Q 2656 2988 2656 3200 
Q 2656 3528 2436 3728 
Q 2216 3928 1850 3928 
Q 1569 3928 1234 3808 
Q 900 3688 519 3450 
L 519 4475 
Q 925 4609 1322 4679 
Q 1719 4750 2100 4750 
Q 2938 4750 3402 4381 
Q 3866 4013 3866 3353 
Q 3866 2972 3669 2642 
Q 3472 2313 2841 1759 
L 1844 884 
z
" transform="scale(0.015625)"/>
      <path id="DejaVuSans-Bold-2c" d="M 653 1209 
L 1778 1209 
L 1778 256 
L 1006 -909 
L 341 -909 
L 653 256 
L 653 1209 
z
" transform="scale(0.015625)"/>
      <path id="DejaVuSans-Bold-35" d="M 678 4666 
L 3669 4666 
L 3669 3781 
L 1638 3781 
L 1638 3059 
Q 1775 3097 1914 3117 
Q 2053 3138 2203 3138 
Q 3056 3138 3531 2711 
Q 4006 2284 4006 1522 
Q 4006 766 3489 337 
Q 2972 -91 2053 -91 
Q 1656 -91 1267 -14 
Q 878 63 494 219 
L 494 1166 
Q 875 947 1217 837 
Q 1559 728 1863 728 
Q 2300 728 2551 942 
Q 2803 1156 2803 1522 
Q 2803 1891 2551 2103 
Q 2300 2316 1863 2316 
Q 1603 2316 1309 2248 
Q 1016 2181 678 2041 
L 678 4666 
z
" transform="scale(0.015625)"/>
      <path id="DejaVuSans-Bold-30" d="M 2944 2338 
Q 2944 3213 2780 3570 
Q 2616 3928 2228 3928 
Q 1841 3928 1675 3570 
Q 1509 3213 1509 2338 
Q 1509 1453 1675 1090 
Q 1841 728 2228 728 
Q 2613 728 2778 1090 
Q 2944 1453 2944 2338 
z
M 4147 2328 
Q 4147 1169 3647 539 
Q 3147 -91 2228 -91 
Q 1306 -91 806 539 
Q 306 1169 306 2328 
Q 306 3491 806 4120 
Q 1306 4750 2228 4750 
Q 3147 4750 3647 4120 
Q 4147 3491 4147 2328 
z
" transform="scale(0.015625)"/>
     </defs>
     <use xlink:href="#DejaVuSans-Bold-24"/>
     <use xlink:href="#DejaVuSans-Bold-32" transform="translate(69.580078 0)"/>
     <use xlink:href="#DejaVuSans-Bold-2c" transform="translate(139.160156 0)"/>
     <use xlink:href="#DejaVuSans-Bold-35" transform="translate(177.148438 0)"/>
     <use xlink:href="#DejaVuSans-Bold-30" transform="translate(246.728516 0)"/>
     <use xlink:href="#DejaVuSans-Bold-30" transform="translate(316.308594 0)"/>
    </g>
   </g>
   <g id="text_4">
    <!-- Premium Summit -->
    <g style="fill: #1a1a1a" transform="translate(82.3 163.141673) scale(0.11 -0.11)">
     <defs>
      <path id="DejaVuSans-Bold-50" d="M 588 4666 
L 2584 4666 
Q 3475 4666 3951 4270 
Q 4428 3875 4428 3144 
Q 4428 2409 3951 2014 
Q 3475 1619 2584 1619 
L 1791 1619 
L 1791 0 
L 588 0 
L 588 4666 
z
M 1791 3794 
L 1791 2491 
L 2456 2491 
Q 2806 2491 2997 2661 
Q 3188 2831 3188 3144 
Q 3188 3456 2997 3625 
Q 2806 3794 2456 3794 
L 1791 3794 
z
" transform="scale(0.015625)"/>
      <path id="DejaVuSans-Bold-72" d="M 3138 2547 
Q 2991 2616 2845 2648 
Q 2700 2681 2553 2681 
Q 2122 2681 1889 2404 
Q 1656 2128 1656 1613 
L 1656 0 
L 538 0 
L 538 3500 
L 1656 3500 
L 1656 2925 
Q 1872 3269 2151 3426 
Q 2431 3584 2822 3584 
Q 2878 3584 2943 3579 
Q 3009 3575 3134 3559 
L 3138 2547 
z
" transform="scale(0.015625)"/>
      <path id="DejaVuSans-Bold-6d" d="M 3781 2919 
Q 3994 3244 4286 3414 
Q 4578 3584 4928 3584 
Q 5531 3584 5847 3212 
Q 6163 2841 6163 2131 
L 6163 0 
L 5038 0 
L 5038 1825 
Q 5041 1866 5042 1909 
Q 5044 1953 5044 2034 
Q 5044 2406 4934 2573 
Q 4825 2741 4581 2741 
Q 4263 2741 4089 2478 
Q 3916 2216 3909 1719 
L 3909 0 
L 2784 0 
L 2784 1825 
Q 2784 2406 2684 2573 
Q 2584 2741 2328 2741 
Q 2006 2741 1831 2477 
Q 1656 2213 1656 1722 
L 1656 0 
L 531 0 
L 531 3500 
L 1656 3500 
L 1656 2988 
Q 1863 3284 2130 3434 
Q 2397 3584 2719 3584 
Q 3081 3584 3359 3409 
Q 3638 3234 3781 2919 
z
" transform="scale(0.015625)"/>
      <path id="DejaVuSans-Bold-20" transform="scale(0.015625)"/>
      <path id="DejaVuSans-Bold-53" d="M 3834 4519 
L 3834 3531 
Q 3450 3703 3084 3790 
Q 2719 3878 2394 3878 
Q 1963 3878 1756 3759 
Q 1550 3641 1550 3391 
Q 1550 3203 1689 3098 
Q 1828 2994 2194 2919 
L 2706 2816 
Q 3484 2659 3812 2340 
Q 4141 2022 4141 1434 
Q 4141 663 3683 286 
Q 3225 -91 2284 -91 
Q 1841 -91 1394 -6 
Q 947 78 500 244 
L 500 1259 
Q 947 1022 1364 901 
Q 1781 781 2169 781 
Q 2563 781 2772 912 
Q 2981 1044 2981 1288 
Q 2981 1506 2839 1625 
Q 2697 1744 2272 1838 
L 1806 1941 
Q 1106 2091 782 2419 
Q 459 2747 459 3303 
Q 459 4000 909 4375 
Q 1359 4750 2203 4750 
Q 2588 4750 2994 4692 
Q 3400 4634 3834 4519 
z
" transform="scale(0.015625)"/>
     </defs>
     <use xlink:href="#DejaVuSans-Bold-50"/>
     <use xlink:href="#DejaVuSans-Bold-72" transform="translate(73.291016 0)"/>
     <use xlink:href="#DejaVuSans-Bold-65" transform="translate(122.607422 0)"/>
     <use xlink:href="#DejaVuSans-Bold-6d" transform="translate(190.429688 0)"/>
     <use xlink:href="#DejaVuSans-Bold-69" transform="translate(294.628906 0)"/>
     <use xlink:href="#DejaVuSans-Bold-75" transform="translate(328.90625 0)"/>
     <use xlink:href="#DejaVuSans-Bold-6d" transform="translate(400.097656 0)"/>
     <use xlink:href="#DejaVuSans-Bold-20" transform="translate(504.296875 0)"/>
     <use xlink:href="#DejaVuSans-Bold-53" transform="translate(539.111328 0)"/>
     <use xlink:href="#DejaVuSans-Bold-75" transform="translate(611.132812 0)"/>
     <use xlink:href="#DejaVuSans-Bold-6d" transform="translate(682.324219 0)"/>
     <use xlink:href="#DejaVuSans-Bold-6d" transform="translate(786.523438 0)"/>
     <use xlink:href="#DejaVuSans-Bold-69" transform="translate(890.722656 0)"/>
     <use xlink:href="#DejaVuSans-Bold-74" transform="translate(925 0)"/>
    </g>
   </g>
   <g id="text_5">
    <!-- 200–800  ·  Agency-managed -->
    <g style="fill: #6b6b6b" transform="translate(57.207656 183.173327) scale(0.09 -0.09)">
     <defs>
      <path id="DejaVuSans-2013" d="M 313 1978 
L 2888 1978 
L 2888 1528 
L 313 1528 
L 313 1978 
z
" transform="scale(0.015625)"/>
      <path id="DejaVuSans-38" d="M 2034 2216 
Q 1584 2216 1326 1975 
Q 1069 1734 1069 1313 
Q 1069 891 1326 650 
Q 1584 409 2034 409 
Q 2484 409 2743 651 
Q 3003 894 3003 1313 
Q 3003 1734 2745 1975 
Q 2488 2216 2034 2216 
z
M 1403 2484 
Q 997 2584 770 2862 
Q 544 3141 544 3541 
Q 544 4100 942 4425 
Q 1341 4750 2034 4750 
Q 2731 4750 3128 4425 
Q 3525 4100 3525 3541 
Q 3525 3141 3298 2862 
Q 3072 2584 2669 2484 
Q 3125 2378 3379 2068 
Q 3634 1759 3634 1313 
Q 3634 634 3220 271 
Q 2806 -91 2034 -91 
Q 1263 -91 848 271 
Q 434 634 434 1313 
Q 434 1759 690 2068 
Q 947 2378 1403 2484 
z
M 1172 3481 
Q 1172 3119 1398 2916 
Q 1625 2713 2034 2713 
Q 2441 2713 2670 2916 
Q 2900 3119 2900 3481 
Q 2900 3844 2670 4047 
Q 2441 4250 2034 4250 
Q 1625 4250 1398 4047 
Q 1172 3844 1172 3481 
z
" transform="scale(0.015625)"/>
      <path id="DejaVuSans-41" d="M 2188 4044 
L 1331 1722 
L 3047 1722 
L 2188 4044 
z
M 1831 4666 
L 2547 4666 
L 4325 0 
L 3669 0 
L 3244 1197 
L 1141 1197 
L 716 0 
L 50 0 
L 1831 4666 
z
" transform="scale(0.015625)"/>
      <path id="DejaVuSans-67" d="M 2906 1791 
Q 2906 2416 2648 2759 
Q 2391 3103 1925 3103 
Q 1463 3103 1205 2759 
Q 947 2416 947 1791 
Q 947 1169 1205 825 
Q 1463 481 1925 481 
Q 2391 481 2648 825 
Q 2906 1169 2906 1791 
z
M 3481 434 
Q 3481 -459 3084 -895 
Q 2688 -1331 1869 -1331 
Q 1566 -1331 1297 -1286 
Q 1028 -1241 775 -1147 
L 775 -588 
Q 1028 -725 1275 -790 
Q 1522 -856 1778 -856 
Q 2344 -856 2625 -561 
Q 2906 -266 2906 331 
L 2906 616 
Q 2728 306 2450 153 
Q 2172 0 1784 0 
Q 1141 0 747 490 
Q 353 981 353 1791 
Q 353 2603 747 3093 
Q 1141 3584 1784 3584 
Q 2172 3584 2450 3431 
Q 2728 3278 2906 2969 
L 2906 3500 
L 3481 3500 
L 3481 434 
z
" transform="scale(0.015625)"/>
      <path id="DejaVuSans-63" d="M 3122 3366 
L 3122 2828 
Q 2878 2963 2633 3030 
Q 2388 3097 2138 3097 
Q 1578 3097 1268 2742 
Q 959 2388 959 1747 
Q 959 1106 1268 751 
Q 1578 397 2138 397 
Q 2388 397 2633 464 
Q 2878 531 3122 666 
L 3122 134 
Q 2881 22 2623 -34 
Q 2366 -91 2075 -91 
Q 1284 -91 818 406 
Q 353 903 353 1747 
Q 353 2603 823 3093 
Q 1294 3584 2113 3584 
Q 2378 3584 2631 3529 
Q 2884 3475 3122 3366 
z
" transform="scale(0.015625)"/>
      <path id="DejaVuSans-79" d="M 2059 -325 
Q 1816 -950 1584 -1140 
Q 1353 -1331 966 -1331 
L 506 -1331 
L 506 -850 
L 844 -850 
Q 1081 -850 1212 -737 
Q 1344 -625 1503 -206 
L 1606 56 
L 191 3500 
L 800 3500 
L 1894 763 
L 2988 3500 
L 3597 3500 
L 2059 -325 
z
" transform="scale(0.015625)"/>
      <path id="DejaVuSans-6d" d="M 3328 2828 
Q 3544 3216 3844 3400 
Q 4144 3584 4550 3584 
Q 5097 3584 5394 3201 
Q 5691 2819 5691 2113 
L 5691 0 
L 5113 0 
L 5113 2094 
Q 5113 2597 4934 2840 
Q 4756 3084 4391 3084 
Q 3944 3084 3684 2787 
Q 3425 2491 3425 1978 
L 3425 0 
L 2847 0 
L 2847 2094 
Q 2847 2600 2669 2842 
Q 2491 3084 2119 3084 
Q 1678 3084 1418 2786 
Q 1159 2488 1159 1978 
L 1159 0 
L 581 0 
L 581 3500 
L 1159 3500 
L 1159 2956 
Q 1356 3278 1631 3431 
Q 1906 3584 2284 3584 
Q 2666 3584 2933 3390 
Q 3200 3197 3328 2828 
z
" transform="scale(0.015625)"/>
     </defs>
     <use xlink:href="#DejaVuSans-32"/>
     <use xlink:href="#DejaVuSans-30" transform="translate(63.623047 0)"/>
     <use xlink:href="#DejaVuSans-30" transform="translate(127.246094 0)"/>
     <use xlink:href="#DejaVuSans-2013" transform="translate(190.869141 0)"/>
     <use xlink:href="#DejaVuSans-38" transform="translate(240.869141 0)"/>
     <use xlink:href="#DejaVuSans-30" transform="translate(304.492188 0)"/>
     <use xlink:href="#DejaVuSans-30" transform="translate(368.115234 0)"/>
     <use xlink:href="#DejaVuSans-20" transform="translate(431.738281 0)"/>
     <use xlink:href="#DejaVuSans-20" transform="translate(463.525391 0)"/>
     <use xlink:href="#DejaVuSans-b7" transform="translate(495.3125 0)"/>
     <use xlink:href="#DejaVuSans-20" transform="translate(527.099609 0)"/>
     <use xlink:href="#DejaVuSans-20" transform="translate(558.886719 0)"/>
     <use xlink:href="#DejaVuSans-41" transform="translate(590.673828 0)"/>
     <use xlink:href="#DejaVuSans-67" transform="translate(659.082031 0)"/>
     <use xlink:href="#DejaVuSans-65" transform="translate(722.558594 0)"/>
     <use xlink:href="#DejaVuSans-6e" transform="translate(784.082031 0)"/>
     <use xlink:href="#DejaVuSans-63" transform="translate(847.460938 0)"/>
     <use xlink:href="#DejaVuSans-79" transform="translate(902.441406 0)"/>
     <use xlink:href="#DejaVuSans-2d" transform="translate(959.871094 0)"/>
     <use xlink:href="#DejaVuSans-6d" transform="translate(995.955078 0)"/>
     <use xlink:href="#DejaVuSans-61" transform="translate(1093.367188 0)"/>
     <use xlink:href="#DejaVuSans-6e" transform="translate(1154.646484 0)"/>
     <use xlink:href="#DejaVuSans-61" transform="translate(1218.025391 0)"/>
     <use xlink:href="#DejaVuSans-67" transform="translate(1279.304688 0)"/>
     <use xlink:href="#DejaVuSans-65" transform="translate(1342.78125 0)"/>
     <use xlink:href="#DejaVuSans-64" transform="translate(1404.304688 0)"/>
    </g>
   </g>
   <g id="text_6">
    <!-- $6,000 -->
    <g style="fill: #1a1a1a" transform="translate(304.949835 167.505312) scale(0.13 -0.13)">
     <defs>
      <path id="DejaVuSans-Bold-36" d="M 2316 2303 
Q 2000 2303 1842 2098 
Q 1684 1894 1684 1484 
Q 1684 1075 1842 870 
Q 2000 666 2316 666 
Q 2634 666 2792 870 
Q 2950 1075 2950 1484 
Q 2950 1894 2792 2098 
Q 2634 2303 2316 2303 
z
M 3803 4544 
L 3803 3681 
Q 3506 3822 3243 3889 
Q 2981 3956 2731 3956 
Q 2194 3956 1894 3657 
Q 1594 3359 1544 2772 
Q 1750 2925 1990 3001 
Q 2231 3078 2516 3078 
Q 3231 3078 3670 2659 
Q 4109 2241 4109 1563 
Q 4109 813 3618 361 
Q 3128 -91 2303 -91 
Q 1394 -91 895 523 
Q 397 1138 397 2266 
Q 397 3422 980 4083 
Q 1563 4744 2578 4744 
Q 2900 4744 3203 4694 
Q 3506 4644 3803 4544 
z
" transform="scale(0.015625)"/>
     </defs>
     <use xlink:href="#DejaVuSans-Bold-24"/>
     <use xlink:href="#DejaVuSans-Bold-36" transform="translate(69.580078 0)"/>
     <use xlink:href="#DejaVuSans-Bold-2c" transform="translate(139.160156 0)"/>
     <use xlink:href="#DejaVuSans-Bold-30" transform="translate(177.148438 0)"/>
     <use xlink:href="#DejaVuSans-Bold-30" transform="translate(246.728516 0)"/>
     <use xlink:href="#DejaVuSans-Bold-30" transform="translate(316.308594 0)"/>
    </g>
   </g>
   <g id="text_7">
    <!-- Enterprise · Gala -->
    <g style="fill: #1a1a1a" transform="translate(85.261406 239.376967) scale(0.11 -0.11)">
     <defs>
      <path id="DejaVuSans-Bold-45" d="M 588 4666 
L 3834 4666 
L 3834 3756 
L 1791 3756 
L 1791 2888 
L 3713 2888 
L 3713 1978 
L 1791 1978 
L 1791 909 
L 3903 909 
L 3903 0 
L 588 0 
L 588 4666 
z
" transform="scale(0.015625)"/>
      <path id="DejaVuSans-Bold-6e" d="M 4056 2131 
L 4056 0 
L 2931 0 
L 2931 347 
L 2931 1631 
Q 2931 2084 2911 2256 
Q 2891 2428 2841 2509 
Q 2775 2619 2662 2680 
Q 2550 2741 2406 2741 
Q 2056 2741 1856 2470 
Q 1656 2200 1656 1722 
L 1656 0 
L 538 0 
L 538 3500 
L 1656 3500 
L 1656 2988 
Q 1909 3294 2193 3439 
Q 2478 3584 2822 3584 
Q 3428 3584 3742 3212 
Q 4056 2841 4056 2131 
z
" transform="scale(0.015625)"/>
      <path id="DejaVuSans-Bold-70" d="M 1656 506 
L 1656 -1331 
L 538 -1331 
L 538 3500 
L 1656 3500 
L 1656 2988 
Q 1888 3294 2169 3439 
Q 2450 3584 2816 3584 
Q 3463 3584 3878 3070 
Q 4294 2556 4294 1747 
Q 4294 938 3878 423 
Q 3463 -91 2816 -91 
Q 2450 -91 2169 54 
Q 1888 200 1656 506 
z
M 2400 2772 
Q 2041 2772 1848 2508 
Q 1656 2244 1656 1747 
Q 1656 1250 1848 986 
Q 2041 722 2400 722 
Q 2759 722 2948 984 
Q 3138 1247 3138 1747 
Q 3138 2247 2948 2509 
Q 2759 2772 2400 2772 
z
" transform="scale(0.015625)"/>
      <path id="DejaVuSans-Bold-73" d="M 3272 3391 
L 3272 2541 
Q 2913 2691 2578 2766 
Q 2244 2841 1947 2841 
Q 1628 2841 1473 2761 
Q 1319 2681 1319 2516 
Q 1319 2381 1436 2309 
Q 1553 2238 1856 2203 
L 2053 2175 
Q 2913 2066 3209 1816 
Q 3506 1566 3506 1031 
Q 3506 472 3093 190 
Q 2681 -91 1863 -91 
Q 1516 -91 1145 -36 
Q 775 19 384 128 
L 384 978 
Q 719 816 1070 734 
Q 1422 653 1784 653 
Q 2113 653 2278 743 
Q 2444 834 2444 1013 
Q 2444 1163 2330 1236 
Q 2216 1309 1875 1350 
L 1678 1375 
Q 931 1469 631 1722 
Q 331 1975 331 2491 
Q 331 3047 712 3315 
Q 1094 3584 1881 3584 
Q 2191 3584 2531 3537 
Q 2872 3491 3272 3391 
z
" transform="scale(0.015625)"/>
      <path id="DejaVuSans-Bold-b7" d="M 653 2828 
L 1778 2828 
L 1778 1619 
L 653 1619 
L 653 2828 
z
" transform="scale(0.015625)"/>
      <path id="DejaVuSans-Bold-47" d="M 4781 347 
Q 4331 128 3847 18 
Q 3363 -91 2847 -91 
Q 1681 -91 1000 561 
Q 319 1213 319 2328 
Q 319 3456 1012 4103 
Q 1706 4750 2913 4750 
Q 3378 4750 3804 4662 
Q 4231 4575 4609 4403 
L 4609 3438 
Q 4219 3659 3833 3768 
Q 3447 3878 3059 3878 
Q 2341 3878 1952 3476 
Q 1563 3075 1563 2328 
Q 1563 1588 1938 1184 
Q 2313 781 3003 781 
Q 3191 781 3352 804 
Q 3513 828 3641 878 
L 3641 1784 
L 2906 1784 
L 2906 2591 
L 4781 2591 
L 4781 347 
z
" transform="scale(0.015625)"/>
      <path id="DejaVuSans-Bold-61" d="M 2106 1575 
Q 1756 1575 1579 1456 
Q 1403 1338 1403 1106 
Q 1403 894 1545 773 
Q 1688 653 1941 653 
Q 2256 653 2472 879 
Q 2688 1106 2688 1447 
L 2688 1575 
L 2106 1575 
z
M 3816 1997 
L 3816 0 
L 2688 0 
L 2688 519 
Q 2463 200 2181 54 
Q 1900 -91 1497 -91 
Q 953 -91 614 226 
Q 275 544 275 1050 
Q 275 1666 698 1953 
Q 1122 2241 2028 2241 
L 2688 2241 
L 2688 2328 
Q 2688 2594 2478 2717 
Q 2269 2841 1825 2841 
Q 1466 2841 1156 2769 
Q 847 2697 581 2553 
L 581 3406 
Q 941 3494 1303 3539 
Q 1666 3584 2028 3584 
Q 2975 3584 3395 3211 
Q 3816 2838 3816 1997 
z
" transform="scale(0.015625)"/>
      <path id="DejaVuSans-Bold-6c" d="M 538 4863 
L 1656 4863 
L 1656 0 
L 538 0 
L 538 4863 
z
" transform="scale(0.015625)"/>
     </defs>
     <use xlink:href="#DejaVuSans-Bold-45"/>
     <use xlink:href="#DejaVuSans-Bold-6e" transform="translate(68.310547 0)"/>
     <use xlink:href="#DejaVuSans-Bold-74" transform="translate(139.501953 0)"/>
     <use xlink:href="#DejaVuSans-Bold-65" transform="translate(187.304688 0)"/>
     <use xlink:href="#DejaVuSans-Bold-72" transform="translate(255.126953 0)"/>
     <use xlink:href="#DejaVuSans-Bold-70" transform="translate(304.443359 0)"/>
     <use xlink:href="#DejaVuSans-Bold-72" transform="translate(376.025391 0)"/>
     <use xlink:href="#DejaVuSans-Bold-69" transform="translate(425.341797 0)"/>
     <use xlink:href="#DejaVuSans-Bold-73" transform="translate(459.619141 0)"/>
     <use xlink:href="#DejaVuSans-Bold-65" transform="translate(519.140625 0)"/>
     <use xlink:href="#DejaVuSans-Bold-20" transform="translate(586.962891 0)"/>
     <use xlink:href="#DejaVuSans-Bold-b7" transform="translate(621.777344 0)"/>
     <use xlink:href="#DejaVuSans-Bold-20" transform="translate(659.765625 0)"/>
     <use xlink:href="#DejaVuSans-Bold-47" transform="translate(694.580078 0)"/>
     <use xlink:href="#DejaVuSans-Bold-61" transform="translate(776.660156 0)"/>
     <use xlink:href="#DejaVuSans-Bold-6c" transform="translate(844.140625 0)"/>
     <use xlink:href="#DejaVuSans-Bold-61" transform="translate(878.417969 0)"/>
    </g>
   </g>
   <g id="text_8">
    <!-- 800+  ·  On-site concierge -->
    <g style="fill: #6b6b6b" transform="translate(71.197031 259.408621) scale(0.09 -0.09)">
     <defs>
      <path id="DejaVuSans-2b" d="M 2944 4013 
L 2944 2272 
L 4684 2272 
L 4684 1741 
L 2944 1741 
L 2944 0 
L 2419 0 
L 2419 1741 
L 678 1741 
L 678 2272 
L 2419 2272 
L 2419 4013 
L 2944 4013 
z
" transform="scale(0.015625)"/>
      <path id="DejaVuSans-4f" d="M 2522 4238 
Q 1834 4238 1429 3725 
Q 1025 3213 1025 2328 
Q 1025 1447 1429 934 
Q 1834 422 2522 422 
Q 3209 422 3611 934 
Q 4013 1447 4013 2328 
Q 4013 3213 3611 3725 
Q 3209 4238 2522 4238 
z
M 2522 4750 
Q 3503 4750 4090 4092 
Q 4678 3434 4678 2328 
Q 4678 1225 4090 567 
Q 3503 -91 2522 -91 
Q 1538 -91 948 565 
Q 359 1222 359 2328 
Q 359 3434 948 4092 
Q 1538 4750 2522 4750 
z
" transform="scale(0.015625)"/>
      <path id="DejaVuSans-69" d="M 603 3500 
L 1178 3500 
L 1178 0 
L 603 0 
L 603 3500 
z
M 603 4863 
L 1178 4863 
L 1178 4134 
L 603 4134 
L 603 4863 
z
" transform="scale(0.015625)"/>
     </defs>
     <use xlink:href="#DejaVuSans-38"/>
     <use xlink:href="#DejaVuSans-30" transform="translate(63.623047 0)"/>
     <use xlink:href="#DejaVuSans-30" transform="translate(127.246094 0)"/>
     <use xlink:href="#DejaVuSans-2b" transform="translate(190.869141 0)"/>
     <use xlink:href="#DejaVuSans-20" transform="translate(274.658203 0)"/>
     <use xlink:href="#DejaVuSans-20" transform="translate(306.445312 0)"/>
     <use xlink:href="#DejaVuSans-b7" transform="translate(338.232422 0)"/>
     <use xlink:href="#DejaVuSans-20" transform="translate(370.019531 0)"/>
     <use xlink:href="#DejaVuSans-20" transform="translate(401.806641 0)"/>
     <use xlink:href="#DejaVuSans-4f" transform="translate(433.59375 0)"/>
     <use xlink:href="#DejaVuSans-6e" transform="translate(512.304688 0)"/>
     <use xlink:href="#DejaVuSans-2d" transform="translate(575.683594 0)"/>
     <use xlink:href="#DejaVuSans-73" transform="translate(611.767578 0)"/>
     <use xlink:href="#DejaVuSans-69" transform="translate(663.867188 0)"/>
     <use xlink:href="#DejaVuSans-74" transform="translate(691.650391 0)"/>
     <use xlink:href="#DejaVuSans-65" transform="translate(730.859375 0)"/>
     <use xlink:href="#DejaVuSans-20" transform="translate(792.382812 0)"/>
     <use xlink:href="#DejaVuSans-63" transform="translate(824.169922 0)"/>
     <use xlink:href="#DejaVuSans-6f" transform="translate(879.150391 0)"/>
     <use xlink:href="#DejaVuSans-6e" transform="translate(940.332031 0)"/>
     <use xlink:href="#DejaVuSans-63" transform="translate(1003.710938 0)"/>
     <use xlink:href="#DejaVuSans-69" transform="translate(1058.691406 0)"/>
     <use xlink:href="#DejaVuSans-65" transform="translate(1086.474609 0)"/>
     <use xlink:href="#DejaVuSans-72" transform="translate(1147.998047 0)"/>
     <use xlink:href="#DejaVuSans-67" transform="translate(1187.361328 0)"/>
     <use xlink:href="#DejaVuSans-65" transform="translate(1250.837891 0)"/>
    </g>
   </g>
   <g id="text_9">
    <!-- $12,000 -->
    <g style="fill: #1a1a1a" transform="translate(408.508457 243.740607) scale(0.13 -0.13)">
     <defs>
      <path id="DejaVuSans-Bold-31" d="M 750 831 
L 1813 831 
L 1813 3847 
L 722 3622 
L 722 4441 
L 1806 4666 
L 2950 4666 
L 2950 831 
L 4013 831 
L 4013 0 
L 750 0 
L 750 831 
z
" transform="scale(0.015625)"/>
     </defs>
     <use xlink:href="#DejaVuSans-Bold-24"/>
     <use xlink:href="#DejaVuSans-Bold-31" transform="translate(69.580078 0)"/>
     <use xlink:href="#DejaVuSans-Bold-32" transform="translate(139.160156 0)"/>
     <use xlink:href="#DejaVuSans-Bold-2c" transform="translate(208.740234 0)"/>
     <use xlink:href="#DejaVuSans-Bold-30" transform="translate(246.728516 0)"/>
     <use xlink:href="#DejaVuSans-Bold-30" transform="translate(316.308594 0)"/>
     <use xlink:href="#DejaVuSans-Bold-30" transform="translate(385.888672 0)"/>
    </g>
   </g>
   <g id="text_10">
    <!-- Per-event license  ·  flat fee, no per-head metering -->
    <g style="fill: #1a1a1a" transform="translate(75.394892 16.318125) scale(0.12 -0.12)">
     <defs>
      <path id="DejaVuSans-Bold-2d" d="M 347 2297 
L 2309 2297 
L 2309 1388 
L 347 1388 
L 347 2297 
z
" transform="scale(0.015625)"/>
      <path id="DejaVuSans-Bold-76" d="M 97 3500 
L 1216 3500 
L 2088 1081 
L 2956 3500 
L 4078 3500 
L 2700 0 
L 1472 0 
L 97 3500 
z
" transform="scale(0.015625)"/>
      <path id="DejaVuSans-Bold-63" d="M 3366 3391 
L 3366 2478 
Q 3138 2634 2908 2709 
Q 2678 2784 2431 2784 
Q 1963 2784 1702 2511 
Q 1441 2238 1441 1747 
Q 1441 1256 1702 982 
Q 1963 709 2431 709 
Q 2694 709 2930 787 
Q 3166 866 3366 1019 
L 3366 103 
Q 3103 6 2833 -42 
Q 2563 -91 2291 -91 
Q 1344 -91 809 395 
Q 275 881 275 1747 
Q 275 2613 809 3098 
Q 1344 3584 2291 3584 
Q 2566 3584 2833 3536 
Q 3100 3488 3366 3391 
z
" transform="scale(0.015625)"/>
      <path id="DejaVuSans-Bold-66" d="M 2841 4863 
L 2841 4128 
L 2222 4128 
Q 1984 4128 1890 4042 
Q 1797 3956 1797 3744 
L 1797 3500 
L 2753 3500 
L 2753 2700 
L 1797 2700 
L 1797 0 
L 678 0 
L 678 2700 
L 122 2700 
L 122 3500 
L 678 3500 
L 678 3744 
Q 678 4316 997 4589 
Q 1316 4863 1984 4863 
L 2841 4863 
z
" transform="scale(0.015625)"/>
      <path id="DejaVuSans-Bold-68" d="M 4056 2131 
L 4056 0 
L 2931 0 
L 2931 347 
L 2931 1625 
Q 2931 2084 2911 2256 
Q 2891 2428 2841 2509 
Q 2775 2619 2662 2680 
Q 2550 2741 2406 2741 
Q 2056 2741 1856 2470 
Q 1656 2200 1656 1722 
L 1656 0 
L 538 0 
L 538 4863 
L 1656 4863 
L 1656 2988 
Q 1909 3294 2193 3439 
Q 2478 3584 2822 3584 
Q 3428 3584 3742 3212 
Q 4056 2841 4056 2131 
z
" transform="scale(0.015625)"/>
      <path id="DejaVuSans-Bold-64" d="M 2919 2988 
L 2919 4863 
L 4044 4863 
L 4044 0 
L 2919 0 
L 2919 506 
Q 2688 197 2409 53 
Q 2131 -91 1766 -91 
Q 1119 -91 703 423 
Q 288 938 288 1747 
Q 288 2556 703 3070 
Q 1119 3584 1766 3584 
Q 2128 3584 2408 3439 
Q 2688 3294 2919 2988 
z
M 2181 722 
Q 2541 722 2730 984 
Q 2919 1247 2919 1747 
Q 2919 2247 2730 2509 
Q 2541 2772 2181 2772 
Q 1825 2772 1636 2509 
Q 1447 2247 1447 1747 
Q 1447 1247 1636 984 
Q 1825 722 2181 722 
z
" transform="scale(0.015625)"/>
      <path id="DejaVuSans-Bold-67" d="M 2919 594 
Q 2688 288 2409 144 
Q 2131 0 1766 0 
Q 1125 0 706 504 
Q 288 1009 288 1791 
Q 288 2575 706 3076 
Q 1125 3578 1766 3578 
Q 2131 3578 2409 3434 
Q 2688 3291 2919 2981 
L 2919 3500 
L 4044 3500 
L 4044 353 
Q 4044 -491 3511 -936 
Q 2978 -1381 1966 -1381 
Q 1638 -1381 1331 -1331 
Q 1025 -1281 716 -1178 
L 716 -306 
Q 1009 -475 1290 -558 
Q 1572 -641 1856 -641 
Q 2406 -641 2662 -400 
Q 2919 -159 2919 353 
L 2919 594 
z
M 2181 2772 
Q 1834 2772 1640 2515 
Q 1447 2259 1447 1791 
Q 1447 1309 1634 1061 
Q 1822 813 2181 813 
Q 2531 813 2725 1069 
Q 2919 1325 2919 1791 
Q 2919 2259 2725 2515 
Q 2531 2772 2181 2772 
z
" transform="scale(0.015625)"/>
     </defs>
     <use xlink:href="#DejaVuSans-Bold-50"/>
     <use xlink:href="#DejaVuSans-Bold-65" transform="translate(73.291016 0)"/>
     <use xlink:href="#DejaVuSans-Bold-72" transform="translate(141.113281 0)"/>
     <use xlink:href="#DejaVuSans-Bold-2d" transform="translate(190.429688 0)"/>
     <use xlink:href="#DejaVuSans-Bold-65" transform="translate(231.933594 0)"/>
     <use xlink:href="#DejaVuSans-Bold-76" transform="translate(299.755859 0)"/>
     <use xlink:href="#DejaVuSans-Bold-65" transform="translate(364.941406 0)"/>
     <use xlink:href="#DejaVuSans-Bold-6e" transform="translate(432.763672 0)"/>
     <use xlink:href="#DejaVuSans-Bold-74" transform="translate(503.955078 0)"/>
     <use xlink:href="#DejaVuSans-Bold-20" transform="translate(551.757812 0)"/>
     <use xlink:href="#DejaVuSans-Bold-6c" transform="translate(586.572266 0)"/>
     <use xlink:href="#DejaVuSans-Bold-69" transform="translate(620.849609 0)"/>
     <use xlink:href="#DejaVuSans-Bold-63" transform="translate(655.126953 0)"/>
     <use xlink:href="#DejaVuSans-Bold-65" transform="translate(714.404297 0)"/>
     <use xlink:href="#DejaVuSans-Bold-6e" transform="translate(782.226562 0)"/>
     <use xlink:href="#DejaVuSans-Bold-73" transform="translate(853.417969 0)"/>
     <use xlink:href="#DejaVuSans-Bold-65" transform="translate(912.939453 0)"/>
     <use xlink:href="#DejaVuSans-Bold-20" transform="translate(980.761719 0)"/>
     <use xlink:href="#DejaVuSans-Bold-20" transform="translate(1015.576172 0)"/>
     <use xlink:href="#DejaVuSans-Bold-b7" transform="translate(1050.390625 0)"/>
     <use xlink:href="#DejaVuSans-Bold-20" transform="translate(1088.378906 0)"/>
     <use xlink:href="#DejaVuSans-Bold-20" transform="translate(1123.193359 0)"/>
     <use xlink:href="#DejaVuSans-Bold-66" transform="translate(1158.007812 0)"/>
     <use xlink:href="#DejaVuSans-Bold-6c" transform="translate(1201.513672 0)"/>
     <use xlink:href="#DejaVuSans-Bold-61" transform="translate(1235.791016 0)"/>
     <use xlink:href="#DejaVuSans-Bold-74" transform="translate(1303.271484 0)"/>
     <use xlink:href="#DejaVuSans-Bold-20" transform="translate(1351.074219 0)"/>
     <use xlink:href="#DejaVuSans-Bold-66" transform="translate(1385.888672 0)"/>
     <use xlink:href="#DejaVuSans-Bold-65" transform="translate(1429.394531 0)"/>
     <use xlink:href="#DejaVuSans-Bold-65" transform="translate(1497.216797 0)"/>
     <use xlink:href="#DejaVuSans-Bold-2c" transform="translate(1565.039062 0)"/>
     <use xlink:href="#DejaVuSans-Bold-20" transform="translate(1603.027344 0)"/>
     <use xlink:href="#DejaVuSans-Bold-6e" transform="translate(1637.841797 0)"/>
     <use xlink:href="#DejaVuSans-Bold-6f" transform="translate(1709.033203 0)"/>
     <use xlink:href="#DejaVuSans-Bold-20" transform="translate(1777.734375 0)"/>
     <use xlink:href="#DejaVuSans-Bold-70" transform="translate(1812.548828 0)"/>
     <use xlink:href="#DejaVuSans-Bold-65" transform="translate(1884.130859 0)"/>
     <use xlink:href="#DejaVuSans-Bold-72" transform="translate(1951.953125 0)"/>
     <use xlink:href="#DejaVuSans-Bold-2d" transform="translate(2001.269531 0)"/>
     <use xlink:href="#DejaVuSans-Bold-68" transform="translate(2042.773438 0)"/>
     <use xlink:href="#DejaVuSans-Bold-65" transform="translate(2113.964844 0)"/>
     <use xlink:href="#DejaVuSans-Bold-61" transform="translate(2181.787109 0)"/>
     <use xlink:href="#DejaVuSans-Bold-64" transform="translate(2249.267578 0)"/>
     <use xlink:href="#DejaVuSans-Bold-20" transform="translate(2320.849609 0)"/>
     <use xlink:href="#DejaVuSans-Bold-6d" transform="translate(2355.664062 0)"/>
     <use xlink:href="#DejaVuSans-Bold-65" transform="translate(2459.863281 0)"/>
     <use xlink:href="#DejaVuSans-Bold-74" transform="translate(2527.685547 0)"/>
     <use xlink:href="#DejaVuSans-Bold-65" transform="translate(2575.488281 0)"/>
     <use xlink:href="#DejaVuSans-Bold-72" transform="translate(2643.310547 0)"/>
     <use xlink:href="#DejaVuSans-Bold-69" transform="translate(2692.626953 0)"/>
     <use xlink:href="#DejaVuSans-Bold-6e" transform="translate(2726.904297 0)"/>
     <use xlink:href="#DejaVuSans-Bold-67" transform="translate(2798.095703 0)"/>
    </g>
   </g>
  </g>
  <g id="axes_2">
   <g id="patch_5">
    <path d="M 545.611441 225.727356 
L 615.109816 225.727356 
L 615.109816 141.985817 
L 545.611441 141.985817 
z
" clip-path="url(#p2a44ae98ae)" style="fill: #fdba8c; stroke: #ffffff; stroke-width: 3; stroke-linejoin: miter"/>
   </g>
   <g id="patch_6">
    <path d="M 615.109816 225.727356 
L 754.106564 225.727356 
L 754.106564 141.985817 
L 615.109816 141.985817 
z
" clip-path="url(#p2a44ae98ae)" style="fill: #fb7c5c; stroke: #ffffff; stroke-width: 3; stroke-linejoin: miter"/>
   </g>
   <g id="patch_7">
    <path d="M 754.106564 225.727356 
L 954.261883 225.727356 
L 954.261883 141.985817 
L 754.106564 141.985817 
z
" clip-path="url(#p2a44ae98ae)" style="fill: #e64a28; stroke: #ffffff; stroke-width: 3; stroke-linejoin: miter"/>
   </g>
   <g id="patch_8">
    <path d="M 553.94791 340.174125 
L 563.118026 340.174125 
L 563.118026 316.846125 
L 553.94791 316.846125 
z
" style="fill: #fdba8c"/>
   </g>
   <g id="patch_9">
    <path d="M 691.499649 340.174125 
L 700.669765 340.174125 
L 700.669765 316.846125 
L 691.499649 316.846125 
z
" style="fill: #fb7c5c"/>
   </g>
   <g id="patch_10">
    <path d="M 829.051388 340.174125 
L 838.221503 340.174125 
L 838.221503 316.846125 
L 829.051388 316.846125 
z
" style="fill: #e64a28"/>
   </g>
   <g id="text_11">
    <!-- $75K -->
    <g style="fill: #1a1a1a" transform="translate(564.618597 180.733102) scale(0.11 -0.11)">
     <defs>
      <path id="DejaVuSans-Bold-37" d="M 428 4666 
L 3944 4666 
L 3944 3988 
L 2125 0 
L 953 0 
L 2675 3781 
L 428 3781 
L 428 4666 
z
" transform="scale(0.015625)"/>
      <path id="DejaVuSans-Bold-4b" d="M 588 4666 
L 1791 4666 
L 1791 2963 
L 3525 4666 
L 4922 4666 
L 2675 2456 
L 5153 0 
L 3647 0 
L 1791 1838 
L 1791 0 
L 588 0 
L 588 4666 
z
" transform="scale(0.015625)"/>
     </defs>
     <use xlink:href="#DejaVuSans-Bold-24"/>
     <use xlink:href="#DejaVuSans-Bold-37" transform="translate(69.580078 0)"/>
     <use xlink:href="#DejaVuSans-Bold-35" transform="translate(139.160156 0)"/>
     <use xlink:href="#DejaVuSans-Bold-4b" transform="translate(208.740234 0)"/>
    </g>
    <!-- 30 events -->
    <g style="fill: #1a1a1a" transform="translate(549.928441 193.050696) scale(0.11 -0.11)">
     <defs>
      <path id="DejaVuSans-Bold-33" d="M 2981 2516 
Q 3453 2394 3698 2092 
Q 3944 1791 3944 1325 
Q 3944 631 3412 270 
Q 2881 -91 1863 -91 
Q 1503 -91 1142 -33 
Q 781 25 428 141 
L 428 1069 
Q 766 900 1098 814 
Q 1431 728 1753 728 
Q 2231 728 2486 893 
Q 2741 1059 2741 1369 
Q 2741 1688 2480 1852 
Q 2219 2016 1709 2016 
L 1228 2016 
L 1228 2791 
L 1734 2791 
Q 2188 2791 2409 2933 
Q 2631 3075 2631 3366 
Q 2631 3634 2415 3781 
Q 2200 3928 1806 3928 
Q 1516 3928 1219 3862 
Q 922 3797 628 3669 
L 628 4550 
Q 984 4650 1334 4700 
Q 1684 4750 2022 4750 
Q 2931 4750 3382 4451 
Q 3834 4153 3834 3553 
Q 3834 3144 3618 2883 
Q 3403 2622 2981 2516 
z
" transform="scale(0.015625)"/>
     </defs>
     <use xlink:href="#DejaVuSans-Bold-33"/>
     <use xlink:href="#DejaVuSans-Bold-30" transform="translate(69.580078 0)"/>
     <use xlink:href="#DejaVuSans-Bold-20" transform="translate(139.160156 0)"/>
     <use xlink:href="#DejaVuSans-Bold-65" transform="translate(173.974609 0)"/>
     <use xlink:href="#DejaVuSans-Bold-76" transform="translate(241.796875 0)"/>
     <use xlink:href="#DejaVuSans-Bold-65" transform="translate(306.982422 0)"/>
     <use xlink:href="#DejaVuSans-Bold-6e" transform="translate(374.804688 0)"/>
     <use xlink:href="#DejaVuSans-Bold-74" transform="translate(445.996094 0)"/>
     <use xlink:href="#DejaVuSans-Bold-73" transform="translate(493.798828 0)"/>
    </g>
   </g>
   <g id="text_12">
    <!-- $150K -->
    <g style="fill: #ffffff" transform="translate(665.039362 180.733102) scale(0.11 -0.11)">
     <use xlink:href="#DejaVuSans-Bold-24"/>
     <use xlink:href="#DejaVuSans-Bold-31" transform="translate(69.580078 0)"/>
     <use xlink:href="#DejaVuSans-Bold-35" transform="translate(139.160156 0)"/>
     <use xlink:href="#DejaVuSans-Bold-30" transform="translate(208.740234 0)"/>
     <use xlink:href="#DejaVuSans-Bold-4b" transform="translate(278.320312 0)"/>
    </g>
    <!-- 25 events -->
    <g style="fill: #ffffff" transform="translate(654.176003 193.050696) scale(0.11 -0.11)">
     <use xlink:href="#DejaVuSans-Bold-32"/>
     <use xlink:href="#DejaVuSans-Bold-35" transform="translate(69.580078 0)"/>
     <use xlink:href="#DejaVuSans-Bold-20" transform="translate(139.160156 0)"/>
     <use xlink:href="#DejaVuSans-Bold-65" transform="translate(173.974609 0)"/>
     <use xlink:href="#DejaVuSans-Bold-76" transform="translate(241.796875 0)"/>
     <use xlink:href="#DejaVuSans-Bold-65" transform="translate(306.982422 0)"/>
     <use xlink:href="#DejaVuSans-Bold-6e" transform="translate(374.804688 0)"/>
     <use xlink:href="#DejaVuSans-Bold-74" transform="translate(445.996094 0)"/>
     <use xlink:href="#DejaVuSans-Bold-73" transform="translate(493.798828 0)"/>
    </g>
   </g>
   <g id="text_13">
    <!-- $216K -->
    <g style="fill: #ffffff" transform="translate(834.615396 180.733102) scale(0.11 -0.11)">
     <use xlink:href="#DejaVuSans-Bold-24"/>
     <use xlink:href="#DejaVuSans-Bold-32" transform="translate(69.580078 0)"/>
     <use xlink:href="#DejaVuSans-Bold-31" transform="translate(139.160156 0)"/>
     <use xlink:href="#DejaVuSans-Bold-36" transform="translate(208.740234 0)"/>
     <use xlink:href="#DejaVuSans-Bold-4b" transform="translate(278.320312 0)"/>
    </g>
    <!-- 18 events -->
    <g style="fill: #ffffff" transform="translate(823.752036 193.050696) scale(0.11 -0.11)">
     <defs>
      <path id="DejaVuSans-Bold-38" d="M 2228 2088 
Q 1891 2088 1709 1903 
Q 1528 1719 1528 1375 
Q 1528 1031 1709 848 
Q 1891 666 2228 666 
Q 2563 666 2741 848 
Q 2919 1031 2919 1375 
Q 2919 1722 2741 1905 
Q 2563 2088 2228 2088 
z
M 1350 2484 
Q 925 2613 709 2878 
Q 494 3144 494 3541 
Q 494 4131 934 4440 
Q 1375 4750 2228 4750 
Q 3075 4750 3515 4442 
Q 3956 4134 3956 3541 
Q 3956 3144 3739 2878 
Q 3522 2613 3097 2484 
Q 3572 2353 3814 2058 
Q 4056 1763 4056 1313 
Q 4056 619 3595 264 
Q 3134 -91 2228 -91 
Q 1319 -91 855 264 
Q 391 619 391 1313 
Q 391 1763 633 2058 
Q 875 2353 1350 2484 
z
M 1631 3419 
Q 1631 3141 1786 2991 
Q 1941 2841 2228 2841 
Q 2509 2841 2662 2991 
Q 2816 3141 2816 3419 
Q 2816 3697 2662 3845 
Q 2509 3994 2228 3994 
Q 1941 3994 1786 3844 
Q 1631 3694 1631 3419 
z
" transform="scale(0.015625)"/>
     </defs>
     <use xlink:href="#DejaVuSans-Bold-31"/>
     <use xlink:href="#DejaVuSans-Bold-38" transform="translate(69.580078 0)"/>
     <use xlink:href="#DejaVuSans-Bold-20" transform="translate(139.160156 0)"/>
     <use xlink:href="#DejaVuSans-Bold-65" transform="translate(173.974609 0)"/>
     <use xlink:href="#DejaVuSans-Bold-76" transform="translate(241.796875 0)"/>
     <use xlink:href="#DejaVuSans-Bold-65" transform="translate(306.982422 0)"/>
     <use xlink:href="#DejaVuSans-Bold-6e" transform="translate(374.804688 0)"/>
     <use xlink:href="#DejaVuSans-Bold-74" transform="translate(445.996094 0)"/>
     <use xlink:href="#DejaVuSans-Bold-73" transform="translate(493.798828 0)"/>
    </g>
   </g>
   <g id="text_14">
    <!-- $441K   (≈ $450K SOM target) -->
    <g style="fill: #1a1a1a" transform="translate(732.739852 94.13351) scale(0.13 -0.13)">
     <defs>
      <path id="DejaVuSans-Bold-34" d="M 2356 3675 
L 1038 1722 
L 2356 1722 
L 2356 3675 
z
M 2156 4666 
L 3494 4666 
L 3494 1722 
L 4159 1722 
L 4159 850 
L 3494 850 
L 3494 0 
L 2356 0 
L 2356 850 
L 288 850 
L 288 1881 
L 2156 4666 
z
" transform="scale(0.015625)"/>
      <path id="DejaVuSans-Bold-28" d="M 2413 -844 
L 1484 -844 
Q 1006 -72 778 623 
Q 550 1319 550 2003 
Q 550 2688 779 3389 
Q 1009 4091 1484 4856 
L 2413 4856 
Q 2013 4116 1813 3408 
Q 1613 2700 1613 2009 
Q 1613 1319 1811 609 
Q 2009 -100 2413 -844 
z
" transform="scale(0.015625)"/>
      <path id="DejaVuSans-Bold-2248" d="M 4684 3309 
L 4684 2547 
Q 4353 2297 4073 2189 
Q 3794 2081 3494 2081 
Q 3159 2081 2713 2263 
Q 2669 2281 2644 2291 
Q 2622 2300 2575 2319 
Q 2091 2509 1797 2509 
Q 1522 2509 1253 2389 
Q 984 2269 678 2009 
L 678 2772 
Q 1006 3016 1286 3123 
Q 1566 3231 1869 3231 
Q 2213 3231 2672 3047 
Q 2703 3034 2719 3028 
Q 2744 3019 2788 3000 
Q 3272 2809 3566 2809 
Q 3834 2809 4098 2926 
Q 4363 3044 4684 3309 
z
M 4684 2003 
L 4684 1241 
Q 4353 991 4073 883 
Q 3794 775 3494 775 
Q 3159 775 2713 956 
Q 2669 975 2641 988 
Q 2622 994 2575 1013 
Q 2091 1203 1797 1203 
Q 1522 1203 1253 1084 
Q 984 966 678 703 
L 678 1466 
Q 1013 1716 1291 1823 
Q 1569 1931 1869 1931 
Q 2203 1931 2650 1750 
Q 2697 1731 2719 1722 
Q 2744 1713 2788 1697 
Q 3272 1503 3566 1503 
Q 3834 1503 4098 1620 
Q 4363 1738 4684 2003 
z
" transform="scale(0.015625)"/>
      <path id="DejaVuSans-Bold-4f" d="M 2719 3878 
Q 2169 3878 1866 3472 
Q 1563 3066 1563 2328 
Q 1563 1594 1866 1187 
Q 2169 781 2719 781 
Q 3272 781 3575 1187 
Q 3878 1594 3878 2328 
Q 3878 3066 3575 3472 
Q 3272 3878 2719 3878 
z
M 2719 4750 
Q 3844 4750 4481 4106 
Q 5119 3463 5119 2328 
Q 5119 1197 4481 553 
Q 3844 -91 2719 -91 
Q 1597 -91 958 553 
Q 319 1197 319 2328 
Q 319 3463 958 4106 
Q 1597 4750 2719 4750 
z
" transform="scale(0.015625)"/>
      <path id="DejaVuSans-Bold-4d" d="M 588 4666 
L 2119 4666 
L 3181 2169 
L 4250 4666 
L 5778 4666 
L 5778 0 
L 4641 0 
L 4641 3413 
L 3566 897 
L 2803 897 
L 1728 3413 
L 1728 0 
L 588 0 
L 588 4666 
z
" transform="scale(0.015625)"/>
      <path id="DejaVuSans-Bold-29" d="M 513 -844 
Q 913 -100 1113 609 
Q 1313 1319 1313 2009 
Q 1313 2700 1113 3408 
Q 913 4116 513 4856 
L 1441 4856 
Q 1916 4091 2145 3389 
Q 2375 2688 2375 2003 
Q 2375 1319 2147 623 
Q 1919 -72 1441 -844 
L 513 -844 
z
" transform="scale(0.015625)"/>
     </defs>
     <use xlink:href="#DejaVuSans-Bold-24"/>
     <use xlink:href="#DejaVuSans-Bold-34" transform="translate(69.580078 0)"/>
     <use xlink:href="#DejaVuSans-Bold-34" transform="translate(139.160156 0)"/>
     <use xlink:href="#DejaVuSans-Bold-31" transform="translate(208.740234 0)"/>
     <use xlink:href="#DejaVuSans-Bold-4b" transform="translate(278.320312 0)"/>
     <use xlink:href="#DejaVuSans-Bold-20" transform="translate(355.810547 0)"/>
     <use xlink:href="#DejaVuSans-Bold-20" transform="translate(390.625 0)"/>
     <use xlink:href="#DejaVuSans-Bold-20" transform="translate(425.439453 0)"/>
     <use xlink:href="#DejaVuSans-Bold-28" transform="translate(460.253906 0)"/>
     <use xlink:href="#DejaVuSans-Bold-2248" transform="translate(505.957031 0)"/>
     <use xlink:href="#DejaVuSans-Bold-20" transform="translate(589.746094 0)"/>
     <use xlink:href="#DejaVuSans-Bold-24" transform="translate(624.560547 0)"/>
     <use xlink:href="#DejaVuSans-Bold-34" transform="translate(694.140625 0)"/>
     <use xlink:href="#DejaVuSans-Bold-35" transform="translate(763.720703 0)"/>
     <use xlink:href="#DejaVuSans-Bold-30" transform="translate(833.300781 0)"/>
     <use xlink:href="#DejaVuSans-Bold-4b" transform="translate(902.880859 0)"/>
     <use xlink:href="#DejaVuSans-Bold-20" transform="translate(980.371094 0)"/>
     <use xlink:href="#DejaVuSans-Bold-53" transform="translate(1015.185547 0)"/>
     <use xlink:href="#DejaVuSans-Bold-4f" transform="translate(1087.207031 0)"/>
     <use xlink:href="#DejaVuSans-Bold-4d" transform="translate(1172.216797 0)"/>
     <use xlink:href="#DejaVuSans-Bold-20" transform="translate(1271.728516 0)"/>
     <use xlink:href="#DejaVuSans-Bold-74" transform="translate(1306.542969 0)"/>
     <use xlink:href="#DejaVuSans-Bold-61" transform="translate(1354.345703 0)"/>
     <use xlink:href="#DejaVuSans-Bold-72" transform="translate(1421.826172 0)"/>
     <use xlink:href="#DejaVuSans-Bold-67" transform="translate(1471.142578 0)"/>
     <use xlink:href="#DejaVuSans-Bold-65" transform="translate(1542.724609 0)"/>
     <use xlink:href="#DejaVuSans-Bold-74" transform="translate(1610.546875 0)"/>
     <use xlink:href="#DejaVuSans-Bold-29" transform="translate(1658.349609 0)"/>
    </g>
   </g>
   <g id="text_15">
    <!-- Year-1 ARR build -->
    <g style="fill: #6b6b6b" transform="translate(545.611441 94.13351) scale(0.1 -0.1)">
     <defs>
      <path id="DejaVuSans-Oblique-59" d="M 403 4666 
L 1081 4666 
L 1953 2747 
L 3616 4666 
L 4325 4666 
L 2209 2222 
L 1778 0 
L 1147 0 
L 1575 2222 
L 403 4666 
z
" transform="scale(0.015625)"/>
      <path id="DejaVuSans-Oblique-65" d="M 3078 2063 
Q 3088 2113 3092 2166 
Q 3097 2219 3097 2272 
Q 3097 2653 2873 2875 
Q 2650 3097 2266 3097 
Q 1838 3097 1509 2826 
Q 1181 2556 1013 2059 
L 3078 2063 
z
M 3578 1613 
L 903 1613 
Q 884 1494 878 1425 
Q 872 1356 872 1306 
Q 872 872 1139 634 
Q 1406 397 1894 397 
Q 2269 397 2603 481 
Q 2938 566 3225 728 
L 3116 159 
Q 2806 34 2476 -28 
Q 2147 -91 1806 -91 
Q 1078 -91 686 257 
Q 294 606 294 1247 
Q 294 1794 489 2264 
Q 684 2734 1063 3103 
Q 1306 3334 1642 3459 
Q 1978 3584 2356 3584 
Q 2950 3584 3301 3228 
Q 3653 2872 3653 2272 
Q 3653 2128 3634 1964 
Q 3616 1800 3578 1613 
z
" transform="scale(0.015625)"/>
      <path id="DejaVuSans-Oblique-61" d="M 3438 1997 
L 3047 0 
L 2472 0 
L 2578 531 
Q 2325 219 2001 64 
Q 1678 -91 1281 -91 
Q 834 -91 548 182 
Q 263 456 263 884 
Q 263 1497 752 1853 
Q 1241 2209 2100 2209 
L 2900 2209 
L 2931 2363 
Q 2938 2388 2941 2417 
Q 2944 2447 2944 2509 
Q 2944 2788 2717 2942 
Q 2491 3097 2081 3097 
Q 1800 3097 1504 3025 
Q 1209 2953 897 2809 
L 997 3341 
Q 1322 3463 1633 3523 
Q 1944 3584 2234 3584 
Q 2853 3584 3176 3315 
Q 3500 3047 3500 2534 
Q 3500 2431 3484 2292 
Q 3469 2153 3438 1997 
z
M 2816 1759 
L 2241 1759 
Q 1534 1759 1195 1570 
Q 856 1381 856 984 
Q 856 709 1029 553 
Q 1203 397 1509 397 
Q 1978 397 2328 733 
Q 2678 1069 2791 1631 
L 2816 1759 
z
" transform="scale(0.015625)"/>
      <path id="DejaVuSans-Oblique-72" d="M 2853 2969 
Q 2766 3016 2653 3041 
Q 2541 3066 2413 3066 
Q 1953 3066 1609 2717 
Q 1266 2369 1153 1784 
L 800 0 
L 225 0 
L 909 3500 
L 1484 3500 
L 1375 2956 
Q 1603 3259 1920 3421 
Q 2238 3584 2597 3584 
Q 2691 3584 2781 3573 
Q 2872 3563 2963 3538 
L 2853 2969 
z
" transform="scale(0.015625)"/>
      <path id="DejaVuSans-Oblique-2d" d="M 391 2009 
L 2075 2009 
L 1978 1497 
L 288 1497 
L 391 2009 
z
" transform="scale(0.015625)"/>
      <path id="DejaVuSans-Oblique-31" d="M 416 531 
L 1447 531 
L 2144 4122 
L 978 3897 
L 1088 4441 
L 2247 4666 
L 2881 4666 
L 2075 531 
L 3103 531 
L 3003 0 
L 313 0 
L 416 531 
z
" transform="scale(0.015625)"/>
      <path id="DejaVuSans-Oblique-20" transform="scale(0.015625)"/>
      <path id="DejaVuSans-Oblique-41" d="M 2356 4666 
L 3072 4666 
L 3938 0 
L 3278 0 
L 3084 1197 
L 984 1197 
L 325 0 
L -341 0 
L 2356 4666 
z
M 2584 4044 
L 1275 1722 
L 2988 1722 
L 2584 4044 
z
" transform="scale(0.015625)"/>
      <path id="DejaVuSans-Oblique-52" d="M 1613 4147 
L 1294 2491 
L 2106 2491 
Q 2584 2491 2879 2755 
Q 3175 3019 3175 3444 
Q 3175 3784 2976 3965 
Q 2778 4147 2406 4147 
L 1613 4147 
z
M 2772 2241 
Q 2972 2194 3105 2009 
Q 3238 1825 3413 1275 
L 3809 0 
L 3144 0 
L 2778 1197 
Q 2638 1659 2453 1815 
Q 2269 1972 1888 1972 
L 1191 1972 
L 806 0 
L 172 0 
L 1081 4666 
L 2503 4666 
Q 3150 4666 3495 4373 
Q 3841 4081 3841 3531 
Q 3841 3044 3547 2687 
Q 3253 2331 2772 2241 
z
" transform="scale(0.015625)"/>
      <path id="DejaVuSans-Oblique-62" d="M 3169 2138 
Q 3169 2591 2961 2847 
Q 2753 3103 2388 3103 
Q 2122 3103 1889 2973 
Q 1656 2844 1484 2597 
Q 1303 2338 1198 1995 
Q 1094 1653 1094 1313 
Q 1094 881 1298 636 
Q 1503 391 1863 391 
Q 2134 391 2365 517 
Q 2597 644 2772 891 
Q 2950 1147 3059 1487 
Q 3169 1828 3169 2138 
z
M 1381 2969 
Q 1594 3256 1914 3420 
Q 2234 3584 2584 3584 
Q 3122 3584 3439 3221 
Q 3756 2859 3756 2241 
Q 3756 1734 3570 1259 
Q 3384 784 3041 416 
Q 2816 172 2522 40 
Q 2228 -91 1906 -91 
Q 1566 -91 1316 65 
Q 1066 222 909 531 
L 806 0 
L 231 0 
L 1178 4863 
L 1753 4863 
L 1381 2969 
z
" transform="scale(0.015625)"/>
      <path id="DejaVuSans-Oblique-75" d="M 428 1388 
L 838 3500 
L 1416 3500 
L 1006 1409 
Q 975 1256 961 1147 
Q 947 1038 947 966 
Q 947 700 1109 554 
Q 1272 409 1569 409 
Q 2031 409 2368 721 
Q 2706 1034 2809 1563 
L 3194 3500 
L 3769 3500 
L 3091 0 
L 2516 0 
L 2631 550 
Q 2388 244 2052 76 
Q 1716 -91 1338 -91 
Q 878 -91 622 161 
Q 366 413 366 863 
Q 366 956 381 1097 
Q 397 1238 428 1388 
z
" transform="scale(0.015625)"/>
      <path id="DejaVuSans-Oblique-69" d="M 1172 4863 
L 1747 4863 
L 1606 4134 
L 1031 4134 
L 1172 4863 
z
M 909 3500 
L 1484 3500 
L 800 0 
L 225 0 
L 909 3500 
z
" transform="scale(0.015625)"/>
      <path id="DejaVuSans-Oblique-6c" d="M 1172 4863 
L 1747 4863 
L 800 0 
L 225 0 
L 1172 4863 
z
" transform="scale(0.015625)"/>
      <path id="DejaVuSans-Oblique-64" d="M 2675 525 
Q 2444 222 2128 65 
Q 1813 -91 1428 -91 
Q 903 -91 598 267 
Q 294 625 294 1247 
Q 294 1766 478 2236 
Q 663 2706 1013 3078 
Q 1244 3325 1534 3454 
Q 1825 3584 2144 3584 
Q 2481 3584 2739 3421 
Q 2997 3259 3138 2956 
L 3513 4863 
L 4091 4863 
L 3144 0 
L 2566 0 
L 2675 525 
z
M 891 1350 
Q 891 897 1095 644 
Q 1300 391 1663 391 
Q 1931 391 2161 520 
Q 2391 650 2566 903 
Q 2750 1166 2856 1509 
Q 2963 1853 2963 2188 
Q 2963 2622 2758 2865 
Q 2553 3109 2194 3109 
Q 1922 3109 1687 2981 
Q 1453 2853 1288 2613 
Q 1106 2353 998 2009 
Q 891 1666 891 1350 
z
" transform="scale(0.015625)"/>
     </defs>
     <use xlink:href="#DejaVuSans-Oblique-59"/>
     <use xlink:href="#DejaVuSans-Oblique-65" transform="translate(50.083984 0)"/>
     <use xlink:href="#DejaVuSans-Oblique-61" transform="translate(111.607422 0)"/>
     <use xlink:href="#DejaVuSans-Oblique-72" transform="translate(172.886719 0)"/>
     <use xlink:href="#DejaVuSans-Oblique-2d" transform="translate(208.5 0)"/>
     <use xlink:href="#DejaVuSans-Oblique-31" transform="translate(244.583984 0)"/>
     <use xlink:href="#DejaVuSans-Oblique-20" transform="translate(308.207031 0)"/>
     <use xlink:href="#DejaVuSans-Oblique-41" transform="translate(339.994141 0)"/>
     <use xlink:href="#DejaVuSans-Oblique-52" transform="translate(408.402344 0)"/>
     <use xlink:href="#DejaVuSans-Oblique-52" transform="translate(477.884766 0)"/>
     <use xlink:href="#DejaVuSans-Oblique-20" transform="translate(547.367188 0)"/>
     <use xlink:href="#DejaVuSans-Oblique-62" transform="translate(579.154297 0)"/>
     <use xlink:href="#DejaVuSans-Oblique-75" transform="translate(642.630859 0)"/>
     <use xlink:href="#DejaVuSans-Oblique-69" transform="translate(706.009766 0)"/>
     <use xlink:href="#DejaVuSans-Oblique-6c" transform="translate(733.792969 0)"/>
     <use xlink:href="#DejaVuSans-Oblique-64" transform="translate(761.576172 0)"/>
    </g>
   </g>
   <g id="text_16">
    <!-- Boutique -->
    <g style="fill: #1a1a1a" transform="translate(566.452614 331.2695) scale(0.1 -0.1)">
     <defs>
      <path id="DejaVuSans-42" d="M 1259 2228 
L 1259 519 
L 2272 519 
Q 2781 519 3026 730 
Q 3272 941 3272 1375 
Q 3272 1813 3026 2020 
Q 2781 2228 2272 2228 
L 1259 2228 
z
M 1259 4147 
L 1259 2741 
L 2194 2741 
Q 2656 2741 2882 2914 
Q 3109 3088 3109 3444 
Q 3109 3797 2882 3972 
Q 2656 4147 2194 4147 
L 1259 4147 
z
M 628 4666 
L 2241 4666 
Q 2963 4666 3353 4366 
Q 3744 4066 3744 3513 
Q 3744 3084 3544 2831 
Q 3344 2578 2956 2516 
Q 3422 2416 3680 2098 
Q 3938 1781 3938 1306 
Q 3938 681 3513 340 
Q 3088 0 2303 0 
L 628 0 
L 628 4666 
z
" transform="scale(0.015625)"/>
      <path id="DejaVuSans-75" d="M 544 1381 
L 544 3500 
L 1119 3500 
L 1119 1403 
Q 1119 906 1312 657 
Q 1506 409 1894 409 
Q 2359 409 2629 706 
Q 2900 1003 2900 1516 
L 2900 3500 
L 3475 3500 
L 3475 0 
L 2900 0 
L 2900 538 
Q 2691 219 2414 64 
Q 2138 -91 1772 -91 
Q 1169 -91 856 284 
Q 544 659 544 1381 
z
M 1991 3584 
L 1991 3584 
z
" transform="scale(0.015625)"/>
      <path id="DejaVuSans-71" d="M 947 1747 
Q 947 1113 1208 752 
Q 1469 391 1925 391 
Q 2381 391 2643 752 
Q 2906 1113 2906 1747 
Q 2906 2381 2643 2742 
Q 2381 3103 1925 3103 
Q 1469 3103 1208 2742 
Q 947 2381 947 1747 
z
M 2906 525 
Q 2725 213 2448 61 
Q 2172 -91 1784 -91 
Q 1150 -91 751 415 
Q 353 922 353 1747 
Q 353 2572 751 3078 
Q 1150 3584 1784 3584 
Q 2172 3584 2448 3432 
Q 2725 3281 2906 2969 
L 2906 3500 
L 3481 3500 
L 3481 -1331 
L 2906 -1331 
L 2906 525 
z
" transform="scale(0.015625)"/>
     </defs>
     <use xlink:href="#DejaVuSans-42"/>
     <use xlink:href="#DejaVuSans-6f" transform="translate(68.603516 0)"/>
     <use xlink:href="#DejaVuSans-75" transform="translate(129.785156 0)"/>
     <use xlink:href="#DejaVuSans-74" transform="translate(193.164062 0)"/>
     <use xlink:href="#DejaVuSans-69" transform="translate(232.373047 0)"/>
     <use xlink:href="#DejaVuSans-71" transform="translate(260.15625 0)"/>
     <use xlink:href="#DejaVuSans-75" transform="translate(323.632812 0)"/>
     <use xlink:href="#DejaVuSans-65" transform="translate(387.011719 0)"/>
    </g>
   </g>
   <g id="text_17">
    <!-- Premium Summit -->
    <g style="fill: #1a1a1a" transform="translate(704.004352 331.2695) scale(0.1 -0.1)">
     <defs>
      <path id="DejaVuSans-50" d="M 1259 4147 
L 1259 2394 
L 2053 2394 
Q 2494 2394 2734 2622 
Q 2975 2850 2975 3272 
Q 2975 3691 2734 3919 
Q 2494 4147 2053 4147 
L 1259 4147 
z
M 628 4666 
L 2053 4666 
Q 2838 4666 3239 4311 
Q 3641 3956 3641 3272 
Q 3641 2581 3239 2228 
Q 2838 1875 2053 1875 
L 1259 1875 
L 1259 0 
L 628 0 
L 628 4666 
z
" transform="scale(0.015625)"/>
     </defs>
     <use xlink:href="#DejaVuSans-50"/>
     <use xlink:href="#DejaVuSans-72" transform="translate(58.552734 0)"/>
     <use xlink:href="#DejaVuSans-65" transform="translate(97.416016 0)"/>
     <use xlink:href="#DejaVuSans-6d" transform="translate(158.939453 0)"/>
     <use xlink:href="#DejaVuSans-69" transform="translate(256.351562 0)"/>
     <use xlink:href="#DejaVuSans-75" transform="translate(284.134766 0)"/>
     <use xlink:href="#DejaVuSans-6d" transform="translate(347.513672 0)"/>
     <use xlink:href="#DejaVuSans-20" transform="translate(444.925781 0)"/>
     <use xlink:href="#DejaVuSans-53" transform="translate(476.712891 0)"/>
     <use xlink:href="#DejaVuSans-75" transform="translate(540.189453 0)"/>
     <use xlink:href="#DejaVuSans-6d" transform="translate(603.568359 0)"/>
     <use xlink:href="#DejaVuSans-6d" transform="translate(700.980469 0)"/>
     <use xlink:href="#DejaVuSans-69" transform="translate(798.392578 0)"/>
     <use xlink:href="#DejaVuSans-74" transform="translate(826.175781 0)"/>
    </g>
   </g>
   <g id="text_18">
    <!-- Enterprise · Gala -->
    <g style="fill: #1a1a1a" transform="translate(841.556091 331.2695) scale(0.1 -0.1)">
     <defs>
      <path id="DejaVuSans-45" d="M 628 4666 
L 3578 4666 
L 3578 4134 
L 1259 4134 
L 1259 2753 
L 3481 2753 
L 3481 2222 
L 1259 2222 
L 1259 531 
L 3634 531 
L 3634 0 
L 628 0 
L 628 4666 
z
" transform="scale(0.015625)"/>
      <path id="DejaVuSans-70" d="M 1159 525 
L 1159 -1331 
L 581 -1331 
L 581 3500 
L 1159 3500 
L 1159 2969 
Q 1341 3281 1617 3432 
Q 1894 3584 2278 3584 
Q 2916 3584 3314 3078 
Q 3713 2572 3713 1747 
Q 3713 922 3314 415 
Q 2916 -91 2278 -91 
Q 1894 -91 1617 61 
Q 1341 213 1159 525 
z
M 3116 1747 
Q 3116 2381 2855 2742 
Q 2594 3103 2138 3103 
Q 1681 3103 1420 2742 
Q 1159 2381 1159 1747 
Q 1159 1113 1420 752 
Q 1681 391 2138 391 
Q 2594 391 2855 752 
Q 3116 1113 3116 1747 
z
" transform="scale(0.015625)"/>
      <path id="DejaVuSans-47" d="M 3809 666 
L 3809 1919 
L 2778 1919 
L 2778 2438 
L 4434 2438 
L 4434 434 
Q 4069 175 3628 42 
Q 3188 -91 2688 -91 
Q 1594 -91 976 548 
Q 359 1188 359 2328 
Q 359 3472 976 4111 
Q 1594 4750 2688 4750 
Q 3144 4750 3555 4637 
Q 3966 4525 4313 4306 
L 4313 3634 
Q 3963 3931 3569 4081 
Q 3175 4231 2741 4231 
Q 1884 4231 1454 3753 
Q 1025 3275 1025 2328 
Q 1025 1384 1454 906 
Q 1884 428 2741 428 
Q 3075 428 3337 486 
Q 3600 544 3809 666 
z
" transform="scale(0.015625)"/>
     </defs>
     <use xlink:href="#DejaVuSans-45"/>
     <use xlink:href="#DejaVuSans-6e" transform="translate(63.183594 0)"/>
     <use xlink:href="#DejaVuSans-74" transform="translate(126.5625 0)"/>
     <use xlink:href="#DejaVuSans-65" transform="translate(165.771484 0)"/>
     <use xlink:href="#DejaVuSans-72" transform="translate(227.294922 0)"/>
     <use xlink:href="#DejaVuSans-70" transform="translate(268.408203 0)"/>
     <use xlink:href="#DejaVuSans-72" transform="translate(331.884766 0)"/>
     <use xlink:href="#DejaVuSans-69" transform="translate(372.998047 0)"/>
     <use xlink:href="#DejaVuSans-73" transform="translate(400.78125 0)"/>
     <use xlink:href="#DejaVuSans-65" transform="translate(452.880859 0)"/>
     <use xlink:href="#DejaVuSans-20" transform="translate(514.404297 0)"/>
     <use xlink:href="#DejaVuSans-b7" transform="translate(546.191406 0)"/>
     <use xlink:href="#DejaVuSans-20" transform="translate(577.978516 0)"/>
     <use xlink:href="#DejaVuSans-47" transform="translate(609.765625 0)"/>
     <use xlink:href="#DejaVuSans-61" transform="translate(687.255859 0)"/>
     <use xlink:href="#DejaVuSans-6c" transform="translate(748.535156 0)"/>
     <use xlink:href="#DejaVuSans-61" transform="translate(776.318359 0)"/>
    </g>
   </g>
   <g id="text_19">
    <!-- How the mix compounds  ·  73 events / yr → ARR -->
    <g style="fill: #1a1a1a" transform="translate(545.611441 16.318125) scale(0.12 -0.12)">
     <defs>
      <path id="DejaVuSans-Bold-48" d="M 588 4666 
L 1791 4666 
L 1791 2888 
L 3566 2888 
L 3566 4666 
L 4769 4666 
L 4769 0 
L 3566 0 
L 3566 1978 
L 1791 1978 
L 1791 0 
L 588 0 
L 588 4666 
z
" transform="scale(0.015625)"/>
      <path id="DejaVuSans-Bold-77" d="M 225 3500 
L 1313 3500 
L 1900 1088 
L 2491 3500 
L 3425 3500 
L 4013 1113 
L 4603 3500 
L 5691 3500 
L 4769 0 
L 3547 0 
L 2956 2406 
L 2369 0 
L 1147 0 
L 225 3500 
z
" transform="scale(0.015625)"/>
      <path id="DejaVuSans-Bold-78" d="M 1422 1791 
L 159 3500 
L 1344 3500 
L 2059 2463 
L 2784 3500 
L 3969 3500 
L 2706 1797 
L 4031 0 
L 2847 0 
L 2059 1106 
L 1281 0 
L 97 0 
L 1422 1791 
z
" transform="scale(0.015625)"/>
      <path id="DejaVuSans-Bold-2f" d="M 1644 4666 
L 2338 4666 
L 691 -594 
L 0 -594 
L 1644 4666 
z
" transform="scale(0.015625)"/>
      <path id="DejaVuSans-Bold-79" d="M 78 3500 
L 1197 3500 
L 2138 1125 
L 2938 3500 
L 4056 3500 
L 2584 -331 
Q 2363 -916 2067 -1148 
Q 1772 -1381 1288 -1381 
L 641 -1381 
L 641 -647 
L 991 -647 
Q 1275 -647 1404 -556 
Q 1534 -466 1606 -231 
L 1638 -134 
L 78 3500 
z
" transform="scale(0.015625)"/>
      <path id="DejaVuSans-Bold-2192" d="M 5050 2225 
L 5050 1788 
L 3822 559 
L 3369 1013 
L 3988 1631 
L 366 1631 
L 366 2381 
L 3988 2381 
L 3369 3000 
L 3822 3453 
L 5050 2225 
z
" transform="scale(0.015625)"/>
      <path id="DejaVuSans-Bold-41" d="M 3419 850 
L 1538 850 
L 1241 0 
L 31 0 
L 1759 4666 
L 3194 4666 
L 4922 0 
L 3713 0 
L 3419 850 
z
M 1838 1716 
L 3116 1716 
L 2478 3572 
L 1838 1716 
z
" transform="scale(0.015625)"/>
      <path id="DejaVuSans-Bold-52" d="M 2297 2597 
Q 2675 2597 2839 2737 
Q 3003 2878 3003 3200 
Q 3003 3519 2839 3656 
Q 2675 3794 2297 3794 
L 1791 3794 
L 1791 2597 
L 2297 2597 
z
M 1791 1766 
L 1791 0 
L 588 0 
L 588 4666 
L 2425 4666 
Q 3347 4666 3776 4356 
Q 4206 4047 4206 3378 
Q 4206 2916 3982 2619 
Q 3759 2322 3309 2181 
Q 3556 2125 3751 1926 
Q 3947 1728 4147 1325 
L 4800 0 
L 3519 0 
L 2950 1159 
Q 2778 1509 2601 1637 
Q 2425 1766 2131 1766 
L 1791 1766 
z
" transform="scale(0.015625)"/>
     </defs>
     <use xlink:href="#DejaVuSans-Bold-48"/>
     <use xlink:href="#DejaVuSans-Bold-6f" transform="translate(83.691406 0)"/>
     <use xlink:href="#DejaVuSans-Bold-77" transform="translate(152.392578 0)"/>
     <use xlink:href="#DejaVuSans-Bold-20" transform="translate(244.775391 0)"/>
     <use xlink:href="#DejaVuSans-Bold-74" transform="translate(279.589844 0)"/>
     <use xlink:href="#DejaVuSans-Bold-68" transform="translate(327.392578 0)"/>
     <use xlink:href="#DejaVuSans-Bold-65" transform="translate(398.583984 0)"/>
     <use xlink:href="#DejaVuSans-Bold-20" transform="translate(466.40625 0)"/>
     <use xlink:href="#DejaVuSans-Bold-6d" transform="translate(501.220703 0)"/>
     <use xlink:href="#DejaVuSans-Bold-69" transform="translate(605.419922 0)"/>
     <use xlink:href="#DejaVuSans-Bold-78" transform="translate(639.697266 0)"/>
     <use xlink:href="#DejaVuSans-Bold-20" transform="translate(704.199219 0)"/>
     <use xlink:href="#DejaVuSans-Bold-63" transform="translate(739.013672 0)"/>
     <use xlink:href="#DejaVuSans-Bold-6f" transform="translate(798.291016 0)"/>
     <use xlink:href="#DejaVuSans-Bold-6d" transform="translate(866.992188 0)"/>
     <use xlink:href="#DejaVuSans-Bold-70" transform="translate(971.191406 0)"/>
     <use xlink:href="#DejaVuSans-Bold-6f" transform="translate(1042.773438 0)"/>
     <use xlink:href="#DejaVuSans-Bold-75" transform="translate(1111.474609 0)"/>
     <use xlink:href="#DejaVuSans-Bold-6e" transform="translate(1182.666016 0)"/>
     <use xlink:href="#DejaVuSans-Bold-64" transform="translate(1253.857422 0)"/>
     <use xlink:href="#DejaVuSans-Bold-73" transform="translate(1325.439453 0)"/>
     <use xlink:href="#DejaVuSans-Bold-20" transform="translate(1384.960938 0)"/>
     <use xlink:href="#DejaVuSans-Bold-20" transform="translate(1419.775391 0)"/>
     <use xlink:href="#DejaVuSans-Bold-b7" transform="translate(1454.589844 0)"/>
     <use xlink:href="#DejaVuSans-Bold-20" transform="translate(1492.578125 0)"/>
     <use xlink:href="#DejaVuSans-Bold-20" transform="translate(1527.392578 0)"/>
     <use xlink:href="#DejaVuSans-Bold-37" transform="translate(1562.207031 0)"/>
     <use xlink:href="#DejaVuSans-Bold-33" transform="translate(1631.787109 0)"/>
     <use xlink:href="#DejaVuSans-Bold-20" transform="translate(1701.367188 0)"/>
     <use xlink:href="#DejaVuSans-Bold-65" transform="translate(1736.181641 0)"/>
     <use xlink:href="#DejaVuSans-Bold-76" transform="translate(1804.003906 0)"/>
     <use xlink:href="#DejaVuSans-Bold-65" transform="translate(1869.189453 0)"/>
     <use xlink:href="#DejaVuSans-Bold-6e" transform="translate(1937.011719 0)"/>
     <use xlink:href="#DejaVuSans-Bold-74" transform="translate(2008.203125 0)"/>
     <use xlink:href="#DejaVuSans-Bold-73" transform="translate(2056.005859 0)"/>
     <use xlink:href="#DejaVuSans-Bold-20" transform="translate(2115.527344 0)"/>
     <use xlink:href="#DejaVuSans-Bold-2f" transform="translate(2150.341797 0)"/>
     <use xlink:href="#DejaVuSans-Bold-20" transform="translate(2186.865234 0)"/>
     <use xlink:href="#DejaVuSans-Bold-79" transform="translate(2221.679688 0)"/>
     <use xlink:href="#DejaVuSans-Bold-72" transform="translate(2286.865234 0)"/>
     <use xlink:href="#DejaVuSans-Bold-20" transform="translate(2336.181641 0)"/>
     <use xlink:href="#DejaVuSans-Bold-2192" transform="translate(2370.996094 0)"/>
     <use xlink:href="#DejaVuSans-Bold-20" transform="translate(2454.785156 0)"/>
     <use xlink:href="#DejaVuSans-Bold-41" transform="translate(2489.599609 0)"/>
     <use xlink:href="#DejaVuSans-Bold-52" transform="translate(2566.992188 0)"/>
     <use xlink:href="#DejaVuSans-Bold-52" transform="translate(2643.994141 0)"/>
    </g>
   </g>
  </g>
 </g>
 <defs>
  <clipPath id="p3c7e011084">
   <rect x="75.394892" y="34.318125" width="396.974715" height="259.2"/>
  </clipPath>
  <clipPath id="p2a44ae98ae">
   <rect x="545.611441" y="34.318125" width="416.82345" height="259.2"/>
  </clipPath>
 </defs>
</svg>
