<?xml version="1.0" encoding="utf-8" standalone="no"?>
<!DOCTYPE svg PUBLIC "-//W3C//DTD SVG 1.1//EN"
  "http://www.w3.org/Graphics/SVG/1.1/DTD/svg11.dtd">
<svg xmlns:xlink="http://www.w3.org/1999/xlink" width="470.455469pt" height="256.302594pt" viewBox="0 0 470.455469 256.302594" xmlns="http://www.w3.org/2000/svg" version="1.1">
 <metadata>
  <rdf:RDF xmlns:dc="http://purl.org/dc/elements/1.1/" xmlns:cc="http://creativecommons.org/ns#" xmlns:rdf="http://www.w3.org/1999/02/22-rdf-syntax-ns#">
   <cc:Work>
    <dc:type rdf:resource="http://purl.org/dc/dcmitype/StillImage"/>
    <dc:date>2026-06-02T06:46:49.706818</dc:date>
    <dc:format>image/svg+xml</dc:format>
    <dc:creator>
     <cc:Agent>
      <dc:title>Matplotlib v3.10.9, https://matplotlib.org/</dc:title>
     </cc:Agent>
    </dc:creator>
   </cc:Work>
  </rdf:RDF>
 </metadata>
 <defs>
  <style type="text/css">*{stroke-linejoin: round; stroke-linecap: butt}</style>
 </defs>
 <g id="figure_1">
  <g id="patch_1">
   <path d="M 0 256.302594 
L 470.455469 256.302594 
L 470.455469 0 
L 0 0 
L 0 256.302594 
z
" style="fill: none"/>
  </g>
  <g id="axes_1">
   <g id="patch_2">
    <path d="M 54.339063 227.142281 
L 456.099063 227.142281 
L 456.099063 27.558281 
L 54.339063 27.558281 
L 54.339063 227.142281 
z
" style="fill: none"/>
   </g>
   <g id="matplotlib.axis_1">
    <g id="xtick_1">
     <g id="line2d_1">
      <path d="M 54.339063 227.142281 
L 54.339063 27.558281 
" clip-path="url(#pc939db1401)" style="fill: none; stroke: #000000; stroke-opacity: 0.24; stroke-width: 0.75; stroke-linecap: square"/>
     </g>
     <g id="line2d_2">
      <defs>
       <path id="maec208c662" d="M 0 0 
L 0 8.25 
" style="stroke: #6b7280; stroke-width: 0.75"/>
      </defs>
      <g>
       <use xlink:href="#maec208c662" x="54.339063" y="227.142281" style="fill-opacity: 0.239216; stroke: #6b7280; stroke-width: 0.75"/>
      </g>
     </g>
     <g id="text_1">
      <!-- 0.0 -->
      <g style="fill: #6b7280" transform="translate(47.182656 247.230875) scale(0.09 -0.09)">
       <defs>
        <path id="DejaVuSans-30" d="M 2034 4250 
Q 1547 4250 1301 3770 
Q 1056 3291 1056 2328 
Q 1056 1369 1301 889 
Q 1547 409 2034 409 
Q 2525 409 2770 889 
Q 3016 1369 3016 2328 
Q 3016 3291 2770 3770 
Q 2525 4250 2034 4250 
z
M 2034 4750 
Q 2819 4750 3233 4129 
Q 3647 3509 3647 2328 
Q 3647 1150 3233 529 
Q 2819 -91 2034 -91 
Q 1250 -91 836 529 
Q 422 1150 422 2328 
Q 422 3509 836 4129 
Q 1250 4750 2034 4750 
z
" transform="scale(0.015625)"/>
        <path id="DejaVuSans-2e" d="M 684 794 
L 1344 794 
L 1344 0 
L 684 0 
L 684 794 
z
" transform="scale(0.015625)"/>
       </defs>
       <use xlink:href="#DejaVuSans-30"/>
       <use xlink:href="#DejaVuSans-2e" transform="translate(63.623047 0)"/>
       <use xlink:href="#DejaVuSans-30" transform="translate(95.410156 0)"/>
      </g>
     </g>
    </g>
    <g id="xtick_2">
     <g id="line2d_3">
      <path d="M 134.691063 227.142281 
L 134.691063 27.558281 
" clip-path="url(#pc939db1401)" style="fill: none; stroke: #000000; stroke-opacity: 0.24; stroke-width: 0.75; stroke-linecap: square"/>
     </g>
     <g id="line2d_4">
      <g>
       <use xlink:href="#maec208c662" x="134.691063" y="227.142281" style="fill-opacity: 0.239216; stroke: #6b7280; stroke-width: 0.75"/>
      </g>
     </g>
     <g id="text_2">
      <!-- 0.2 -->
      <g style="fill: #6b7280" transform="translate(127.534656 247.230875) scale(0.09 -0.09)">
       <defs>
        <path id="DejaVuSans-32" d="M 1228 531 
L 3431 531 
L 3431 0 
L 469 0 
L 469 531 
Q 828 903 1448 1529 
Q 2069 2156 2228 2338 
Q 2531 2678 2651 2914 
Q 2772 3150 2772 3378 
Q 2772 3750 2511 3984 
Q 2250 4219 1831 4219 
Q 1534 4219 1204 4116 
Q 875 4013 500 3803 
L 500 4441 
Q 881 4594 1212 4672 
Q 1544 4750 1819 4750 
Q 2544 4750 2975 4387 
Q 3406 4025 3406 3419 
Q 3406 3131 3298 2873 
Q 3191 2616 2906 2266 
Q 2828 2175 2409 1742 
Q 1991 1309 1228 531 
z
" transform="scale(0.015625)"/>
       </defs>
       <use xlink:href="#DejaVuSans-30"/>
       <use xlink:href="#DejaVuSans-2e" transform="translate(63.623047 0)"/>
       <use xlink:href="#DejaVuSans-32" transform="translate(95.410156 0)"/>
      </g>
     </g>
    </g>
    <g id="xtick_3">
     <g id="line2d_5">
      <path d="M 215.043063 227.142281 
L 215.043063 27.558281 
" clip-path="url(#pc939db1401)" style="fill: none; stroke: #000000; stroke-opacity: 0.24; stroke-width: 0.75; stroke-linecap: square"/>
     </g>
     <g id="line2d_6">
      <g>
       <use xlink:href="#maec208c662" x="215.043063" y="227.142281" style="fill-opacity: 0.239216; stroke: #6b7280; stroke-width: 0.75"/>
      </g>
     </g>
     <g id="text_3">
      <!-- 0.4 -->
      <g style="fill: #6b7280" transform="translate(207.886656 247.230875) scale(0.09 -0.09)">
       <defs>
        <path id="DejaVuSans-34" d="M 2419 4116 
L 825 1625 
L 2419 1625 
L 2419 4116 
z
M 2253 4666 
L 3047 4666 
L 3047 1625 
L 3713 1625 
L 3713 1100 
L 3047 1100 
L 3047 0 
L 2419 0 
L 2419 1100 
L 313 1100 
L 313 1709 
L 2253 4666 
z
" transform="scale(0.015625)"/>
       </defs>
       <use xlink:href="#DejaVuSans-30"/>
       <use xlink:href="#DejaVuSans-2e" transform="translate(63.623047 0)"/>
       <use xlink:href="#DejaVuSans-34" transform="translate(95.410156 0)"/>
      </g>
     </g>
    </g>
    <g id="xtick_4">
     <g id="line2d_7">
      <path d="M 295.395063 227.142281 
L 295.395063 27.558281 
" clip-path="url(#pc939db1401)" style="fill: none; stroke: #000000; stroke-opacity: 0.24; stroke-width: 0.75; stroke-linecap: square"/>
     </g>
     <g id="line2d_8">
      <g>
       <use xlink:href="#maec208c662" x="295.395063" y="227.142281" style="fill-opacity: 0.239216; stroke: #6b7280; stroke-width: 0.75"/>
      </g>
     </g>
     <g id="text_4">
      <!-- 0.6 -->
      <g style="fill: #6b7280" transform="translate(288.238656 247.230875) scale(0.09 -0.09)">
       <defs>
        <path id="DejaVuSans-36" d="M 2113 2584 
Q 1688 2584 1439 2293 
Q 1191 2003 1191 1497 
Q 1191 994 1439 701 
Q 1688 409 2113 409 
Q 2538 409 2786 701 
Q 3034 994 3034 1497 
Q 3034 2003 2786 2293 
Q 2538 2584 2113 2584 
z
M 3366 4563 
L 3366 3988 
Q 3128 4100 2886 4159 
Q 2644 4219 2406 4219 
Q 1781 4219 1451 3797 
Q 1122 3375 1075 2522 
Q 1259 2794 1537 2939 
Q 1816 3084 2150 3084 
Q 2853 3084 3261 2657 
Q 3669 2231 3669 1497 
Q 3669 778 3244 343 
Q 2819 -91 2113 -91 
Q 1303 -91 875 529 
Q 447 1150 447 2328 
Q 447 3434 972 4092 
Q 1497 4750 2381 4750 
Q 2619 4750 2861 4703 
Q 3103 4656 3366 4563 
z
" transform="scale(0.015625)"/>
       </defs>
       <use xlink:href="#DejaVuSans-30"/>
       <use xlink:href="#DejaVuSans-2e" transform="translate(63.623047 0)"/>
       <use xlink:href="#DejaVuSans-36" transform="translate(95.410156 0)"/>
      </g>
     </g>
    </g>
    <g id="xtick_5">
     <g id="line2d_9">
      <path d="M 375.747063 227.142281 
L 375.747063 27.558281 
" clip-path="url(#pc939db1401)" style="fill: none; stroke: #000000; stroke-opacity: 0.24; stroke-width: 0.75; stroke-linecap: square"/>
     </g>
     <g id="line2d_10">
      <g>
       <use xlink:href="#maec208c662" x="375.747063" y="227.142281" style="fill-opacity: 0.239216; stroke: #6b7280; stroke-width: 0.75"/>
      </g>
     </g>
     <g id="text_5">
      <!-- 0.8 -->
      <g style="fill: #6b7280" transform="translate(368.590656 247.230875) scale(0.09 -0.09)">
       <defs>
        <path id="DejaVuSans-38" d="M 2034 2216 
Q 1584 2216 1326 1975 
Q 1069 1734 1069 1313 
Q 1069 891 1326 650 
Q 1584 409 2034 409 
Q 2484 409 2743 651 
Q 3003 894 3003 1313 
Q 3003 1734 2745 1975 
Q 2488 2216 2034 2216 
z
M 1403 2484 
Q 997 2584 770 2862 
Q 544 3141 544 3541 
Q 544 4100 942 4425 
Q 1341 4750 2034 4750 
Q 2731 4750 3128 4425 
Q 3525 4100 3525 3541 
Q 3525 3141 3298 2862 
Q 3072 2584 2669 2484 
Q 3125 2378 3379 2068 
Q 3634 1759 3634 1313 
Q 3634 634 3220 271 
Q 2806 -91 2034 -91 
Q 1263 -91 848 271 
Q 434 634 434 1313 
Q 434 1759 690 2068 
Q 947 2378 1403 2484 
z
M 1172 3481 
Q 1172 3119 1398 2916 
Q 1625 2713 2034 2713 
Q 2441 2713 2670 2916 
Q 2900 3119 2900 3481 
Q 2900 3844 2670 4047 
Q 2441 4250 2034 4250 
Q 1625 4250 1398 4047 
Q 1172 3844 1172 3481 
z
" transform="scale(0.015625)"/>
       </defs>
       <use xlink:href="#DejaVuSans-30"/>
       <use xlink:href="#DejaVuSans-2e" transform="translate(63.623047 0)"/>
       <use xlink:href="#DejaVuSans-38" transform="translate(95.410156 0)"/>
      </g>
     </g>
    </g>
    <g id="xtick_6">
     <g id="line2d_11">
      <path d="M 456.099063 227.142281 
L 456.099063 27.558281 
" clip-path="url(#pc939db1401)" style="fill: none; stroke: #000000; stroke-opacity: 0.24; stroke-width: 0.75; stroke-linecap: square"/>
     </g>
     <g id="line2d_12">
      <g>
       <use xlink:href="#maec208c662" x="456.099063" y="227.142281" style="fill-opacity: 0.239216; stroke: #6b7280; stroke-width: 0.75"/>
      </g>
     </g>
     <g id="text_6">
      <!-- 1.0 -->
      <g style="fill: #6b7280" transform="translate(448.942656 247.230875) scale(0.09 -0.09)">
       <defs>
        <path id="DejaVuSans-31" d="M 794 531 
L 1825 531 
L 1825 4091 
L 703 3866 
L 703 4441 
L 1819 4666 
L 2450 4666 
L 2450 531 
L 3481 531 
L 3481 0 
L 794 0 
L 794 531 
z
" transform="scale(0.015625)"/>
       </defs>
       <use xlink:href="#DejaVuSans-31"/>
       <use xlink:href="#DejaVuSans-2e" transform="translate(63.623047 0)"/>
       <use xlink:href="#DejaVuSans-30" transform="translate(95.410156 0)"/>
      </g>
     </g>
    </g>
    <g id="xtick_7">
     <g id="line2d_13">
      <defs>
       <path id="me56f6c3f94" d="M 0 0 
L 0 4.125 
" style="stroke: #6b7280; stroke-width: 0.75"/>
      </defs>
      <g>
       <use xlink:href="#me56f6c3f94" x="74.427063" y="227.142281" style="fill-opacity: 0.239216; stroke: #6b7280; stroke-width: 0.75"/>
      </g>
     </g>
    </g>
    <g id="xtick_8">
     <g id="line2d_14">
      <g>
       <use xlink:href="#me56f6c3f94" x="94.515062" y="227.142281" style="fill-opacity: 0.239216; stroke: #6b7280; stroke-width: 0.75"/>
      </g>
     </g>
    </g>
    <g id="xtick_9">
     <g id="line2d_15">
      <g>
       <use xlink:href="#me56f6c3f94" x="114.603063" y="227.142281" style="fill-opacity: 0.239216; stroke: #6b7280; stroke-width: 0.75"/>
      </g>
     </g>
    </g>
    <g id="xtick_10">
     <g id="line2d_16">
      <g>
       <use xlink:href="#me56f6c3f94" x="154.779063" y="227.142281" style="fill-opacity: 0.239216; stroke: #6b7280; stroke-width: 0.75"/>
      </g>
     </g>
    </g>
    <g id="xtick_11">
     <g id="line2d_17">
      <g>
       <use xlink:href="#me56f6c3f94" x="174.867063" y="227.142281" style="fill-opacity: 0.239216; stroke: #6b7280; stroke-width: 0.75"/>
      </g>
     </g>
    </g>
    <g id="xtick_12">
     <g id="line2d_18">
      <g>
       <use xlink:href="#me56f6c3f94" x="194.955063" y="227.142281" style="fill-opacity: 0.239216; stroke: #6b7280; stroke-width: 0.75"/>
      </g>
     </g>
    </g>
    <g id="xtick_13">
     <g id="line2d_19">
      <g>
       <use xlink:href="#me56f6c3f94" x="235.131063" y="227.142281" style="fill-opacity: 0.239216; stroke: #6b7280; stroke-width: 0.75"/>
      </g>
     </g>
    </g>
    <g id="xtick_14">
     <g id="line2d_20">
      <g>
       <use xlink:href="#me56f6c3f94" x="255.219063" y="227.142281" style="fill-opacity: 0.239216; stroke: #6b7280; stroke-width: 0.75"/>
      </g>
     </g>
    </g>
    <g id="xtick_15">
     <g id="line2d_21">
      <g>
       <use xlink:href="#me56f6c3f94" x="275.307063" y="227.142281" style="fill-opacity: 0.239216; stroke: #6b7280; stroke-width: 0.75"/>
      </g>
     </g>
    </g>
    <g id="xtick_16">
     <g id="line2d_22">
      <g>
       <use xlink:href="#me56f6c3f94" x="315.483063" y="227.142281" style="fill-opacity: 0.239216; stroke: #6b7280; stroke-width: 0.75"/>
      </g>
     </g>
    </g>
    <g id="xtick_17">
     <g id="line2d_23">
      <g>
       <use xlink:href="#me56f6c3f94" x="335.571063" y="227.142281" style="fill-opacity: 0.239216; stroke: #6b7280; stroke-width: 0.75"/>
      </g>
     </g>
    </g>
    <g id="xtick_18">
     <g id="line2d_24">
      <g>
       <use xlink:href="#me56f6c3f94" x="355.659063" y="227.142281" style="fill-opacity: 0.239216; stroke: #6b7280; stroke-width: 0.75"/>
      </g>
     </g>
    </g>
    <g id="xtick_19">
     <g id="line2d_25">
      <g>
       <use xlink:href="#me56f6c3f94" x="395.835063" y="227.142281" style="fill-opacity: 0.239216; stroke: #6b7280; stroke-width: 0.75"/>
      </g>
     </g>
    </g>
    <g id="xtick_20">
     <g id="line2d_26">
      <g>
       <use xlink:href="#me56f6c3f94" x="415.923063" y="227.142281" style="fill-opacity: 0.239216; stroke: #6b7280; stroke-width: 0.75"/>
      </g>
     </g>
    </g>
    <g id="xtick_21">
     <g id="line2d_27">
      <g>
       <use xlink:href="#me56f6c3f94" x="436.011063" y="227.142281" style="fill-opacity: 0.239216; stroke: #6b7280; stroke-width: 0.75"/>
      </g>
     </g>
    </g>
   </g>
   <g id="matplotlib.axis_2">
    <g id="ytick_1">
     <g id="line2d_28">
      <path d="M 54.339063 227.142281 
L 456.099063 227.142281 
" clip-path="url(#pc939db1401)" style="fill: none; stroke: #000000; stroke-opacity: 0.24; stroke-width: 0.75; stroke-linecap: square"/>
     </g>
     <g id="line2d_29">
      <defs>
       <path id="m6c879fb63e" d="M 0 0 
L -8.25 0 
" style="stroke: #6b7280; stroke-width: 0.75"/>
      </defs>
      <g>
       <use xlink:href="#m6c879fb63e" x="54.339063" y="227.142281" style="fill-opacity: 0.239216; stroke: #6b7280; stroke-width: 0.75"/>
      </g>
     </g>
     <g id="text_7">
      <!-- 0.0 -->
      <g style="fill: #6b7280" transform="translate(26.77625 230.561578) scale(0.09 -0.09)">
       <use xlink:href="#DejaVuSans-30"/>
       <use xlink:href="#DejaVuSans-2e" transform="translate(63.623047 0)"/>
       <use xlink:href="#DejaVuSans-30" transform="translate(95.410156 0)"/>
      </g>
     </g>
    </g>
    <g id="ytick_2">
     <g id="line2d_30">
      <path d="M 54.339063 187.225481 
L 456.099063 187.225481 
" clip-path="url(#pc939db1401)" style="fill: none; stroke: #000000; stroke-opacity: 0.24; stroke-width: 0.75; stroke-linecap: square"/>
     </g>
     <g id="line2d_31">
      <g>
       <use xlink:href="#m6c879fb63e" x="54.339063" y="187.225481" style="fill-opacity: 0.239216; stroke: #6b7280; stroke-width: 0.75"/>
      </g>
     </g>
     <g id="text_8">
      <!-- 0.2 -->
      <g style="fill: #6b7280" transform="translate(26.77625 190.644778) scale(0.09 -0.09)">
       <use xlink:href="#DejaVuSans-30"/>
       <use xlink:href="#DejaVuSans-2e" transform="translate(63.623047 0)"/>
       <use xlink:href="#DejaVuSans-32" transform="translate(95.410156 0)"/>
      </g>
     </g>
    </g>
    <g id="ytick_3">
     <g id="line2d_32">
      <path d="M 54.339063 147.308681 
L 456.099063 147.308681 
" clip-path="url(#pc939db1401)" style="fill: none; stroke: #000000; stroke-opacity: 0.24; stroke-width: 0.75; stroke-linecap: square"/>
     </g>
     <g id="line2d_33">
      <g>
       <use xlink:href="#m6c879fb63e" x="54.339063" y="147.308681" style="fill-opacity: 0.239216; stroke: #6b7280; stroke-width: 0.75"/>
      </g>
     </g>
     <g id="text_9">
      <!-- 0.4 -->
      <g style="fill: #6b7280" transform="translate(26.77625 150.727978) scale(0.09 -0.09)">
       <use xlink:href="#DejaVuSans-30"/>
       <use xlink:href="#DejaVuSans-2e" transform="translate(63.623047 0)"/>
       <use xlink:href="#DejaVuSans-34" transform="translate(95.410156 0)"/>
      </g>
     </g>
    </g>
    <g id="ytick_4">
     <g id="line2d_34">
      <path d="M 54.339063 107.391881 
L 456.099063 107.391881 
" clip-path="url(#pc939db1401)" style="fill: none; stroke: #000000; stroke-opacity: 0.24; stroke-width: 0.75; stroke-linecap: square"/>
     </g>
     <g id="line2d_35">
      <g>
       <use xlink:href="#m6c879fb63e" x="54.339063" y="107.391881" style="fill-opacity: 0.239216; stroke: #6b7280; stroke-width: 0.75"/>
      </g>
     </g>
     <g id="text_10">
      <!-- 0.6 -->
      <g style="fill: #6b7280" transform="translate(26.77625 110.811178) scale(0.09 -0.09)">
       <use xlink:href="#DejaVuSans-30"/>
       <use xlink:href="#DejaVuSans-2e" transform="translate(63.623047 0)"/>
       <use xlink:href="#DejaVuSans-36" transform="translate(95.410156 0)"/>
      </g>
     </g>
    </g>
    <g id="ytick_5">
     <g id="line2d_36">
      <path d="M 54.339063 67.475081 
L 456.099063 67.475081 
" clip-path="url(#pc939db1401)" style="fill: none; stroke: #000000; stroke-opacity: 0.24; stroke-width: 0.75; stroke-linecap: square"/>
     </g>
     <g id="line2d_37">
      <g>
       <use xlink:href="#m6c879fb63e" x="54.339063" y="67.475081" style="fill-opacity: 0.239216; stroke: #6b7280; stroke-width: 0.75"/>
      </g>
     </g>
     <g id="text_11">
      <!-- 0.8 -->
      <g style="fill: #6b7280" transform="translate(26.77625 70.894378) scale(0.09 -0.09)">
       <use xlink:href="#DejaVuSans-30"/>
       <use xlink:href="#DejaVuSans-2e" transform="translate(63.623047 0)"/>
       <use xlink:href="#DejaVuSans-38" transform="translate(95.410156 0)"/>
      </g>
     </g>
    </g>
    <g id="ytick_6">
     <g id="line2d_38">
      <path d="M 54.339063 27.558281 
L 456.099063 27.558281 
" clip-path="url(#pc939db1401)" style="fill: none; stroke: #000000; stroke-opacity: 0.24; stroke-width: 0.75; stroke-linecap: square"/>
     </g>
     <g id="line2d_39">
      <g>
       <use xlink:href="#m6c879fb63e" x="54.339063" y="27.558281" style="fill-opacity: 0.239216; stroke: #6b7280; stroke-width: 0.75"/>
      </g>
     </g>
     <g id="text_12">
      <!-- 1.0 -->
      <g style="fill: #6b7280" transform="translate(26.77625 30.977578) scale(0.09 -0.09)">
       <use xlink:href="#DejaVuSans-31"/>
       <use xlink:href="#DejaVuSans-2e" transform="translate(63.623047 0)"/>
       <use xlink:href="#DejaVuSans-30" transform="translate(95.410156 0)"/>
      </g>
     </g>
    </g>
    <g id="ytick_7">
     <g id="line2d_40">
      <defs>
       <path id="m05cc6b9875" d="M 0 0 
L -4.125 0 
" style="stroke: #6b7280; stroke-width: 0.75"/>
      </defs>
      <g>
       <use xlink:href="#m05cc6b9875" x="54.339063" y="217.163081" style="fill-opacity: 0.239216; stroke: #6b7280; stroke-width: 0.75"/>
      </g>
     </g>
    </g>
    <g id="ytick_8">
     <g id="line2d_41">
      <g>
       <use xlink:href="#m05cc6b9875" x="54.339063" y="207.183881" style="fill-opacity: 0.239216; stroke: #6b7280; stroke-width: 0.75"/>
      </g>
     </g>
    </g>
    <g id="ytick_9">
     <g id="line2d_42">
      <g>
       <use xlink:href="#m05cc6b9875" x="54.339063" y="197.204681" style="fill-opacity: 0.239216; stroke: #6b7280; stroke-width: 0.75"/>
      </g>
     </g>
    </g>
    <g id="ytick_10">
     <g id="line2d_43">
      <g>
       <use xlink:href="#m05cc6b9875" x="54.339063" y="177.246281" style="fill-opacity: 0.239216; stroke: #6b7280; stroke-width: 0.75"/>
      </g>
     </g>
    </g>
    <g id="ytick_11">
     <g id="line2d_44">
      <g>
       <use xlink:href="#m05cc6b9875" x="54.339063" y="167.267081" style="fill-opacity: 0.239216; stroke: #6b7280; stroke-width: 0.75"/>
      </g>
     </g>
    </g>
    <g id="ytick_12">
     <g id="line2d_45">
      <g>
       <use xlink:href="#m05cc6b9875" x="54.339063" y="157.287881" style="fill-opacity: 0.239216; stroke: #6b7280; stroke-width: 0.75"/>
      </g>
     </g>
    </g>
    <g id="ytick_13">
     <g id="line2d_46">
      <g>
       <use xlink:href="#m05cc6b9875" x="54.339063" y="137.329481" style="fill-opacity: 0.239216; stroke: #6b7280; stroke-width: 0.75"/>
      </g>
     </g>
    </g>
    <g id="ytick_14">
     <g id="line2d_47">
      <g>
       <use xlink:href="#m05cc6b9875" x="54.339063" y="127.350281" style="fill-opacity: 0.239216; stroke: #6b7280; stroke-width: 0.75"/>
      </g>
     </g>
    </g>
    <g id="ytick_15">
     <g id="line2d_48">
      <g>
       <use xlink:href="#m05cc6b9875" x="54.339063" y="117.371081" style="fill-opacity: 0.239216; stroke: #6b7280; stroke-width: 0.75"/>
      </g>
     </g>
    </g>
    <g id="ytick_16">
     <g id="line2d_49">
      <g>
       <use xlink:href="#m05cc6b9875" x="54.339063" y="97.412681" style="fill-opacity: 0.239216; stroke: #6b7280; stroke-width: 0.75"/>
      </g>
     </g>
    </g>
    <g id="ytick_17">
     <g id="line2d_50">
      <g>
       <use xlink:href="#m05cc6b9875" x="54.339063" y="87.433481" style="fill-opacity: 0.239216; stroke: #6b7280; stroke-width: 0.75"/>
      </g>
     </g>
    </g>
    <g id="ytick_18">
     <g id="line2d_51">
      <g>
       <use xlink:href="#m05cc6b9875" x="54.339063" y="77.454281" style="fill-opacity: 0.239216; stroke: #6b7280; stroke-width: 0.75"/>
      </g>
     </g>
    </g>
    <g id="ytick_19">
     <g id="line2d_52">
      <g>
       <use xlink:href="#m05cc6b9875" x="54.339063" y="57.495881" style="fill-opacity: 0.239216; stroke: #6b7280; stroke-width: 0.75"/>
      </g>
     </g>
    </g>
    <g id="ytick_20">
     <g id="line2d_53">
      <g>
       <use xlink:href="#m05cc6b9875" x="54.339063" y="47.516681" style="fill-opacity: 0.239216; stroke: #6b7280; stroke-width: 0.75"/>
      </g>
     </g>
    </g>
    <g id="ytick_21">
     <g id="line2d_54">
      <g>
       <use xlink:href="#m05cc6b9875" x="54.339063" y="37.537481" style="fill-opacity: 0.239216; stroke: #6b7280; stroke-width: 0.75"/>
      </g>
     </g>
    </g>
   </g>
   <g id="patch_3">
    <path d="M 54.339063 227.142281 
L 54.339063 27.558281 
" style="fill: none; stroke: #cfd4da; stroke-linejoin: miter; stroke-linecap: square"/>
   </g>
   <g id="patch_4">
    <path d="M 456.099063 227.142281 
L 456.099063 27.558281 
" style="fill: none; stroke: #cfd4da; stroke-linejoin: miter; stroke-linecap: square"/>
   </g>
   <g id="patch_5">
    <path d="M 54.339063 227.142281 
L 456.099063 227.142281 
" style="fill: none; stroke: #cfd4da; stroke-linejoin: miter; stroke-linecap: square"/>
   </g>
   <g id="patch_6">
    <path d="M 54.339063 27.558281 
L 456.099063 27.558281 
" style="fill: none; stroke: #cfd4da; stroke-linejoin: miter; stroke-linecap: square"/>
   </g>
  </g>
  <g id="axes_2">
   <g id="patch_7">
    <path d="M 54.339063 227.142281 
L 456.099063 227.142281 
L 456.099063 27.558281 
L 54.339063 27.558281 
L 54.339063 227.142281 
z
" style="fill: none"/>
   </g>
   <g id="matplotlib.axis_3">
    <g id="xtick_22">
     <g id="line2d_55">
      <path d="M 65.376425 227.142281 
L 65.376425 27.558281 
" clip-path="url(#pc939db1401)" style="fill: none; stroke: #000000; stroke-opacity: 0.24; stroke-width: 0.75; stroke-linecap: square"/>
     </g>
     <g id="line2d_56">
      <g>
       <use xlink:href="#maec208c662" x="65.376425" y="227.142281" style="fill-opacity: 0.239216; stroke: #6b7280; stroke-width: 0.75"/>
      </g>
     </g>
     <g id="text_13">
      <!-- M1 -->
      <g style="fill: #6b7280" transform="translate(58.630644 247.230875) scale(0.09 -0.09)">
       <defs>
        <path id="DejaVuSans-4d" d="M 628 4666 
L 1569 4666 
L 2759 1491 
L 3956 4666 
L 4897 4666 
L 4897 0 
L 4281 0 
L 4281 4097 
L 3078 897 
L 2444 897 
L 1241 4097 
L 1241 0 
L 628 0 
L 628 4666 
z
" transform="scale(0.015625)"/>
       </defs>
       <use xlink:href="#DejaVuSans-4d"/>
       <use xlink:href="#DejaVuSans-31" transform="translate(86.279297 0)"/>
      </g>
     </g>
    </g>
    <g id="xtick_23">
     <g id="line2d_57">
      <path d="M 175.750052 227.142281 
L 175.750052 27.558281 
" clip-path="url(#pc939db1401)" style="fill: none; stroke: #000000; stroke-opacity: 0.24; stroke-width: 0.75; stroke-linecap: square"/>
     </g>
     <g id="line2d_58">
      <g>
       <use xlink:href="#maec208c662" x="175.750052" y="227.142281" style="fill-opacity: 0.239216; stroke: #6b7280; stroke-width: 0.75"/>
      </g>
     </g>
     <g id="text_14">
      <!-- M6 -->
      <g style="fill: #6b7280" transform="translate(169.00427 247.230875) scale(0.09 -0.09)">
       <use xlink:href="#DejaVuSans-4d"/>
       <use xlink:href="#DejaVuSans-36" transform="translate(86.279297 0)"/>
      </g>
     </g>
    </g>
    <g id="xtick_24">
     <g id="line2d_59">
      <path d="M 308.198403 227.142281 
L 308.198403 27.558281 
" clip-path="url(#pc939db1401)" style="fill: none; stroke: #000000; stroke-opacity: 0.24; stroke-width: 0.75; stroke-linecap: square"/>
     </g>
     <g id="line2d_60">
      <g>
       <use xlink:href="#maec208c662" x="308.198403" y="227.142281" style="fill-opacity: 0.239216; stroke: #6b7280; stroke-width: 0.75"/>
      </g>
     </g>
     <g id="text_15">
      <!-- M12 -->
      <g style="fill: #6b7280" transform="translate(298.589497 247.230875) scale(0.09 -0.09)">
       <use xlink:href="#DejaVuSans-4d"/>
       <use xlink:href="#DejaVuSans-31" transform="translate(86.279297 0)"/>
       <use xlink:href="#DejaVuSans-32" transform="translate(149.902344 0)"/>
      </g>
     </g>
    </g>
    <g id="xtick_25">
     <g id="line2d_61">
      <path d="M 440.646755 227.142281 
L 440.646755 27.558281 
" clip-path="url(#pc939db1401)" style="fill: none; stroke: #000000; stroke-opacity: 0.24; stroke-width: 0.75; stroke-linecap: square"/>
     </g>
     <g id="line2d_62">
      <g>
       <use xlink:href="#maec208c662" x="440.646755" y="227.142281" style="fill-opacity: 0.239216; stroke: #6b7280; stroke-width: 0.75"/>
      </g>
     </g>
     <g id="text_16">
      <!-- M18 -->
      <g style="fill: #6b7280" transform="translate(431.037849 247.230875) scale(0.09 -0.09)">
       <use xlink:href="#DejaVuSans-4d"/>
       <use xlink:href="#DejaVuSans-31" transform="translate(86.279297 0)"/>
       <use xlink:href="#DejaVuSans-38" transform="translate(149.902344 0)"/>
      </g>
     </g>
    </g>
    <g id="xtick_26">
     <g id="line2d_63">
      <g>
       <use xlink:href="#me56f6c3f94" x="87.45115" y="227.142281" style="fill-opacity: 0.239216; stroke: #6b7280; stroke-width: 0.75"/>
      </g>
     </g>
    </g>
    <g id="xtick_27">
     <g id="line2d_64">
      <g>
       <use xlink:href="#me56f6c3f94" x="109.525876" y="227.142281" style="fill-opacity: 0.239216; stroke: #6b7280; stroke-width: 0.75"/>
      </g>
     </g>
    </g>
    <g id="xtick_28">
     <g id="line2d_65">
      <g>
       <use xlink:href="#me56f6c3f94" x="131.600601" y="227.142281" style="fill-opacity: 0.239216; stroke: #6b7280; stroke-width: 0.75"/>
      </g>
     </g>
    </g>
    <g id="xtick_29">
     <g id="line2d_66">
      <g>
       <use xlink:href="#me56f6c3f94" x="153.675326" y="227.142281" style="fill-opacity: 0.239216; stroke: #6b7280; stroke-width: 0.75"/>
      </g>
     </g>
    </g>
    <g id="xtick_30">
     <g id="line2d_67">
      <g>
       <use xlink:href="#me56f6c3f94" x="197.824777" y="227.142281" style="fill-opacity: 0.239216; stroke: #6b7280; stroke-width: 0.75"/>
      </g>
     </g>
    </g>
    <g id="xtick_31">
     <g id="line2d_68">
      <g>
       <use xlink:href="#me56f6c3f94" x="219.899502" y="227.142281" style="fill-opacity: 0.239216; stroke: #6b7280; stroke-width: 0.75"/>
      </g>
     </g>
    </g>
    <g id="xtick_32">
     <g id="line2d_69">
      <g>
       <use xlink:href="#me56f6c3f94" x="241.974227" y="227.142281" style="fill-opacity: 0.239216; stroke: #6b7280; stroke-width: 0.75"/>
      </g>
     </g>
    </g>
    <g id="xtick_33">
     <g id="line2d_70">
      <g>
       <use xlink:href="#me56f6c3f94" x="264.048953" y="227.142281" style="fill-opacity: 0.239216; stroke: #6b7280; stroke-width: 0.75"/>
      </g>
     </g>
    </g>
    <g id="xtick_34">
     <g id="line2d_71">
      <g>
       <use xlink:href="#me56f6c3f94" x="286.123678" y="227.142281" style="fill-opacity: 0.239216; stroke: #6b7280; stroke-width: 0.75"/>
      </g>
     </g>
    </g>
    <g id="xtick_35">
     <g id="line2d_72">
      <g>
       <use xlink:href="#me56f6c3f94" x="330.273128" y="227.142281" style="fill-opacity: 0.239216; stroke: #6b7280; stroke-width: 0.75"/>
      </g>
     </g>
    </g>
    <g id="xtick_36">
     <g id="line2d_73">
      <g>
       <use xlink:href="#me56f6c3f94" x="352.347854" y="227.142281" style="fill-opacity: 0.239216; stroke: #6b7280; stroke-width: 0.75"/>
      </g>
     </g>
    </g>
    <g id="xtick_37">
     <g id="line2d_74">
      <g>
       <use xlink:href="#me56f6c3f94" x="374.422579" y="227.142281" style="fill-opacity: 0.239216; stroke: #6b7280; stroke-width: 0.75"/>
      </g>
     </g>
    </g>
    <g id="xtick_38">
     <g id="line2d_75">
      <g>
       <use xlink:href="#me56f6c3f94" x="396.497304" y="227.142281" style="fill-opacity: 0.239216; stroke: #6b7280; stroke-width: 0.75"/>
      </g>
     </g>
    </g>
    <g id="xtick_39">
     <g id="line2d_76">
      <g>
       <use xlink:href="#me56f6c3f94" x="418.57203" y="227.142281" style="fill-opacity: 0.239216; stroke: #6b7280; stroke-width: 0.75"/>
      </g>
     </g>
    </g>
   </g>
   <g id="matplotlib.axis_4">
    <g id="ytick_22">
     <g id="line2d_77">
      <path d="M 54.339063 227.142281 
L 456.099063 227.142281 
" clip-path="url(#pc939db1401)" style="fill: none; stroke: #eef0f3; stroke-opacity: 0.24; stroke-linecap: square"/>
     </g>
     <g id="line2d_78">
      <g>
       <use xlink:href="#m6c879fb63e" x="54.339063" y="227.142281" style="fill-opacity: 0.239216; stroke: #6b7280; stroke-width: 0.75"/>
      </g>
     </g>
     <g id="text_17">
      <!-- 0 -->
      <g style="fill: #6b7280" transform="translate(35.362813 230.561578) scale(0.09 -0.09)">
       <use xlink:href="#DejaVuSans-30"/>
      </g>
     </g>
    </g>
    <g id="ytick_23">
     <g id="line2d_79">
      <path d="M 54.339063 192.731247 
L 456.099063 192.731247 
" clip-path="url(#pc939db1401)" style="fill: none; stroke: #eef0f3; stroke-opacity: 0.24; stroke-linecap: square"/>
     </g>
     <g id="line2d_80">
      <g>
       <use xlink:href="#m6c879fb63e" x="54.339063" y="192.731247" style="fill-opacity: 0.239216; stroke: #6b7280; stroke-width: 0.75"/>
      </g>
     </g>
     <g id="text_18">
      <!-- 100 -->
      <g style="fill: #6b7280" transform="translate(23.910313 196.150544) scale(0.09 -0.09)">
       <use xlink:href="#DejaVuSans-31"/>
       <use xlink:href="#DejaVuSans-30" transform="translate(63.623047 0)"/>
       <use xlink:href="#DejaVuSans-30" transform="translate(127.246094 0)"/>
      </g>
     </g>
    </g>
    <g id="ytick_24">
     <g id="line2d_81">
      <path d="M 54.339063 158.320212 
L 456.099063 158.320212 
" clip-path="url(#pc939db1401)" style="fill: none; stroke: #eef0f3; stroke-opacity: 0.24; stroke-linecap: square"/>
     </g>
     <g id="line2d_82">
      <g>
       <use xlink:href="#m6c879fb63e" x="54.339063" y="158.320212" style="fill-opacity: 0.239216; stroke: #6b7280; stroke-width: 0.75"/>
      </g>
     </g>
     <g id="text_19">
      <!-- 200 -->
      <g style="fill: #6b7280" transform="translate(23.910313 161.739509) scale(0.09 -0.09)">
       <use xlink:href="#DejaVuSans-32"/>
       <use xlink:href="#DejaVuSans-30" transform="translate(63.623047 0)"/>
       <use xlink:href="#DejaVuSans-30" transform="translate(127.246094 0)"/>
      </g>
     </g>
    </g>
    <g id="ytick_25">
     <g id="line2d_83">
      <path d="M 54.339063 123.909178 
L 456.099063 123.909178 
" clip-path="url(#pc939db1401)" style="fill: none; stroke: #eef0f3; stroke-opacity: 0.24; stroke-linecap: square"/>
     </g>
     <g id="line2d_84">
      <g>
       <use xlink:href="#m6c879fb63e" x="54.339063" y="123.909178" style="fill-opacity: 0.239216; stroke: #6b7280; stroke-width: 0.75"/>
      </g>
     </g>
     <g id="text_20">
      <!-- 300 -->
      <g style="fill: #6b7280" transform="translate(23.910313 127.328475) scale(0.09 -0.09)">
       <defs>
        <path id="DejaVuSans-33" d="M 2597 2516 
Q 3050 2419 3304 2112 
Q 3559 1806 3559 1356 
Q 3559 666 3084 287 
Q 2609 -91 1734 -91 
Q 1441 -91 1130 -33 
Q 819 25 488 141 
L 488 750 
Q 750 597 1062 519 
Q 1375 441 1716 441 
Q 2309 441 2620 675 
Q 2931 909 2931 1356 
Q 2931 1769 2642 2001 
Q 2353 2234 1838 2234 
L 1294 2234 
L 1294 2753 
L 1863 2753 
Q 2328 2753 2575 2939 
Q 2822 3125 2822 3475 
Q 2822 3834 2567 4026 
Q 2313 4219 1838 4219 
Q 1578 4219 1281 4162 
Q 984 4106 628 3988 
L 628 4550 
Q 988 4650 1302 4700 
Q 1616 4750 1894 4750 
Q 2613 4750 3031 4423 
Q 3450 4097 3450 3541 
Q 3450 3153 3228 2886 
Q 3006 2619 2597 2516 
z
" transform="scale(0.015625)"/>
       </defs>
       <use xlink:href="#DejaVuSans-33"/>
       <use xlink:href="#DejaVuSans-30" transform="translate(63.623047 0)"/>
       <use xlink:href="#DejaVuSans-30" transform="translate(127.246094 0)"/>
      </g>
     </g>
    </g>
    <g id="ytick_26">
     <g id="line2d_85">
      <path d="M 54.339063 89.498143 
L 456.099063 89.498143 
" clip-path="url(#pc939db1401)" style="fill: none; stroke: #eef0f3; stroke-opacity: 0.24; stroke-linecap: square"/>
     </g>
     <g id="line2d_86">
      <g>
       <use xlink:href="#m6c879fb63e" x="54.339063" y="89.498143" style="fill-opacity: 0.239216; stroke: #6b7280; stroke-width: 0.75"/>
      </g>
     </g>
     <g id="text_21">
      <!-- 400 -->
      <g style="fill: #6b7280" transform="translate(23.910313 92.91744) scale(0.09 -0.09)">
       <use xlink:href="#DejaVuSans-34"/>
       <use xlink:href="#DejaVuSans-30" transform="translate(63.623047 0)"/>
       <use xlink:href="#DejaVuSans-30" transform="translate(127.246094 0)"/>
      </g>
     </g>
    </g>
    <g id="ytick_27">
     <g id="line2d_87">
      <path d="M 54.339063 55.087109 
L 456.099063 55.087109 
" clip-path="url(#pc939db1401)" style="fill: none; stroke: #eef0f3; stroke-opacity: 0.24; stroke-linecap: square"/>
     </g>
     <g id="line2d_88">
      <g>
       <use xlink:href="#m6c879fb63e" x="54.339063" y="55.087109" style="fill-opacity: 0.239216; stroke: #6b7280; stroke-width: 0.75"/>
      </g>
     </g>
     <g id="text_22">
      <!-- 500 -->
      <g style="fill: #6b7280" transform="translate(23.910313 58.506406) scale(0.09 -0.09)">
       <defs>
        <path id="DejaVuSans-35" d="M 691 4666 
L 3169 4666 
L 3169 4134 
L 1269 4134 
L 1269 2991 
Q 1406 3038 1543 3061 
Q 1681 3084 1819 3084 
Q 2600 3084 3056 2656 
Q 3513 2228 3513 1497 
Q 3513 744 3044 326 
Q 2575 -91 1722 -91 
Q 1428 -91 1123 -41 
Q 819 9 494 109 
L 494 744 
Q 775 591 1075 516 
Q 1375 441 1709 441 
Q 2250 441 2565 725 
Q 2881 1009 2881 1497 
Q 2881 1984 2565 2268 
Q 2250 2553 1709 2553 
Q 1456 2553 1204 2497 
Q 953 2441 691 2322 
L 691 4666 
z
" transform="scale(0.015625)"/>
       </defs>
       <use xlink:href="#DejaVuSans-35"/>
       <use xlink:href="#DejaVuSans-30" transform="translate(63.623047 0)"/>
       <use xlink:href="#DejaVuSans-30" transform="translate(127.246094 0)"/>
      </g>
     </g>
    </g>
    <g id="ytick_28">
     <g id="line2d_89">
      <g>
       <use xlink:href="#m05cc6b9875" x="54.339063" y="220.260074" style="fill-opacity: 0.239216; stroke: #6b7280; stroke-width: 0.75"/>
      </g>
     </g>
    </g>
    <g id="ytick_29">
     <g id="line2d_90">
      <g>
       <use xlink:href="#m05cc6b9875" x="54.339063" y="213.377867" style="fill-opacity: 0.239216; stroke: #6b7280; stroke-width: 0.75"/>
      </g>
     </g>
    </g>
    <g id="ytick_30">
     <g id="line2d_91">
      <g>
       <use xlink:href="#m05cc6b9875" x="54.339063" y="206.495661" style="fill-opacity: 0.239216; stroke: #6b7280; stroke-width: 0.75"/>
      </g>
     </g>
    </g>
    <g id="ytick_31">
     <g id="line2d_92">
      <g>
       <use xlink:href="#m05cc6b9875" x="54.339063" y="199.613454" style="fill-opacity: 0.239216; stroke: #6b7280; stroke-width: 0.75"/>
      </g>
     </g>
    </g>
    <g id="ytick_32">
     <g id="line2d_93">
      <g>
       <use xlink:href="#m05cc6b9875" x="54.339063" y="185.84904" style="fill-opacity: 0.239216; stroke: #6b7280; stroke-width: 0.75"/>
      </g>
     </g>
    </g>
    <g id="ytick_33">
     <g id="line2d_94">
      <g>
       <use xlink:href="#m05cc6b9875" x="54.339063" y="178.966833" style="fill-opacity: 0.239216; stroke: #6b7280; stroke-width: 0.75"/>
      </g>
     </g>
    </g>
    <g id="ytick_34">
     <g id="line2d_95">
      <g>
       <use xlink:href="#m05cc6b9875" x="54.339063" y="172.084626" style="fill-opacity: 0.239216; stroke: #6b7280; stroke-width: 0.75"/>
      </g>
     </g>
    </g>
    <g id="ytick_35">
     <g id="line2d_96">
      <g>
       <use xlink:href="#m05cc6b9875" x="54.339063" y="165.202419" style="fill-opacity: 0.239216; stroke: #6b7280; stroke-width: 0.75"/>
      </g>
     </g>
    </g>
    <g id="ytick_36">
     <g id="line2d_97">
      <g>
       <use xlink:href="#m05cc6b9875" x="54.339063" y="151.438005" style="fill-opacity: 0.239216; stroke: #6b7280; stroke-width: 0.75"/>
      </g>
     </g>
    </g>
    <g id="ytick_37">
     <g id="line2d_98">
      <g>
       <use xlink:href="#m05cc6b9875" x="54.339063" y="144.555798" style="fill-opacity: 0.239216; stroke: #6b7280; stroke-width: 0.75"/>
      </g>
     </g>
    </g>
    <g id="ytick_38">
     <g id="line2d_99">
      <g>
       <use xlink:href="#m05cc6b9875" x="54.339063" y="137.673592" style="fill-opacity: 0.239216; stroke: #6b7280; stroke-width: 0.75"/>
      </g>
     </g>
    </g>
    <g id="ytick_39">
     <g id="line2d_100">
      <g>
       <use xlink:href="#m05cc6b9875" x="54.339063" y="130.791385" style="fill-opacity: 0.239216; stroke: #6b7280; stroke-width: 0.75"/>
      </g>
     </g>
    </g>
    <g id="ytick_40">
     <g id="line2d_101">
      <g>
       <use xlink:href="#m05cc6b9875" x="54.339063" y="117.026971" style="fill-opacity: 0.239216; stroke: #6b7280; stroke-width: 0.75"/>
      </g>
     </g>
    </g>
    <g id="ytick_41">
     <g id="line2d_102">
      <g>
       <use xlink:href="#m05cc6b9875" x="54.339063" y="110.144764" style="fill-opacity: 0.239216; stroke: #6b7280; stroke-width: 0.75"/>
      </g>
     </g>
    </g>
    <g id="ytick_42">
     <g id="line2d_103">
      <g>
       <use xlink:href="#m05cc6b9875" x="54.339063" y="103.262557" style="fill-opacity: 0.239216; stroke: #6b7280; stroke-width: 0.75"/>
      </g>
     </g>
    </g>
    <g id="ytick_43">
     <g id="line2d_104">
      <g>
       <use xlink:href="#m05cc6b9875" x="54.339063" y="96.38035" style="fill-opacity: 0.239216; stroke: #6b7280; stroke-width: 0.75"/>
      </g>
     </g>
    </g>
    <g id="ytick_44">
     <g id="line2d_105">
      <g>
       <use xlink:href="#m05cc6b9875" x="54.339063" y="82.615936" style="fill-opacity: 0.239216; stroke: #6b7280; stroke-width: 0.75"/>
      </g>
     </g>
    </g>
    <g id="ytick_45">
     <g id="line2d_106">
      <g>
       <use xlink:href="#m05cc6b9875" x="54.339063" y="75.73373" style="fill-opacity: 0.239216; stroke: #6b7280; stroke-width: 0.75"/>
      </g>
     </g>
    </g>
    <g id="ytick_46">
     <g id="line2d_107">
      <g>
       <use xlink:href="#m05cc6b9875" x="54.339063" y="68.851523" style="fill-opacity: 0.239216; stroke: #6b7280; stroke-width: 0.75"/>
      </g>
     </g>
    </g>
    <g id="ytick_47">
     <g id="line2d_108">
      <g>
       <use xlink:href="#m05cc6b9875" x="54.339063" y="61.969316" style="fill-opacity: 0.239216; stroke: #6b7280; stroke-width: 0.75"/>
      </g>
     </g>
    </g>
    <g id="ytick_48">
     <g id="line2d_109">
      <g>
       <use xlink:href="#m05cc6b9875" x="54.339063" y="48.204902" style="fill-opacity: 0.239216; stroke: #6b7280; stroke-width: 0.75"/>
      </g>
     </g>
    </g>
    <g id="ytick_49">
     <g id="line2d_110">
      <g>
       <use xlink:href="#m05cc6b9875" x="54.339063" y="41.322695" style="fill-opacity: 0.239216; stroke: #6b7280; stroke-width: 0.75"/>
      </g>
     </g>
    </g>
    <g id="ytick_50">
     <g id="line2d_111">
      <g>
       <use xlink:href="#m05cc6b9875" x="54.339063" y="34.440488" style="fill-opacity: 0.239216; stroke: #6b7280; stroke-width: 0.75"/>
      </g>
     </g>
    </g>
    <g id="ytick_51">
     <g id="line2d_112">
      <g>
       <use xlink:href="#m05cc6b9875" x="54.339063" y="27.558281" style="fill-opacity: 0.239216; stroke: #6b7280; stroke-width: 0.75"/>
      </g>
     </g>
    </g>
    <g id="text_23">
     <!-- Run-rate ARR ($K) -->
     <g style="fill: #6b7280" transform="translate(14.038594 168.260203) rotate(-90) scale(0.09 -0.09)">
      <defs>
       <path id="DejaVuSans-52" d="M 2841 2188 
Q 3044 2119 3236 1894 
Q 3428 1669 3622 1275 
L 4263 0 
L 3584 0 
L 2988 1197 
Q 2756 1666 2539 1819 
Q 2322 1972 1947 1972 
L 1259 1972 
L 1259 0 
L 628 0 
L 628 4666 
L 2053 4666 
Q 2853 4666 3247 4331 
Q 3641 3997 3641 3322 
Q 3641 2881 3436 2590 
Q 3231 2300 2841 2188 
z
M 1259 4147 
L 1259 2491 
L 2053 2491 
Q 2509 2491 2742 2702 
Q 2975 2913 2975 3322 
Q 2975 3731 2742 3939 
Q 2509 4147 2053 4147 
L 1259 4147 
z
" transform="scale(0.015625)"/>
       <path id="DejaVuSans-75" d="M 544 1381 
L 544 3500 
L 1119 3500 
L 1119 1403 
Q 1119 906 1312 657 
Q 1506 409 1894 409 
Q 2359 409 2629 706 
Q 2900 1003 2900 1516 
L 2900 3500 
L 3475 3500 
L 3475 0 
L 2900 0 
L 2900 538 
Q 2691 219 2414 64 
Q 2138 -91 1772 -91 
Q 1169 -91 856 284 
Q 544 659 544 1381 
z
M 1991 3584 
L 1991 3584 
z
" transform="scale(0.015625)"/>
       <path id="DejaVuSans-6e" d="M 3513 2113 
L 3513 0 
L 2938 0 
L 2938 2094 
Q 2938 2591 2744 2837 
Q 2550 3084 2163 3084 
Q 1697 3084 1428 2787 
Q 1159 2491 1159 1978 
L 1159 0 
L 581 0 
L 581 3500 
L 1159 3500 
L 1159 2956 
Q 1366 3272 1645 3428 
Q 1925 3584 2291 3584 
Q 2894 3584 3203 3211 
Q 3513 2838 3513 2113 
z
" transform="scale(0.015625)"/>
       <path id="DejaVuSans-2d" d="M 313 2009 
L 1997 2009 
L 1997 1497 
L 313 1497 
L 313 2009 
z
" transform="scale(0.015625)"/>
       <path id="DejaVuSans-72" d="M 2631 2963 
Q 2534 3019 2420 3045 
Q 2306 3072 2169 3072 
Q 1681 3072 1420 2755 
Q 1159 2438 1159 1844 
L 1159 0 
L 581 0 
L 581 3500 
L 1159 3500 
L 1159 2956 
Q 1341 3275 1631 3429 
Q 1922 3584 2338 3584 
Q 2397 3584 2469 3576 
Q 2541 3569 2628 3553 
L 2631 2963 
z
" transform="scale(0.015625)"/>
       <path id="DejaVuSans-61" d="M 2194 1759 
Q 1497 1759 1228 1600 
Q 959 1441 959 1056 
Q 959 750 1161 570 
Q 1363 391 1709 391 
Q 2188 391 2477 730 
Q 2766 1069 2766 1631 
L 2766 1759 
L 2194 1759 
z
M 3341 1997 
L 3341 0 
L 2766 0 
L 2766 531 
Q 2569 213 2275 61 
Q 1981 -91 1556 -91 
Q 1019 -91 701 211 
Q 384 513 384 1019 
Q 384 1609 779 1909 
Q 1175 2209 1959 2209 
L 2766 2209 
L 2766 2266 
Q 2766 2663 2505 2880 
Q 2244 3097 1772 3097 
Q 1472 3097 1187 3025 
Q 903 2953 641 2809 
L 641 3341 
Q 956 3463 1253 3523 
Q 1550 3584 1831 3584 
Q 2591 3584 2966 3190 
Q 3341 2797 3341 1997 
z
" transform="scale(0.015625)"/>
       <path id="DejaVuSans-74" d="M 1172 4494 
L 1172 3500 
L 2356 3500 
L 2356 3053 
L 1172 3053 
L 1172 1153 
Q 1172 725 1289 603 
Q 1406 481 1766 481 
L 2356 481 
L 2356 0 
L 1766 0 
Q 1100 0 847 248 
Q 594 497 594 1153 
L 594 3053 
L 172 3053 
L 172 3500 
L 594 3500 
L 594 4494 
L 1172 4494 
z
" transform="scale(0.015625)"/>
       <path id="DejaVuSans-65" d="M 3597 1894 
L 3597 1613 
L 953 1613 
Q 991 1019 1311 708 
Q 1631 397 2203 397 
Q 2534 397 2845 478 
Q 3156 559 3463 722 
L 3463 178 
Q 3153 47 2828 -22 
Q 2503 -91 2169 -91 
Q 1331 -91 842 396 
Q 353 884 353 1716 
Q 353 2575 817 3079 
Q 1281 3584 2069 3584 
Q 2775 3584 3186 3129 
Q 3597 2675 3597 1894 
z
M 3022 2063 
Q 3016 2534 2758 2815 
Q 2500 3097 2075 3097 
Q 1594 3097 1305 2825 
Q 1016 2553 972 2059 
L 3022 2063 
z
" transform="scale(0.015625)"/>
       <path id="DejaVuSans-20" transform="scale(0.015625)"/>
       <path id="DejaVuSans-41" d="M 2188 4044 
L 1331 1722 
L 3047 1722 
L 2188 4044 
z
M 1831 4666 
L 2547 4666 
L 4325 0 
L 3669 0 
L 3244 1197 
L 1141 1197 
L 716 0 
L 50 0 
L 1831 4666 
z
" transform="scale(0.015625)"/>
       <path id="DejaVuSans-28" d="M 1984 4856 
Q 1566 4138 1362 3434 
Q 1159 2731 1159 2009 
Q 1159 1288 1364 580 
Q 1569 -128 1984 -844 
L 1484 -844 
Q 1016 -109 783 600 
Q 550 1309 550 2009 
Q 550 2706 781 3412 
Q 1013 4119 1484 4856 
L 1984 4856 
z
" transform="scale(0.015625)"/>
       <path id="DejaVuSans-24" d="M 2163 -941 
L 1850 -941 
L 1847 0 
Q 1519 6 1191 76 
Q 863 147 531 288 
L 531 850 
Q 850 650 1176 548 
Q 1503 447 1850 444 
L 1850 1869 
Q 1159 1981 845 2250 
Q 531 2519 531 2988 
Q 531 3497 872 3790 
Q 1213 4084 1850 4128 
L 1850 4863 
L 2163 4863 
L 2163 4138 
Q 2453 4125 2725 4076 
Q 2997 4028 3256 3944 
L 3256 3397 
Q 2997 3528 2723 3600 
Q 2450 3672 2163 3684 
L 2163 2350 
Q 2872 2241 3206 1959 
Q 3541 1678 3541 1191 
Q 3541 663 3186 358 
Q 2831 53 2163 6 
L 2163 -941 
z
M 1850 2406 
L 1850 3688 
Q 1488 3647 1297 3481 
Q 1106 3316 1106 3041 
Q 1106 2772 1282 2622 
Q 1459 2472 1850 2406 
z
M 2163 1806 
L 2163 453 
Q 2559 506 2761 678 
Q 2963 850 2963 1131 
Q 2963 1406 2770 1568 
Q 2578 1731 2163 1806 
z
" transform="scale(0.015625)"/>
       <path id="DejaVuSans-4b" d="M 628 4666 
L 1259 4666 
L 1259 2694 
L 3353 4666 
L 4166 4666 
L 1850 2491 
L 4331 0 
L 3500 0 
L 1259 2247 
L 1259 0 
L 628 0 
L 628 4666 
z
" transform="scale(0.015625)"/>
       <path id="DejaVuSans-29" d="M 513 4856 
L 1013 4856 
Q 1481 4119 1714 3412 
Q 1947 2706 1947 2009 
Q 1947 1309 1714 600 
Q 1481 -109 1013 -844 
L 513 -844 
Q 928 -128 1133 580 
Q 1338 1288 1338 2009 
Q 1338 2731 1133 3434 
Q 928 4138 513 4856 
z
" transform="scale(0.015625)"/>
      </defs>
      <use xlink:href="#DejaVuSans-52"/>
      <use xlink:href="#DejaVuSans-75" transform="translate(64.982422 0)"/>
      <use xlink:href="#DejaVuSans-6e" transform="translate(128.361328 0)"/>
      <use xlink:href="#DejaVuSans-2d" transform="translate(191.740234 0)"/>
      <use xlink:href="#DejaVuSans-72" transform="translate(227.824219 0)"/>
      <use xlink:href="#DejaVuSans-61" transform="translate(268.9375 0)"/>
      <use xlink:href="#DejaVuSans-74" transform="translate(330.216797 0)"/>
      <use xlink:href="#DejaVuSans-65" transform="translate(369.425781 0)"/>
      <use xlink:href="#DejaVuSans-20" transform="translate(430.949219 0)"/>
      <use xlink:href="#DejaVuSans-41" transform="translate(462.736328 0)"/>
      <use xlink:href="#DejaVuSans-52" transform="translate(531.144531 0)"/>
      <use xlink:href="#DejaVuSans-52" transform="translate(600.626953 0)"/>
      <use xlink:href="#DejaVuSans-20" transform="translate(670.109375 0)"/>
      <use xlink:href="#DejaVuSans-28" transform="translate(701.896484 0)"/>
      <use xlink:href="#DejaVuSans-24" transform="translate(740.910156 0)"/>
      <use xlink:href="#DejaVuSans-4b" transform="translate(804.533203 0)"/>
      <use xlink:href="#DejaVuSans-29" transform="translate(870.109375 0)"/>
     </g>
    </g>
   </g>
   <g id="FillBetweenPolyCollection_1">
    <defs>
     <path id="mf4e109ad8a" d="M 65.376425 -29.160312 
L 65.376425 -29.160312 
L 109.525876 -34.321968 
L 175.750052 -44.645278 
L 241.974227 -67.01245 
L 308.198403 -96.26183 
L 374.422579 -139.275623 
L 440.646755 -190.892175 
L 440.646755 -29.160312 
L 440.646755 -29.160312 
L 374.422579 -29.160312 
L 308.198403 -29.160312 
L 241.974227 -29.160312 
L 175.750052 -29.160312 
L 109.525876 -29.160312 
L 65.376425 -29.160312 
z
" style="stroke: #ff6b35; stroke-opacity: 0.12"/>
    </defs>
    <g clip-path="url(#pc939db1401)">
     <use xlink:href="#mf4e109ad8a" x="0" y="256.302594" style="fill: #ff6b35; fill-opacity: 0.12; stroke: #ff6b35; stroke-opacity: 0.12"/>
    </g>
   </g>
   <g id="patch_8">
    <path d="M 58.754008 227.142281 
L 182.372469 227.142281 
L 182.372469 27.558281 
L 58.754008 27.558281 
z
" clip-path="url(#pc939db1401)" style="fill: #ffa45b; opacity: 0.05; stroke: #ffa45b; stroke-linejoin: miter"/>
   </g>
   <g id="patch_9">
    <path d="M 191.202359 227.142281 
L 314.820821 227.142281 
L 314.820821 27.558281 
L 191.202359 27.558281 
z
" clip-path="url(#pc939db1401)" style="fill: #ff8c42; opacity: 0.05; stroke: #ff8c42; stroke-linejoin: miter"/>
   </g>
   <g id="patch_10">
    <path d="M 323.650711 227.142281 
L 447.269172 227.142281 
L 447.269172 27.558281 
L 323.650711 27.558281 
z
" clip-path="url(#pc939db1401)" style="fill: #ff6b35; opacity: 0.05; stroke: #ff6b35; stroke-linejoin: miter"/>
   </g>
   <g id="line2d_113">
    <path d="M 65.376425 227.142281 
L 109.525876 221.980626 
L 175.750052 211.657316 
L 241.974227 189.290143 
L 308.198403 160.040764 
L 374.422579 117.026971 
L 440.646755 65.410419 
" clip-path="url(#pc939db1401)" style="fill: none; stroke: #ff6b35; stroke-width: 2.5; stroke-linecap: square"/>
    <defs>
     <path id="m1642f3c4ed" d="M 0 3 
C 0.795609 3 1.55874 2.683901 2.12132 2.12132 
C 2.683901 1.55874 3 0.795609 3 0 
C 3 -0.795609 2.683901 -1.55874 2.12132 -2.12132 
C 1.55874 -2.683901 0.795609 -3 0 -3 
C -0.795609 -3 -1.55874 -2.683901 -2.12132 -2.12132 
C -2.683901 -1.55874 -3 -0.795609 -3 0 
C -3 0.795609 -2.683901 1.55874 -2.12132 2.12132 
C -1.55874 2.683901 -0.795609 3 0 3 
z
" style="stroke: #ff6b35; stroke-width: 2"/>
    </defs>
    <g clip-path="url(#pc939db1401)">
     <use xlink:href="#m1642f3c4ed" x="65.376425" y="227.142281" style="fill: #ffffff; stroke: #ff6b35; stroke-width: 2"/>
     <use xlink:href="#m1642f3c4ed" x="109.525876" y="221.980626" style="fill: #ffffff; stroke: #ff6b35; stroke-width: 2"/>
     <use xlink:href="#m1642f3c4ed" x="175.750052" y="211.657316" style="fill: #ffffff; stroke: #ff6b35; stroke-width: 2"/>
     <use xlink:href="#m1642f3c4ed" x="241.974227" y="189.290143" style="fill: #ffffff; stroke: #ff6b35; stroke-width: 2"/>
     <use xlink:href="#m1642f3c4ed" x="308.198403" y="160.040764" style="fill: #ffffff; stroke: #ff6b35; stroke-width: 2"/>
     <use xlink:href="#m1642f3c4ed" x="374.422579" y="117.026971" style="fill: #ffffff; stroke: #ff6b35; stroke-width: 2"/>
     <use xlink:href="#m1642f3c4ed" x="440.646755" y="65.410419" style="fill: #ffffff; stroke: #ff6b35; stroke-width: 2"/>
    </g>
   </g>
   <g id="patch_11">
    <path d="M 54.339063 227.142281 
L 54.339063 27.558281 
" style="fill: none; stroke: #e5e7eb; stroke-linejoin: miter; stroke-linecap: square"/>
   </g>
   <g id="patch_12">
    <path d="M 54.339062 227.142281 
L 456.099062 227.142281 
" style="fill: none; stroke: #e5e7eb; stroke-linejoin: miter; stroke-linecap: square"/>
   </g>
   <g id="text_24">
    <!-- Phase 1 · Seoul Design Partners -->
    <g style="fill: #1f2933" transform="translate(43.830816 51.646005) scale(0.085 -0.085)">
     <defs>
      <path id="DejaVuSans-Bold-50" d="M 588 4666 
L 2584 4666 
Q 3475 4666 3951 4270 
Q 4428 3875 4428 3144 
Q 4428 2409 3951 2014 
Q 3475 1619 2584 1619 
L 1791 1619 
L 1791 0 
L 588 0 
L 588 4666 
z
M 1791 3794 
L 1791 2491 
L 2456 2491 
Q 2806 2491 2997 2661 
Q 3188 2831 3188 3144 
Q 3188 3456 2997 3625 
Q 2806 3794 2456 3794 
L 1791 3794 
z
" transform="scale(0.015625)"/>
      <path id="DejaVuSans-Bold-68" d="M 4056 2131 
L 4056 0 
L 2931 0 
L 2931 347 
L 2931 1625 
Q 2931 2084 2911 2256 
Q 2891 2428 2841 2509 
Q 2775 2619 2662 2680 
Q 2550 2741 2406 2741 
Q 2056 2741 1856 2470 
Q 1656 2200 1656 1722 
L 1656 0 
L 538 0 
L 538 4863 
L 1656 4863 
L 1656 2988 
Q 1909 3294 2193 3439 
Q 2478 3584 2822 3584 
Q 3428 3584 3742 3212 
Q 4056 2841 4056 2131 
z
" transform="scale(0.015625)"/>
      <path id="DejaVuSans-Bold-61" d="M 2106 1575 
Q 1756 1575 1579 1456 
Q 1403 1338 1403 1106 
Q 1403 894 1545 773 
Q 1688 653 1941 653 
Q 2256 653 2472 879 
Q 2688 1106 2688 1447 
L 2688 1575 
L 2106 1575 
z
M 3816 1997 
L 3816 0 
L 2688 0 
L 2688 519 
Q 2463 200 2181 54 
Q 1900 -91 1497 -91 
Q 953 -91 614 226 
Q 275 544 275 1050 
Q 275 1666 698 1953 
Q 1122 2241 2028 2241 
L 2688 2241 
L 2688 2328 
Q 2688 2594 2478 2717 
Q 2269 2841 1825 2841 
Q 1466 2841 1156 2769 
Q 847 2697 581 2553 
L 581 3406 
Q 941 3494 1303 3539 
Q 1666 3584 2028 3584 
Q 2975 3584 3395 3211 
Q 3816 2838 3816 1997 
z
" transform="scale(0.015625)"/>
      <path id="DejaVuSans-Bold-73" d="M 3272 3391 
L 3272 2541 
Q 2913 2691 2578 2766 
Q 2244 2841 1947 2841 
Q 1628 2841 1473 2761 
Q 1319 2681 1319 2516 
Q 1319 2381 1436 2309 
Q 1553 2238 1856 2203 
L 2053 2175 
Q 2913 2066 3209 1816 
Q 3506 1566 3506 1031 
Q 3506 472 3093 190 
Q 2681 -91 1863 -91 
Q 1516 -91 1145 -36 
Q 775 19 384 128 
L 384 978 
Q 719 816 1070 734 
Q 1422 653 1784 653 
Q 2113 653 2278 743 
Q 2444 834 2444 1013 
Q 2444 1163 2330 1236 
Q 2216 1309 1875 1350 
L 1678 1375 
Q 931 1469 631 1722 
Q 331 1975 331 2491 
Q 331 3047 712 3315 
Q 1094 3584 1881 3584 
Q 2191 3584 2531 3537 
Q 2872 3491 3272 3391 
z
" transform="scale(0.015625)"/>
      <path id="DejaVuSans-Bold-65" d="M 4031 1759 
L 4031 1441 
L 1416 1441 
Q 1456 1047 1700 850 
Q 1944 653 2381 653 
Q 2734 653 3104 758 
Q 3475 863 3866 1075 
L 3866 213 
Q 3469 63 3072 -14 
Q 2675 -91 2278 -91 
Q 1328 -91 801 392 
Q 275 875 275 1747 
Q 275 2603 792 3093 
Q 1309 3584 2216 3584 
Q 3041 3584 3536 3087 
Q 4031 2591 4031 1759 
z
M 2881 2131 
Q 2881 2450 2695 2645 
Q 2509 2841 2209 2841 
Q 1884 2841 1681 2658 
Q 1478 2475 1428 2131 
L 2881 2131 
z
" transform="scale(0.015625)"/>
      <path id="DejaVuSans-Bold-20" transform="scale(0.015625)"/>
      <path id="DejaVuSans-Bold-31" d="M 750 831 
L 1813 831 
L 1813 3847 
L 722 3622 
L 722 4441 
L 1806 4666 
L 2950 4666 
L 2950 831 
L 4013 831 
L 4013 0 
L 750 0 
L 750 831 
z
" transform="scale(0.015625)"/>
      <path id="DejaVuSans-Bold-b7" d="M 653 2828 
L 1778 2828 
L 1778 1619 
L 653 1619 
L 653 2828 
z
" transform="scale(0.015625)"/>
      <path id="DejaVuSans-Bold-53" d="M 3834 4519 
L 3834 3531 
Q 3450 3703 3084 3790 
Q 2719 3878 2394 3878 
Q 1963 3878 1756 3759 
Q 1550 3641 1550 3391 
Q 1550 3203 1689 3098 
Q 1828 2994 2194 2919 
L 2706 2816 
Q 3484 2659 3812 2340 
Q 4141 2022 4141 1434 
Q 4141 663 3683 286 
Q 3225 -91 2284 -91 
Q 1841 -91 1394 -6 
Q 947 78 500 244 
L 500 1259 
Q 947 1022 1364 901 
Q 1781 781 2169 781 
Q 2563 781 2772 912 
Q 2981 1044 2981 1288 
Q 2981 1506 2839 1625 
Q 2697 1744 2272 1838 
L 1806 1941 
Q 1106 2091 782 2419 
Q 459 2747 459 3303 
Q 459 4000 909 4375 
Q 1359 4750 2203 4750 
Q 2588 4750 2994 4692 
Q 3400 4634 3834 4519 
z
" transform="scale(0.015625)"/>
      <path id="DejaVuSans-Bold-6f" d="M 2203 2784 
Q 1831 2784 1636 2517 
Q 1441 2250 1441 1747 
Q 1441 1244 1636 976 
Q 1831 709 2203 709 
Q 2569 709 2762 976 
Q 2956 1244 2956 1747 
Q 2956 2250 2762 2517 
Q 2569 2784 2203 2784 
z
M 2203 3584 
Q 3106 3584 3614 3096 
Q 4122 2609 4122 1747 
Q 4122 884 3614 396 
Q 3106 -91 2203 -91 
Q 1297 -91 786 396 
Q 275 884 275 1747 
Q 275 2609 786 3096 
Q 1297 3584 2203 3584 
z
" transform="scale(0.015625)"/>
      <path id="DejaVuSans-Bold-75" d="M 500 1363 
L 500 3500 
L 1625 3500 
L 1625 3150 
Q 1625 2866 1622 2436 
Q 1619 2006 1619 1863 
Q 1619 1441 1641 1255 
Q 1663 1069 1716 984 
Q 1784 875 1895 815 
Q 2006 756 2150 756 
Q 2500 756 2700 1025 
Q 2900 1294 2900 1772 
L 2900 3500 
L 4019 3500 
L 4019 0 
L 2900 0 
L 2900 506 
Q 2647 200 2364 54 
Q 2081 -91 1741 -91 
Q 1134 -91 817 281 
Q 500 653 500 1363 
z
" transform="scale(0.015625)"/>
      <path id="DejaVuSans-Bold-6c" d="M 538 4863 
L 1656 4863 
L 1656 0 
L 538 0 
L 538 4863 
z
" transform="scale(0.015625)"/>
      <path id="DejaVuSans-Bold-44" d="M 1791 3756 
L 1791 909 
L 2222 909 
Q 2959 909 3348 1275 
Q 3738 1641 3738 2338 
Q 3738 3031 3350 3393 
Q 2963 3756 2222 3756 
L 1791 3756 
z
M 588 4666 
L 1856 4666 
Q 2919 4666 3439 4514 
Q 3959 4363 4331 4000 
Q 4659 3684 4818 3271 
Q 4978 2859 4978 2338 
Q 4978 1809 4818 1395 
Q 4659 981 4331 666 
Q 3956 303 3431 151 
Q 2906 0 1856 0 
L 588 0 
L 588 4666 
z
" transform="scale(0.015625)"/>
      <path id="DejaVuSans-Bold-69" d="M 538 3500 
L 1656 3500 
L 1656 0 
L 538 0 
L 538 3500 
z
M 538 4863 
L 1656 4863 
L 1656 3950 
L 538 3950 
L 538 4863 
z
" transform="scale(0.015625)"/>
      <path id="DejaVuSans-Bold-67" d="M 2919 594 
Q 2688 288 2409 144 
Q 2131 0 1766 0 
Q 1125 0 706 504 
Q 288 1009 288 1791 
Q 288 2575 706 3076 
Q 1125 3578 1766 3578 
Q 2131 3578 2409 3434 
Q 2688 3291 2919 2981 
L 2919 3500 
L 4044 3500 
L 4044 353 
Q 4044 -491 3511 -936 
Q 2978 -1381 1966 -1381 
Q 1638 -1381 1331 -1331 
Q 1025 -1281 716 -1178 
L 716 -306 
Q 1009 -475 1290 -558 
Q 1572 -641 1856 -641 
Q 2406 -641 2662 -400 
Q 2919 -159 2919 353 
L 2919 594 
z
M 2181 2772 
Q 1834 2772 1640 2515 
Q 1447 2259 1447 1791 
Q 1447 1309 1634 1061 
Q 1822 813 2181 813 
Q 2531 813 2725 1069 
Q 2919 1325 2919 1791 
Q 2919 2259 2725 2515 
Q 2531 2772 2181 2772 
z
" transform="scale(0.015625)"/>
      <path id="DejaVuSans-Bold-6e" d="M 4056 2131 
L 4056 0 
L 2931 0 
L 2931 347 
L 2931 1631 
Q 2931 2084 2911 2256 
Q 2891 2428 2841 2509 
Q 2775 2619 2662 2680 
Q 2550 2741 2406 2741 
Q 2056 2741 1856 2470 
Q 1656 2200 1656 1722 
L 1656 0 
L 538 0 
L 538 3500 
L 1656 3500 
L 1656 2988 
Q 1909 3294 2193 3439 
Q 2478 3584 2822 3584 
Q 3428 3584 3742 3212 
Q 4056 2841 4056 2131 
z
" transform="scale(0.015625)"/>
      <path id="DejaVuSans-Bold-72" d="M 3138 2547 
Q 2991 2616 2845 2648 
Q 2700 2681 2553 2681 
Q 2122 2681 1889 2404 
Q 1656 2128 1656 1613 
L 1656 0 
L 538 0 
L 538 3500 
L 1656 3500 
L 1656 2925 
Q 1872 3269 2151 3426 
Q 2431 3584 2822 3584 
Q 2878 3584 2943 3579 
Q 3009 3575 3134 3559 
L 3138 2547 
z
" transform="scale(0.015625)"/>
      <path id="DejaVuSans-Bold-74" d="M 1759 4494 
L 1759 3500 
L 2913 3500 
L 2913 2700 
L 1759 2700 
L 1759 1216 
Q 1759 972 1856 886 
Q 1953 800 2241 800 
L 2816 800 
L 2816 0 
L 1856 0 
Q 1194 0 917 276 
Q 641 553 641 1216 
L 641 2700 
L 84 2700 
L 84 3500 
L 641 3500 
L 641 4494 
L 1759 4494 
z
" transform="scale(0.015625)"/>
     </defs>
     <use xlink:href="#DejaVuSans-Bold-50"/>
     <use xlink:href="#DejaVuSans-Bold-68" transform="translate(73.291016 0)"/>
     <use xlink:href="#DejaVuSans-Bold-61" transform="translate(144.482422 0)"/>
     <use xlink:href="#DejaVuSans-Bold-73" transform="translate(211.962891 0)"/>
     <use xlink:href="#DejaVuSans-Bold-65" transform="translate(271.484375 0)"/>
     <use xlink:href="#DejaVuSans-Bold-20" transform="translate(339.306641 0)"/>
     <use xlink:href="#DejaVuSans-Bold-31" transform="translate(374.121094 0)"/>
     <use xlink:href="#DejaVuSans-Bold-20" transform="translate(443.701172 0)"/>
     <use xlink:href="#DejaVuSans-Bold-b7" transform="translate(478.515625 0)"/>
     <use xlink:href="#DejaVuSans-Bold-20" transform="translate(516.503906 0)"/>
     <use xlink:href="#DejaVuSans-Bold-53" transform="translate(551.318359 0)"/>
     <use xlink:href="#DejaVuSans-Bold-65" transform="translate(623.339844 0)"/>
     <use xlink:href="#DejaVuSans-Bold-6f" transform="translate(691.162109 0)"/>
     <use xlink:href="#DejaVuSans-Bold-75" transform="translate(759.863281 0)"/>
     <use xlink:href="#DejaVuSans-Bold-6c" transform="translate(831.054688 0)"/>
     <use xlink:href="#DejaVuSans-Bold-20" transform="translate(865.332031 0)"/>
     <use xlink:href="#DejaVuSans-Bold-44" transform="translate(900.146484 0)"/>
     <use xlink:href="#DejaVuSans-Bold-65" transform="translate(983.154297 0)"/>
     <use xlink:href="#DejaVuSans-Bold-73" transform="translate(1050.976562 0)"/>
     <use xlink:href="#DejaVuSans-Bold-69" transform="translate(1110.498047 0)"/>
     <use xlink:href="#DejaVuSans-Bold-67" transform="translate(1144.775391 0)"/>
     <use xlink:href="#DejaVuSans-Bold-6e" transform="translate(1216.357422 0)"/>
     <use xlink:href="#DejaVuSans-Bold-20" transform="translate(1287.548828 0)"/>
     <use xlink:href="#DejaVuSans-Bold-50" transform="translate(1322.363281 0)"/>
     <use xlink:href="#DejaVuSans-Bold-61" transform="translate(1393.029297 0)"/>
     <use xlink:href="#DejaVuSans-Bold-72" transform="translate(1460.509766 0)"/>
     <use xlink:href="#DejaVuSans-Bold-74" transform="translate(1509.826172 0)"/>
     <use xlink:href="#DejaVuSans-Bold-6e" transform="translate(1557.628906 0)"/>
     <use xlink:href="#DejaVuSans-Bold-65" transform="translate(1628.820312 0)"/>
     <use xlink:href="#DejaVuSans-Bold-72" transform="translate(1696.642578 0)"/>
     <use xlink:href="#DejaVuSans-Bold-73" transform="translate(1745.958984 0)"/>
    </g>
   </g>
   <g id="text_25">
    <!-- Phase 2 · Agency Integration -->
    <g style="fill: #1f2933" transform="translate(183.611746 51.646005) scale(0.085 -0.085)">
     <defs>
      <path id="DejaVuSans-Bold-32" d="M 1844 884 
L 3897 884 
L 3897 0 
L 506 0 
L 506 884 
L 2209 2388 
Q 2438 2594 2547 2791 
Q 2656 2988 2656 3200 
Q 2656 3528 2436 3728 
Q 2216 3928 1850 3928 
Q 1569 3928 1234 3808 
Q 900 3688 519 3450 
L 519 4475 
Q 925 4609 1322 4679 
Q 1719 4750 2100 4750 
Q 2938 4750 3402 4381 
Q 3866 4013 3866 3353 
Q 3866 2972 3669 2642 
Q 3472 2313 2841 1759 
L 1844 884 
z
" transform="scale(0.015625)"/>
      <path id="DejaVuSans-Bold-41" d="M 3419 850 
L 1538 850 
L 1241 0 
L 31 0 
L 1759 4666 
L 3194 4666 
L 4922 0 
L 3713 0 
L 3419 850 
z
M 1838 1716 
L 3116 1716 
L 2478 3572 
L 1838 1716 
z
" transform="scale(0.015625)"/>
      <path id="DejaVuSans-Bold-63" d="M 3366 3391 
L 3366 2478 
Q 3138 2634 2908 2709 
Q 2678 2784 2431 2784 
Q 1963 2784 1702 2511 
Q 1441 2238 1441 1747 
Q 1441 1256 1702 982 
Q 1963 709 2431 709 
Q 2694 709 2930 787 
Q 3166 866 3366 1019 
L 3366 103 
Q 3103 6 2833 -42 
Q 2563 -91 2291 -91 
Q 1344 -91 809 395 
Q 275 881 275 1747 
Q 275 2613 809 3098 
Q 1344 3584 2291 3584 
Q 2566 3584 2833 3536 
Q 3100 3488 3366 3391 
z
" transform="scale(0.015625)"/>
      <path id="DejaVuSans-Bold-79" d="M 78 3500 
L 1197 3500 
L 2138 1125 
L 2938 3500 
L 4056 3500 
L 2584 -331 
Q 2363 -916 2067 -1148 
Q 1772 -1381 1288 -1381 
L 641 -1381 
L 641 -647 
L 991 -647 
Q 1275 -647 1404 -556 
Q 1534 -466 1606 -231 
L 1638 -134 
L 78 3500 
z
" transform="scale(0.015625)"/>
      <path id="DejaVuSans-Bold-49" d="M 588 4666 
L 1791 4666 
L 1791 0 
L 588 0 
L 588 4666 
z
" transform="scale(0.015625)"/>
     </defs>
     <use xlink:href="#DejaVuSans-Bold-50"/>
     <use xlink:href="#DejaVuSans-Bold-68" transform="translate(73.291016 0)"/>
     <use xlink:href="#DejaVuSans-Bold-61" transform="translate(144.482422 0)"/>
     <use xlink:href="#DejaVuSans-Bold-73" transform="translate(211.962891 0)"/>
     <use xlink:href="#DejaVuSans-Bold-65" transform="translate(271.484375 0)"/>
     <use xlink:href="#DejaVuSans-Bold-20" transform="translate(339.306641 0)"/>
     <use xlink:href="#DejaVuSans-Bold-32" transform="translate(374.121094 0)"/>
     <use xlink:href="#DejaVuSans-Bold-20" transform="translate(443.701172 0)"/>
     <use xlink:href="#DejaVuSans-Bold-b7" transform="translate(478.515625 0)"/>
     <use xlink:href="#DejaVuSans-Bold-20" transform="translate(516.503906 0)"/>
     <use xlink:href="#DejaVuSans-Bold-41" transform="translate(551.318359 0)"/>
     <use xlink:href="#DejaVuSans-Bold-67" transform="translate(628.710938 0)"/>
     <use xlink:href="#DejaVuSans-Bold-65" transform="translate(700.292969 0)"/>
     <use xlink:href="#DejaVuSans-Bold-6e" transform="translate(768.115234 0)"/>
     <use xlink:href="#DejaVuSans-Bold-63" transform="translate(839.306641 0)"/>
     <use xlink:href="#DejaVuSans-Bold-79" transform="translate(898.583984 0)"/>
     <use xlink:href="#DejaVuSans-Bold-20" transform="translate(963.769531 0)"/>
     <use xlink:href="#DejaVuSans-Bold-49" transform="translate(998.583984 0)"/>
     <use xlink:href="#DejaVuSans-Bold-6e" transform="translate(1035.791016 0)"/>
     <use xlink:href="#DejaVuSans-Bold-74" transform="translate(1106.982422 0)"/>
     <use xlink:href="#DejaVuSans-Bold-65" transform="translate(1154.785156 0)"/>
     <use xlink:href="#DejaVuSans-Bold-67" transform="translate(1222.607422 0)"/>
     <use xlink:href="#DejaVuSans-Bold-72" transform="translate(1294.189453 0)"/>
     <use xlink:href="#DejaVuSans-Bold-61" transform="translate(1343.505859 0)"/>
     <use xlink:href="#DejaVuSans-Bold-74" transform="translate(1410.986328 0)"/>
     <use xlink:href="#DejaVuSans-Bold-69" transform="translate(1458.789062 0)"/>
     <use xlink:href="#DejaVuSans-Bold-6f" transform="translate(1493.066406 0)"/>
     <use xlink:href="#DejaVuSans-Bold-6e" transform="translate(1561.767578 0)"/>
    </g>
   </g>
   <g id="text_26">
    <!-- Phase 3 · APAC Expansion -->
    <g style="fill: #1f2933" transform="translate(323.613145 51.646005) scale(0.085 -0.085)">
     <defs>
      <path id="DejaVuSans-Bold-33" d="M 2981 2516 
Q 3453 2394 3698 2092 
Q 3944 1791 3944 1325 
Q 3944 631 3412 270 
Q 2881 -91 1863 -91 
Q 1503 -91 1142 -33 
Q 781 25 428 141 
L 428 1069 
Q 766 900 1098 814 
Q 1431 728 1753 728 
Q 2231 728 2486 893 
Q 2741 1059 2741 1369 
Q 2741 1688 2480 1852 
Q 2219 2016 1709 2016 
L 1228 2016 
L 1228 2791 
L 1734 2791 
Q 2188 2791 2409 2933 
Q 2631 3075 2631 3366 
Q 2631 3634 2415 3781 
Q 2200 3928 1806 3928 
Q 1516 3928 1219 3862 
Q 922 3797 628 3669 
L 628 4550 
Q 984 4650 1334 4700 
Q 1684 4750 2022 4750 
Q 2931 4750 3382 4451 
Q 3834 4153 3834 3553 
Q 3834 3144 3618 2883 
Q 3403 2622 2981 2516 
z
" transform="scale(0.015625)"/>
      <path id="DejaVuSans-Bold-43" d="M 4288 256 
Q 3956 84 3597 -3 
Q 3238 -91 2847 -91 
Q 1681 -91 1000 561 
Q 319 1213 319 2328 
Q 319 3447 1000 4098 
Q 1681 4750 2847 4750 
Q 3238 4750 3597 4662 
Q 3956 4575 4288 4403 
L 4288 3438 
Q 3953 3666 3628 3772 
Q 3303 3878 2944 3878 
Q 2300 3878 1931 3465 
Q 1563 3053 1563 2328 
Q 1563 1606 1931 1193 
Q 2300 781 2944 781 
Q 3303 781 3628 887 
Q 3953 994 4288 1222 
L 4288 256 
z
" transform="scale(0.015625)"/>
      <path id="DejaVuSans-Bold-45" d="M 588 4666 
L 3834 4666 
L 3834 3756 
L 1791 3756 
L 1791 2888 
L 3713 2888 
L 3713 1978 
L 1791 1978 
L 1791 909 
L 3903 909 
L 3903 0 
L 588 0 
L 588 4666 
z
" transform="scale(0.015625)"/>
      <path id="DejaVuSans-Bold-78" d="M 1422 1791 
L 159 3500 
L 1344 3500 
L 2059 2463 
L 2784 3500 
L 3969 3500 
L 2706 1797 
L 4031 0 
L 2847 0 
L 2059 1106 
L 1281 0 
L 97 0 
L 1422 1791 
z
" transform="scale(0.015625)"/>
      <path id="DejaVuSans-Bold-70" d="M 1656 506 
L 1656 -1331 
L 538 -1331 
L 538 3500 
L 1656 3500 
L 1656 2988 
Q 1888 3294 2169 3439 
Q 2450 3584 2816 3584 
Q 3463 3584 3878 3070 
Q 4294 2556 4294 1747 
Q 4294 938 3878 423 
Q 3463 -91 2816 -91 
Q 2450 -91 2169 54 
Q 1888 200 1656 506 
z
M 2400 2772 
Q 2041 2772 1848 2508 
Q 1656 2244 1656 1747 
Q 1656 1250 1848 986 
Q 2041 722 2400 722 
Q 2759 722 2948 984 
Q 3138 1247 3138 1747 
Q 3138 2247 2948 2509 
Q 2759 2772 2400 2772 
z
" transform="scale(0.015625)"/>
     </defs>
     <use xlink:href="#DejaVuSans-Bold-50"/>
     <use xlink:href="#DejaVuSans-Bold-68" transform="translate(73.291016 0)"/>
     <use xlink:href="#DejaVuSans-Bold-61" transform="translate(144.482422 0)"/>
     <use xlink:href="#DejaVuSans-Bold-73" transform="translate(211.962891 0)"/>
     <use xlink:href="#DejaVuSans-Bold-65" transform="translate(271.484375 0)"/>
     <use xlink:href="#DejaVuSans-Bold-20" transform="translate(339.306641 0)"/>
     <use xlink:href="#DejaVuSans-Bold-33" transform="translate(374.121094 0)"/>
     <use xlink:href="#DejaVuSans-Bold-20" transform="translate(443.701172 0)"/>
     <use xlink:href="#DejaVuSans-Bold-b7" transform="translate(478.515625 0)"/>
     <use xlink:href="#DejaVuSans-Bold-20" transform="translate(516.503906 0)"/>
     <use xlink:href="#DejaVuSans-Bold-41" transform="translate(551.318359 0)"/>
     <use xlink:href="#DejaVuSans-Bold-50" transform="translate(628.710938 0)"/>
     <use xlink:href="#DejaVuSans-Bold-41" transform="translate(692.876953 0)"/>
     <use xlink:href="#DejaVuSans-Bold-43" transform="translate(770.269531 0)"/>
     <use xlink:href="#DejaVuSans-Bold-20" transform="translate(843.658203 0)"/>
     <use xlink:href="#DejaVuSans-Bold-45" transform="translate(878.472656 0)"/>
     <use xlink:href="#DejaVuSans-Bold-78" transform="translate(946.783203 0)"/>
     <use xlink:href="#DejaVuSans-Bold-70" transform="translate(1011.285156 0)"/>
     <use xlink:href="#DejaVuSans-Bold-61" transform="translate(1082.867188 0)"/>
     <use xlink:href="#DejaVuSans-Bold-6e" transform="translate(1150.347656 0)"/>
     <use xlink:href="#DejaVuSans-Bold-73" transform="translate(1221.539062 0)"/>
     <use xlink:href="#DejaVuSans-Bold-69" transform="translate(1281.060547 0)"/>
     <use xlink:href="#DejaVuSans-Bold-6f" transform="translate(1315.337891 0)"/>
     <use xlink:href="#DejaVuSans-Bold-6e" transform="translate(1384.039062 0)"/>
    </g>
   </g>
   <g id="patch_13">
    <path d="M 420.007276 74.865742 
Q 429.418747 70.554175 437.610481 66.801392 
" style="fill: none; stroke: #e85d3a; stroke-width: 1.2; stroke-linecap: round"/>
    <path d="M 432.693985 66.633856 
L 437.610481 66.801392 
L 434.526555 70.634067 
" style="fill: none; stroke: #e85d3a; stroke-width: 1.2; stroke-linecap: round"/>
   </g>
   <g id="text_27">
    <!-- $450K+ ARR -->
    <g style="fill: #e85d3a" transform="translate(363.385216 86.05704) scale(0.11 -0.11)">
     <defs>
      <path id="DejaVuSans-Bold-24" d="M 2484 -941 
L 1978 -941 
L 1975 0 
Q 1584 16 1218 87 
Q 853 159 506 288 
L 506 1106 
Q 866 922 1233 823 
Q 1600 725 1978 713 
L 1978 1684 
L 1875 1703 
Q 1128 1834 814 2115 
Q 500 2397 500 2925 
Q 500 3484 883 3798 
Q 1266 4113 1975 4141 
L 1978 4863 
L 2484 4863 
L 2484 4153 
Q 2797 4128 3109 4075 
Q 3422 4022 3738 3938 
L 3738 3144 
Q 3425 3275 3112 3348 
Q 2800 3422 2484 3438 
L 2484 2541 
L 2584 2522 
Q 3378 2397 3698 2105 
Q 4019 1813 4019 1241 
Q 4019 666 3637 358 
Q 3256 50 2484 6 
L 2484 -941 
z
M 1978 2613 
L 1978 3428 
Q 1756 3416 1623 3308 
Q 1491 3200 1491 3034 
Q 1491 2850 1612 2745 
Q 1734 2641 1978 2613 
z
M 2484 1594 
L 2484 725 
Q 2756 728 2892 831 
Q 3028 934 3028 1141 
Q 3028 1353 2903 1458 
Q 2778 1563 2484 1594 
z
" transform="scale(0.015625)"/>
      <path id="DejaVuSans-Bold-34" d="M 2356 3675 
L 1038 1722 
L 2356 1722 
L 2356 3675 
z
M 2156 4666 
L 3494 4666 
L 3494 1722 
L 4159 1722 
L 4159 850 
L 3494 850 
L 3494 0 
L 2356 0 
L 2356 850 
L 288 850 
L 288 1881 
L 2156 4666 
z
" transform="scale(0.015625)"/>
      <path id="DejaVuSans-Bold-35" d="M 678 4666 
L 3669 4666 
L 3669 3781 
L 1638 3781 
L 1638 3059 
Q 1775 3097 1914 3117 
Q 2053 3138 2203 3138 
Q 3056 3138 3531 2711 
Q 4006 2284 4006 1522 
Q 4006 766 3489 337 
Q 2972 -91 2053 -91 
Q 1656 -91 1267 -14 
Q 878 63 494 219 
L 494 1166 
Q 875 947 1217 837 
Q 1559 728 1863 728 
Q 2300 728 2551 942 
Q 2803 1156 2803 1522 
Q 2803 1891 2551 2103 
Q 2300 2316 1863 2316 
Q 1603 2316 1309 2248 
Q 1016 2181 678 2041 
L 678 4666 
z
" transform="scale(0.015625)"/>
      <path id="DejaVuSans-Bold-30" d="M 2944 2338 
Q 2944 3213 2780 3570 
Q 2616 3928 2228 3928 
Q 1841 3928 1675 3570 
Q 1509 3213 1509 2338 
Q 1509 1453 1675 1090 
Q 1841 728 2228 728 
Q 2613 728 2778 1090 
Q 2944 1453 2944 2338 
z
M 4147 2328 
Q 4147 1169 3647 539 
Q 3147 -91 2228 -91 
Q 1306 -91 806 539 
Q 306 1169 306 2328 
Q 306 3491 806 4120 
Q 1306 4750 2228 4750 
Q 3147 4750 3647 4120 
Q 4147 3491 4147 2328 
z
" transform="scale(0.015625)"/>
      <path id="DejaVuSans-Bold-4b" d="M 588 4666 
L 1791 4666 
L 1791 2963 
L 3525 4666 
L 4922 4666 
L 2675 2456 
L 5153 0 
L 3647 0 
L 1791 1838 
L 1791 0 
L 588 0 
L 588 4666 
z
" transform="scale(0.015625)"/>
      <path id="DejaVuSans-Bold-2b" d="M 3053 4013 
L 3053 2375 
L 4684 2375 
L 4684 1638 
L 3053 1638 
L 3053 0 
L 2309 0 
L 2309 1638 
L 678 1638 
L 678 2375 
L 2309 2375 
L 2309 4013 
L 3053 4013 
z
" transform="scale(0.015625)"/>
      <path id="DejaVuSans-Bold-52" d="M 2297 2597 
Q 2675 2597 2839 2737 
Q 3003 2878 3003 3200 
Q 3003 3519 2839 3656 
Q 2675 3794 2297 3794 
L 1791 3794 
L 1791 2597 
L 2297 2597 
z
M 1791 1766 
L 1791 0 
L 588 0 
L 588 4666 
L 2425 4666 
Q 3347 4666 3776 4356 
Q 4206 4047 4206 3378 
Q 4206 2916 3982 2619 
Q 3759 2322 3309 2181 
Q 3556 2125 3751 1926 
Q 3947 1728 4147 1325 
L 4800 0 
L 3519 0 
L 2950 1159 
Q 2778 1509 2601 1637 
Q 2425 1766 2131 1766 
L 1791 1766 
z
" transform="scale(0.015625)"/>
     </defs>
     <use xlink:href="#DejaVuSans-Bold-24"/>
     <use xlink:href="#DejaVuSans-Bold-34" transform="translate(69.580078 0)"/>
     <use xlink:href="#DejaVuSans-Bold-35" transform="translate(139.160156 0)"/>
     <use xlink:href="#DejaVuSans-Bold-30" transform="translate(208.740234 0)"/>
     <use xlink:href="#DejaVuSans-Bold-4b" transform="translate(278.320312 0)"/>
     <use xlink:href="#DejaVuSans-Bold-2b" transform="translate(355.810547 0)"/>
     <use xlink:href="#DejaVuSans-Bold-20" transform="translate(439.599609 0)"/>
     <use xlink:href="#DejaVuSans-Bold-41" transform="translate(474.414062 0)"/>
     <use xlink:href="#DejaVuSans-Bold-52" transform="translate(551.806641 0)"/>
     <use xlink:href="#DejaVuSans-Bold-52" transform="translate(628.808594 0)"/>
    </g>
   </g>
   <g id="text_28">
    <!-- Compounding ARR ladder  ·  Korea-first APAC ramp -->
    <g style="fill: #1f2933" transform="translate(54.339063 15.558281) scale(0.11 -0.11)">
     <defs>
      <path id="DejaVuSans-Bold-6d" d="M 3781 2919 
Q 3994 3244 4286 3414 
Q 4578 3584 4928 3584 
Q 5531 3584 5847 3212 
Q 6163 2841 6163 2131 
L 6163 0 
L 5038 0 
L 5038 1825 
Q 5041 1866 5042 1909 
Q 5044 1953 5044 2034 
Q 5044 2406 4934 2573 
Q 4825 2741 4581 2741 
Q 4263 2741 4089 2478 
Q 3916 2216 3909 1719 
L 3909 0 
L 2784 0 
L 2784 1825 
Q 2784 2406 2684 2573 
Q 2584 2741 2328 2741 
Q 2006 2741 1831 2477 
Q 1656 2213 1656 1722 
L 1656 0 
L 531 0 
L 531 3500 
L 1656 3500 
L 1656 2988 
Q 1863 3284 2130 3434 
Q 2397 3584 2719 3584 
Q 3081 3584 3359 3409 
Q 3638 3234 3781 2919 
z
" transform="scale(0.015625)"/>
      <path id="DejaVuSans-Bold-64" d="M 2919 2988 
L 2919 4863 
L 4044 4863 
L 4044 0 
L 2919 0 
L 2919 506 
Q 2688 197 2409 53 
Q 2131 -91 1766 -91 
Q 1119 -91 703 423 
Q 288 938 288 1747 
Q 288 2556 703 3070 
Q 1119 3584 1766 3584 
Q 2128 3584 2408 3439 
Q 2688 3294 2919 2988 
z
M 2181 722 
Q 2541 722 2730 984 
Q 2919 1247 2919 1747 
Q 2919 2247 2730 2509 
Q 2541 2772 2181 2772 
Q 1825 2772 1636 2509 
Q 1447 2247 1447 1747 
Q 1447 1247 1636 984 
Q 1825 722 2181 722 
z
" transform="scale(0.015625)"/>
      <path id="DejaVuSans-Bold-2d" d="M 347 2297 
L 2309 2297 
L 2309 1388 
L 347 1388 
L 347 2297 
z
" transform="scale(0.015625)"/>
      <path id="DejaVuSans-Bold-66" d="M 2841 4863 
L 2841 4128 
L 2222 4128 
Q 1984 4128 1890 4042 
Q 1797 3956 1797 3744 
L 1797 3500 
L 2753 3500 
L 2753 2700 
L 1797 2700 
L 1797 0 
L 678 0 
L 678 2700 
L 122 2700 
L 122 3500 
L 678 3500 
L 678 3744 
Q 678 4316 997 4589 
Q 1316 4863 1984 4863 
L 2841 4863 
z
" transform="scale(0.015625)"/>
     </defs>
     <use xlink:href="#DejaVuSans-Bold-43"/>
     <use xlink:href="#DejaVuSans-Bold-6f" transform="translate(73.388672 0)"/>
     <use xlink:href="#DejaVuSans-Bold-6d" transform="translate(142.089844 0)"/>
     <use xlink:href="#DejaVuSans-Bold-70" transform="translate(246.289062 0)"/>
     <use xlink:href="#DejaVuSans-Bold-6f" transform="translate(317.871094 0)"/>
     <use xlink:href="#DejaVuSans-Bold-75" transform="translate(386.572266 0)"/>
     <use xlink:href="#DejaVuSans-Bold-6e" transform="translate(457.763672 0)"/>
     <use xlink:href="#DejaVuSans-Bold-64" transform="translate(528.955078 0)"/>
     <use xlink:href="#DejaVuSans-Bold-69" transform="translate(600.537109 0)"/>
     <use xlink:href="#DejaVuSans-Bold-6e" transform="translate(634.814453 0)"/>
     <use xlink:href="#DejaVuSans-Bold-67" transform="translate(706.005859 0)"/>
     <use xlink:href="#DejaVuSans-Bold-20" transform="translate(777.587891 0)"/>
     <use xlink:href="#DejaVuSans-Bold-41" transform="translate(812.402344 0)"/>
     <use xlink:href="#DejaVuSans-Bold-52" transform="translate(889.794922 0)"/>
     <use xlink:href="#DejaVuSans-Bold-52" transform="translate(966.796875 0)"/>
     <use xlink:href="#DejaVuSans-Bold-20" transform="translate(1043.798828 0)"/>
     <use xlink:href="#DejaVuSans-Bold-6c" transform="translate(1078.613281 0)"/>
     <use xlink:href="#DejaVuSans-Bold-61" transform="translate(1112.890625 0)"/>
     <use xlink:href="#DejaVuSans-Bold-64" transform="translate(1180.371094 0)"/>
     <use xlink:href="#DejaVuSans-Bold-64" transform="translate(1251.953125 0)"/>
     <use xlink:href="#DejaVuSans-Bold-65" transform="translate(1323.535156 0)"/>
     <use xlink:href="#DejaVuSans-Bold-72" transform="translate(1391.357422 0)"/>
     <use xlink:href="#DejaVuSans-Bold-20" transform="translate(1440.673828 0)"/>
     <use xlink:href="#DejaVuSans-Bold-20" transform="translate(1475.488281 0)"/>
     <use xlink:href="#DejaVuSans-Bold-b7" transform="translate(1510.302734 0)"/>
     <use xlink:href="#DejaVuSans-Bold-20" transform="translate(1548.291016 0)"/>
     <use xlink:href="#DejaVuSans-Bold-20" transform="translate(1583.105469 0)"/>
     <use xlink:href="#DejaVuSans-Bold-4b" transform="translate(1617.919922 0)"/>
     <use xlink:href="#DejaVuSans-Bold-6f" transform="translate(1693.660156 0)"/>
     <use xlink:href="#DejaVuSans-Bold-72" transform="translate(1762.361328 0)"/>
     <use xlink:href="#DejaVuSans-Bold-65" transform="translate(1811.677734 0)"/>
     <use xlink:href="#DejaVuSans-Bold-61" transform="translate(1879.5 0)"/>
     <use xlink:href="#DejaVuSans-Bold-2d" transform="translate(1946.980469 0)"/>
     <use xlink:href="#DejaVuSans-Bold-66" transform="translate(1988.484375 0)"/>
     <use xlink:href="#DejaVuSans-Bold-69" transform="translate(2031.990234 0)"/>
     <use xlink:href="#DejaVuSans-Bold-72" transform="translate(2066.267578 0)"/>
     <use xlink:href="#DejaVuSans-Bold-73" transform="translate(2115.583984 0)"/>
     <use xlink:href="#DejaVuSans-Bold-74" transform="translate(2175.105469 0)"/>
     <use xlink:href="#DejaVuSans-Bold-20" transform="translate(2222.908203 0)"/>
     <use xlink:href="#DejaVuSans-Bold-41" transform="translate(2257.722656 0)"/>
     <use xlink:href="#DejaVuSans-Bold-50" transform="translate(2335.115234 0)"/>
     <use xlink:href="#DejaVuSans-Bold-41" transform="translate(2399.28125 0)"/>
     <use xlink:href="#DejaVuSans-Bold-43" transform="translate(2476.673828 0)"/>
     <use xlink:href="#DejaVuSans-Bold-20" transform="translate(2550.0625 0)"/>
     <use xlink:href="#DejaVuSans-Bold-72" transform="translate(2584.876953 0)"/>
     <use xlink:href="#DejaVuSans-Bold-61" transform="translate(2634.193359 0)"/>
     <use xlink:href="#DejaVuSans-Bold-6d" transform="translate(2701.673828 0)"/>
     <use xlink:href="#DejaVuSans-Bold-70" transform="translate(2805.873047 0)"/>
    </g>
   </g>
  </g>
 </g>
 <defs>
  <clipPath id="pc939db1401">
   <rect x="54.339063" y="27.558281" width="401.76" height="199.584"/>
  </clipPath>
 </defs>
</svg>
