<?xml version="1.0" encoding="utf-8" standalone="no"?>
<!DOCTYPE svg PUBLIC "-//W3C//DTD SVG 1.1//EN"
  "http://www.w3.org/Graphics/SVG/1.1/DTD/svg11.dtd">
<svg xmlns:xlink="http://www.w3.org/1999/xlink" width="463.191518pt" height="249.869094pt" viewBox="0 0 463.191518 249.869094" xmlns="http://www.w3.org/2000/svg" version="1.1">
 <metadata>
  <rdf:RDF xmlns:dc="http://purl.org/dc/elements/1.1/" xmlns:cc="http://creativecommons.org/ns#" xmlns:rdf="http://www.w3.org/1999/02/22-rdf-syntax-ns#">
   <cc:Work>
    <dc:type rdf:resource="http://purl.org/dc/dcmitype/StillImage"/>
    <dc:date>2026-06-02T06:46:49.184915</dc:date>
    <dc:format>image/svg+xml</dc:format>
    <dc:creator>
     <cc:Agent>
      <dc:title>Matplotlib v3.10.9, https://matplotlib.org/</dc:title>
     </cc:Agent>
    </dc:creator>
   </cc:Work>
  </rdf:RDF>
 </metadata>
 <defs>
  <style type="text/css">*{stroke-linejoin: round; stroke-linecap: butt}</style>
 </defs>
 <g id="figure_1">
  <g id="patch_1">
   <path d="M 0 249.869094 
L 463.191518 249.869094 
L 463.191518 -0 
L 0 -0 
L 0 249.869094 
z
" style="fill: none"/>
  </g>
  <g id="axes_1">
   <g id="patch_2">
    <path d="M 80.820312 204.966281 
L 443.520312 204.966281 
L 443.520312 27.558281 
L 80.820312 27.558281 
L 80.820312 204.966281 
z
" style="fill: none"/>
   </g>
   <g id="matplotlib.axis_1">
    <g id="xtick_1">
     <g id="line2d_1">
      <path d="M 80.820312 204.966281 
L 80.820312 27.558281 
" clip-path="url(#p3aca2273a0)" style="fill: none; stroke: #000000; stroke-opacity: 0.24; stroke-width: 0.75; stroke-linecap: square"/>
     </g>
     <g id="line2d_2">
      <defs>
       <path id="md331b9c869" d="M 0 0 
L 0 8.25 
" style="stroke: #6b7280; stroke-width: 0.75"/>
      </defs>
      <g>
       <use xlink:href="#md331b9c869" x="80.820312" y="204.966281" style="fill-opacity: 0.239216; stroke: #6b7280; stroke-width: 0.75"/>
      </g>
     </g>
     <g id="text_1">
      <!-- 0.0 -->
      <g style="fill: #6b7280" transform="translate(73.663906 225.054875) scale(0.09 -0.09)">
       <defs>
        <path id="DejaVuSans-30" d="M 2034 4250 
Q 1547 4250 1301 3770 
Q 1056 3291 1056 2328 
Q 1056 1369 1301 889 
Q 1547 409 2034 409 
Q 2525 409 2770 889 
Q 3016 1369 3016 2328 
Q 3016 3291 2770 3770 
Q 2525 4250 2034 4250 
z
M 2034 4750 
Q 2819 4750 3233 4129 
Q 3647 3509 3647 2328 
Q 3647 1150 3233 529 
Q 2819 -91 2034 -91 
Q 1250 -91 836 529 
Q 422 1150 422 2328 
Q 422 3509 836 4129 
Q 1250 4750 2034 4750 
z
" transform="scale(0.015625)"/>
        <path id="DejaVuSans-2e" d="M 684 794 
L 1344 794 
L 1344 0 
L 684 0 
L 684 794 
z
" transform="scale(0.015625)"/>
       </defs>
       <use xlink:href="#DejaVuSans-30"/>
       <use xlink:href="#DejaVuSans-2e" transform="translate(63.623047 0)"/>
       <use xlink:href="#DejaVuSans-30" transform="translate(95.410156 0)"/>
      </g>
     </g>
    </g>
    <g id="xtick_2">
     <g id="line2d_3">
      <path d="M 153.360313 204.966281 
L 153.360313 27.558281 
" clip-path="url(#p3aca2273a0)" style="fill: none; stroke: #000000; stroke-opacity: 0.24; stroke-width: 0.75; stroke-linecap: square"/>
     </g>
     <g id="line2d_4">
      <g>
       <use xlink:href="#md331b9c869" x="153.360313" y="204.966281" style="fill-opacity: 0.239216; stroke: #6b7280; stroke-width: 0.75"/>
      </g>
     </g>
     <g id="text_2">
      <!-- 0.2 -->
      <g style="fill: #6b7280" transform="translate(146.203906 225.054875) scale(0.09 -0.09)">
       <defs>
        <path id="DejaVuSans-32" d="M 1228 531 
L 3431 531 
L 3431 0 
L 469 0 
L 469 531 
Q 828 903 1448 1529 
Q 2069 2156 2228 2338 
Q 2531 2678 2651 2914 
Q 2772 3150 2772 3378 
Q 2772 3750 2511 3984 
Q 2250 4219 1831 4219 
Q 1534 4219 1204 4116 
Q 875 4013 500 3803 
L 500 4441 
Q 881 4594 1212 4672 
Q 1544 4750 1819 4750 
Q 2544 4750 2975 4387 
Q 3406 4025 3406 3419 
Q 3406 3131 3298 2873 
Q 3191 2616 2906 2266 
Q 2828 2175 2409 1742 
Q 1991 1309 1228 531 
z
" transform="scale(0.015625)"/>
       </defs>
       <use xlink:href="#DejaVuSans-30"/>
       <use xlink:href="#DejaVuSans-2e" transform="translate(63.623047 0)"/>
       <use xlink:href="#DejaVuSans-32" transform="translate(95.410156 0)"/>
      </g>
     </g>
    </g>
    <g id="xtick_3">
     <g id="line2d_5">
      <path d="M 225.900313 204.966281 
L 225.900313 27.558281 
" clip-path="url(#p3aca2273a0)" style="fill: none; stroke: #000000; stroke-opacity: 0.24; stroke-width: 0.75; stroke-linecap: square"/>
     </g>
     <g id="line2d_6">
      <g>
       <use xlink:href="#md331b9c869" x="225.900313" y="204.966281" style="fill-opacity: 0.239216; stroke: #6b7280; stroke-width: 0.75"/>
      </g>
     </g>
     <g id="text_3">
      <!-- 0.4 -->
      <g style="fill: #6b7280" transform="translate(218.743906 225.054875) scale(0.09 -0.09)">
       <defs>
        <path id="DejaVuSans-34" d="M 2419 4116 
L 825 1625 
L 2419 1625 
L 2419 4116 
z
M 2253 4666 
L 3047 4666 
L 3047 1625 
L 3713 1625 
L 3713 1100 
L 3047 1100 
L 3047 0 
L 2419 0 
L 2419 1100 
L 313 1100 
L 313 1709 
L 2253 4666 
z
" transform="scale(0.015625)"/>
       </defs>
       <use xlink:href="#DejaVuSans-30"/>
       <use xlink:href="#DejaVuSans-2e" transform="translate(63.623047 0)"/>
       <use xlink:href="#DejaVuSans-34" transform="translate(95.410156 0)"/>
      </g>
     </g>
    </g>
    <g id="xtick_4">
     <g id="line2d_7">
      <path d="M 298.440313 204.966281 
L 298.440313 27.558281 
" clip-path="url(#p3aca2273a0)" style="fill: none; stroke: #000000; stroke-opacity: 0.24; stroke-width: 0.75; stroke-linecap: square"/>
     </g>
     <g id="line2d_8">
      <g>
       <use xlink:href="#md331b9c869" x="298.440313" y="204.966281" style="fill-opacity: 0.239216; stroke: #6b7280; stroke-width: 0.75"/>
      </g>
     </g>
     <g id="text_4">
      <!-- 0.6 -->
      <g style="fill: #6b7280" transform="translate(291.283906 225.054875) scale(0.09 -0.09)">
       <defs>
        <path id="DejaVuSans-36" d="M 2113 2584 
Q 1688 2584 1439 2293 
Q 1191 2003 1191 1497 
Q 1191 994 1439 701 
Q 1688 409 2113 409 
Q 2538 409 2786 701 
Q 3034 994 3034 1497 
Q 3034 2003 2786 2293 
Q 2538 2584 2113 2584 
z
M 3366 4563 
L 3366 3988 
Q 3128 4100 2886 4159 
Q 2644 4219 2406 4219 
Q 1781 4219 1451 3797 
Q 1122 3375 1075 2522 
Q 1259 2794 1537 2939 
Q 1816 3084 2150 3084 
Q 2853 3084 3261 2657 
Q 3669 2231 3669 1497 
Q 3669 778 3244 343 
Q 2819 -91 2113 -91 
Q 1303 -91 875 529 
Q 447 1150 447 2328 
Q 447 3434 972 4092 
Q 1497 4750 2381 4750 
Q 2619 4750 2861 4703 
Q 3103 4656 3366 4563 
z
" transform="scale(0.015625)"/>
       </defs>
       <use xlink:href="#DejaVuSans-30"/>
       <use xlink:href="#DejaVuSans-2e" transform="translate(63.623047 0)"/>
       <use xlink:href="#DejaVuSans-36" transform="translate(95.410156 0)"/>
      </g>
     </g>
    </g>
    <g id="xtick_5">
     <g id="line2d_9">
      <path d="M 370.980313 204.966281 
L 370.980313 27.558281 
" clip-path="url(#p3aca2273a0)" style="fill: none; stroke: #000000; stroke-opacity: 0.24; stroke-width: 0.75; stroke-linecap: square"/>
     </g>
     <g id="line2d_10">
      <g>
       <use xlink:href="#md331b9c869" x="370.980313" y="204.966281" style="fill-opacity: 0.239216; stroke: #6b7280; stroke-width: 0.75"/>
      </g>
     </g>
     <g id="text_5">
      <!-- 0.8 -->
      <g style="fill: #6b7280" transform="translate(363.823906 225.054875) scale(0.09 -0.09)">
       <defs>
        <path id="DejaVuSans-38" d="M 2034 2216 
Q 1584 2216 1326 1975 
Q 1069 1734 1069 1313 
Q 1069 891 1326 650 
Q 1584 409 2034 409 
Q 2484 409 2743 651 
Q 3003 894 3003 1313 
Q 3003 1734 2745 1975 
Q 2488 2216 2034 2216 
z
M 1403 2484 
Q 997 2584 770 2862 
Q 544 3141 544 3541 
Q 544 4100 942 4425 
Q 1341 4750 2034 4750 
Q 2731 4750 3128 4425 
Q 3525 4100 3525 3541 
Q 3525 3141 3298 2862 
Q 3072 2584 2669 2484 
Q 3125 2378 3379 2068 
Q 3634 1759 3634 1313 
Q 3634 634 3220 271 
Q 2806 -91 2034 -91 
Q 1263 -91 848 271 
Q 434 634 434 1313 
Q 434 1759 690 2068 
Q 947 2378 1403 2484 
z
M 1172 3481 
Q 1172 3119 1398 2916 
Q 1625 2713 2034 2713 
Q 2441 2713 2670 2916 
Q 2900 3119 2900 3481 
Q 2900 3844 2670 4047 
Q 2441 4250 2034 4250 
Q 1625 4250 1398 4047 
Q 1172 3844 1172 3481 
z
" transform="scale(0.015625)"/>
       </defs>
       <use xlink:href="#DejaVuSans-30"/>
       <use xlink:href="#DejaVuSans-2e" transform="translate(63.623047 0)"/>
       <use xlink:href="#DejaVuSans-38" transform="translate(95.410156 0)"/>
      </g>
     </g>
    </g>
    <g id="xtick_6">
     <g id="line2d_11">
      <path d="M 443.520312 204.966281 
L 443.520312 27.558281 
" clip-path="url(#p3aca2273a0)" style="fill: none; stroke: #000000; stroke-opacity: 0.24; stroke-width: 0.75; stroke-linecap: square"/>
     </g>
     <g id="line2d_12">
      <g>
       <use xlink:href="#md331b9c869" x="443.520312" y="204.966281" style="fill-opacity: 0.239216; stroke: #6b7280; stroke-width: 0.75"/>
      </g>
     </g>
     <g id="text_6">
      <!-- 1.0 -->
      <g style="fill: #6b7280" transform="translate(436.363906 225.054875) scale(0.09 -0.09)">
       <defs>
        <path id="DejaVuSans-31" d="M 794 531 
L 1825 531 
L 1825 4091 
L 703 3866 
L 703 4441 
L 1819 4666 
L 2450 4666 
L 2450 531 
L 3481 531 
L 3481 0 
L 794 0 
L 794 531 
z
" transform="scale(0.015625)"/>
       </defs>
       <use xlink:href="#DejaVuSans-31"/>
       <use xlink:href="#DejaVuSans-2e" transform="translate(63.623047 0)"/>
       <use xlink:href="#DejaVuSans-30" transform="translate(95.410156 0)"/>
      </g>
     </g>
    </g>
    <g id="xtick_7">
     <g id="line2d_13">
      <defs>
       <path id="me8d6a1331a" d="M 0 0 
L 0 4.125 
" style="stroke: #6b7280; stroke-width: 0.75"/>
      </defs>
      <g>
       <use xlink:href="#me8d6a1331a" x="98.955313" y="204.966281" style="fill-opacity: 0.239216; stroke: #6b7280; stroke-width: 0.75"/>
      </g>
     </g>
    </g>
    <g id="xtick_8">
     <g id="line2d_14">
      <g>
       <use xlink:href="#me8d6a1331a" x="117.090313" y="204.966281" style="fill-opacity: 0.239216; stroke: #6b7280; stroke-width: 0.75"/>
      </g>
     </g>
    </g>
    <g id="xtick_9">
     <g id="line2d_15">
      <g>
       <use xlink:href="#me8d6a1331a" x="135.225313" y="204.966281" style="fill-opacity: 0.239216; stroke: #6b7280; stroke-width: 0.75"/>
      </g>
     </g>
    </g>
    <g id="xtick_10">
     <g id="line2d_16">
      <g>
       <use xlink:href="#me8d6a1331a" x="171.495313" y="204.966281" style="fill-opacity: 0.239216; stroke: #6b7280; stroke-width: 0.75"/>
      </g>
     </g>
    </g>
    <g id="xtick_11">
     <g id="line2d_17">
      <g>
       <use xlink:href="#me8d6a1331a" x="189.630313" y="204.966281" style="fill-opacity: 0.239216; stroke: #6b7280; stroke-width: 0.75"/>
      </g>
     </g>
    </g>
    <g id="xtick_12">
     <g id="line2d_18">
      <g>
       <use xlink:href="#me8d6a1331a" x="207.765312" y="204.966281" style="fill-opacity: 0.239216; stroke: #6b7280; stroke-width: 0.75"/>
      </g>
     </g>
    </g>
    <g id="xtick_13">
     <g id="line2d_19">
      <g>
       <use xlink:href="#me8d6a1331a" x="244.035313" y="204.966281" style="fill-opacity: 0.239216; stroke: #6b7280; stroke-width: 0.75"/>
      </g>
     </g>
    </g>
    <g id="xtick_14">
     <g id="line2d_20">
      <g>
       <use xlink:href="#me8d6a1331a" x="262.170313" y="204.966281" style="fill-opacity: 0.239216; stroke: #6b7280; stroke-width: 0.75"/>
      </g>
     </g>
    </g>
    <g id="xtick_15">
     <g id="line2d_21">
      <g>
       <use xlink:href="#me8d6a1331a" x="280.305313" y="204.966281" style="fill-opacity: 0.239216; stroke: #6b7280; stroke-width: 0.75"/>
      </g>
     </g>
    </g>
    <g id="xtick_16">
     <g id="line2d_22">
      <g>
       <use xlink:href="#me8d6a1331a" x="316.575312" y="204.966281" style="fill-opacity: 0.239216; stroke: #6b7280; stroke-width: 0.75"/>
      </g>
     </g>
    </g>
    <g id="xtick_17">
     <g id="line2d_23">
      <g>
       <use xlink:href="#me8d6a1331a" x="334.710312" y="204.966281" style="fill-opacity: 0.239216; stroke: #6b7280; stroke-width: 0.75"/>
      </g>
     </g>
    </g>
    <g id="xtick_18">
     <g id="line2d_24">
      <g>
       <use xlink:href="#me8d6a1331a" x="352.845312" y="204.966281" style="fill-opacity: 0.239216; stroke: #6b7280; stroke-width: 0.75"/>
      </g>
     </g>
    </g>
    <g id="xtick_19">
     <g id="line2d_25">
      <g>
       <use xlink:href="#me8d6a1331a" x="389.115313" y="204.966281" style="fill-opacity: 0.239216; stroke: #6b7280; stroke-width: 0.75"/>
      </g>
     </g>
    </g>
    <g id="xtick_20">
     <g id="line2d_26">
      <g>
       <use xlink:href="#me8d6a1331a" x="407.250313" y="204.966281" style="fill-opacity: 0.239216; stroke: #6b7280; stroke-width: 0.75"/>
      </g>
     </g>
    </g>
    <g id="xtick_21">
     <g id="line2d_27">
      <g>
       <use xlink:href="#me8d6a1331a" x="425.385312" y="204.966281" style="fill-opacity: 0.239216; stroke: #6b7280; stroke-width: 0.75"/>
      </g>
     </g>
    </g>
   </g>
   <g id="matplotlib.axis_2">
    <g id="ytick_1">
     <g id="line2d_28">
      <path d="M 80.820312 204.966281 
L 443.520312 204.966281 
" clip-path="url(#p3aca2273a0)" style="fill: none; stroke: #000000; stroke-opacity: 0.24; stroke-width: 0.75; stroke-linecap: square"/>
     </g>
     <g id="line2d_29">
      <defs>
       <path id="m3be31b6576" d="M 0 0 
L -8.25 0 
" style="stroke: #6b7280; stroke-width: 0.75"/>
      </defs>
      <g>
       <use xlink:href="#m3be31b6576" x="80.820312" y="204.966281" style="fill-opacity: 0.239216; stroke: #6b7280; stroke-width: 0.75"/>
      </g>
     </g>
     <g id="text_7">
      <!-- 0.0 -->
      <g style="fill: #6b7280" transform="translate(53.2575 208.385578) scale(0.09 -0.09)">
       <use xlink:href="#DejaVuSans-30"/>
       <use xlink:href="#DejaVuSans-2e" transform="translate(63.623047 0)"/>
       <use xlink:href="#DejaVuSans-30" transform="translate(95.410156 0)"/>
      </g>
     </g>
    </g>
    <g id="ytick_2">
     <g id="line2d_30">
      <path d="M 80.820312 169.484681 
L 443.520312 169.484681 
" clip-path="url(#p3aca2273a0)" style="fill: none; stroke: #000000; stroke-opacity: 0.24; stroke-width: 0.75; stroke-linecap: square"/>
     </g>
     <g id="line2d_31">
      <g>
       <use xlink:href="#m3be31b6576" x="80.820312" y="169.484681" style="fill-opacity: 0.239216; stroke: #6b7280; stroke-width: 0.75"/>
      </g>
     </g>
     <g id="text_8">
      <!-- 0.2 -->
      <g style="fill: #6b7280" transform="translate(53.2575 172.903978) scale(0.09 -0.09)">
       <use xlink:href="#DejaVuSans-30"/>
       <use xlink:href="#DejaVuSans-2e" transform="translate(63.623047 0)"/>
       <use xlink:href="#DejaVuSans-32" transform="translate(95.410156 0)"/>
      </g>
     </g>
    </g>
    <g id="ytick_3">
     <g id="line2d_32">
      <path d="M 80.820312 134.003081 
L 443.520312 134.003081 
" clip-path="url(#p3aca2273a0)" style="fill: none; stroke: #000000; stroke-opacity: 0.24; stroke-width: 0.75; stroke-linecap: square"/>
     </g>
     <g id="line2d_33">
      <g>
       <use xlink:href="#m3be31b6576" x="80.820312" y="134.003081" style="fill-opacity: 0.239216; stroke: #6b7280; stroke-width: 0.75"/>
      </g>
     </g>
     <g id="text_9">
      <!-- 0.4 -->
      <g style="fill: #6b7280" transform="translate(53.2575 137.422378) scale(0.09 -0.09)">
       <use xlink:href="#DejaVuSans-30"/>
       <use xlink:href="#DejaVuSans-2e" transform="translate(63.623047 0)"/>
       <use xlink:href="#DejaVuSans-34" transform="translate(95.410156 0)"/>
      </g>
     </g>
    </g>
    <g id="ytick_4">
     <g id="line2d_34">
      <path d="M 80.820312 98.521481 
L 443.520312 98.521481 
" clip-path="url(#p3aca2273a0)" style="fill: none; stroke: #000000; stroke-opacity: 0.24; stroke-width: 0.75; stroke-linecap: square"/>
     </g>
     <g id="line2d_35">
      <g>
       <use xlink:href="#m3be31b6576" x="80.820312" y="98.521481" style="fill-opacity: 0.239216; stroke: #6b7280; stroke-width: 0.75"/>
      </g>
     </g>
     <g id="text_10">
      <!-- 0.6 -->
      <g style="fill: #6b7280" transform="translate(53.2575 101.940778) scale(0.09 -0.09)">
       <use xlink:href="#DejaVuSans-30"/>
       <use xlink:href="#DejaVuSans-2e" transform="translate(63.623047 0)"/>
       <use xlink:href="#DejaVuSans-36" transform="translate(95.410156 0)"/>
      </g>
     </g>
    </g>
    <g id="ytick_5">
     <g id="line2d_36">
      <path d="M 80.820312 63.039881 
L 443.520312 63.039881 
" clip-path="url(#p3aca2273a0)" style="fill: none; stroke: #000000; stroke-opacity: 0.24; stroke-width: 0.75; stroke-linecap: square"/>
     </g>
     <g id="line2d_37">
      <g>
       <use xlink:href="#m3be31b6576" x="80.820312" y="63.039881" style="fill-opacity: 0.239216; stroke: #6b7280; stroke-width: 0.75"/>
      </g>
     </g>
     <g id="text_11">
      <!-- 0.8 -->
      <g style="fill: #6b7280" transform="translate(53.2575 66.459178) scale(0.09 -0.09)">
       <use xlink:href="#DejaVuSans-30"/>
       <use xlink:href="#DejaVuSans-2e" transform="translate(63.623047 0)"/>
       <use xlink:href="#DejaVuSans-38" transform="translate(95.410156 0)"/>
      </g>
     </g>
    </g>
    <g id="ytick_6">
     <g id="line2d_38">
      <path d="M 80.820312 27.558281 
L 443.520312 27.558281 
" clip-path="url(#p3aca2273a0)" style="fill: none; stroke: #000000; stroke-opacity: 0.24; stroke-width: 0.75; stroke-linecap: square"/>
     </g>
     <g id="line2d_39">
      <g>
       <use xlink:href="#m3be31b6576" x="80.820312" y="27.558281" style="fill-opacity: 0.239216; stroke: #6b7280; stroke-width: 0.75"/>
      </g>
     </g>
     <g id="text_12">
      <!-- 1.0 -->
      <g style="fill: #6b7280" transform="translate(53.2575 30.977578) scale(0.09 -0.09)">
       <use xlink:href="#DejaVuSans-31"/>
       <use xlink:href="#DejaVuSans-2e" transform="translate(63.623047 0)"/>
       <use xlink:href="#DejaVuSans-30" transform="translate(95.410156 0)"/>
      </g>
     </g>
    </g>
    <g id="ytick_7">
     <g id="line2d_40">
      <defs>
       <path id="m57e66270d4" d="M 0 0 
L -4.125 0 
" style="stroke: #6b7280; stroke-width: 0.75"/>
      </defs>
      <g>
       <use xlink:href="#m57e66270d4" x="80.820312" y="196.095881" style="fill-opacity: 0.239216; stroke: #6b7280; stroke-width: 0.75"/>
      </g>
     </g>
    </g>
    <g id="ytick_8">
     <g id="line2d_41">
      <g>
       <use xlink:href="#m57e66270d4" x="80.820312" y="187.225481" style="fill-opacity: 0.239216; stroke: #6b7280; stroke-width: 0.75"/>
      </g>
     </g>
    </g>
    <g id="ytick_9">
     <g id="line2d_42">
      <g>
       <use xlink:href="#m57e66270d4" x="80.820312" y="178.355081" style="fill-opacity: 0.239216; stroke: #6b7280; stroke-width: 0.75"/>
      </g>
     </g>
    </g>
    <g id="ytick_10">
     <g id="line2d_43">
      <g>
       <use xlink:href="#m57e66270d4" x="80.820312" y="160.614281" style="fill-opacity: 0.239216; stroke: #6b7280; stroke-width: 0.75"/>
      </g>
     </g>
    </g>
    <g id="ytick_11">
     <g id="line2d_44">
      <g>
       <use xlink:href="#m57e66270d4" x="80.820312" y="151.743881" style="fill-opacity: 0.239216; stroke: #6b7280; stroke-width: 0.75"/>
      </g>
     </g>
    </g>
    <g id="ytick_12">
     <g id="line2d_45">
      <g>
       <use xlink:href="#m57e66270d4" x="80.820312" y="142.873481" style="fill-opacity: 0.239216; stroke: #6b7280; stroke-width: 0.75"/>
      </g>
     </g>
    </g>
    <g id="ytick_13">
     <g id="line2d_46">
      <g>
       <use xlink:href="#m57e66270d4" x="80.820312" y="125.132681" style="fill-opacity: 0.239216; stroke: #6b7280; stroke-width: 0.75"/>
      </g>
     </g>
    </g>
    <g id="ytick_14">
     <g id="line2d_47">
      <g>
       <use xlink:href="#m57e66270d4" x="80.820312" y="116.262281" style="fill-opacity: 0.239216; stroke: #6b7280; stroke-width: 0.75"/>
      </g>
     </g>
    </g>
    <g id="ytick_15">
     <g id="line2d_48">
      <g>
       <use xlink:href="#m57e66270d4" x="80.820312" y="107.391881" style="fill-opacity: 0.239216; stroke: #6b7280; stroke-width: 0.75"/>
      </g>
     </g>
    </g>
    <g id="ytick_16">
     <g id="line2d_49">
      <g>
       <use xlink:href="#m57e66270d4" x="80.820312" y="89.651081" style="fill-opacity: 0.239216; stroke: #6b7280; stroke-width: 0.75"/>
      </g>
     </g>
    </g>
    <g id="ytick_17">
     <g id="line2d_50">
      <g>
       <use xlink:href="#m57e66270d4" x="80.820312" y="80.780681" style="fill-opacity: 0.239216; stroke: #6b7280; stroke-width: 0.75"/>
      </g>
     </g>
    </g>
    <g id="ytick_18">
     <g id="line2d_51">
      <g>
       <use xlink:href="#m57e66270d4" x="80.820312" y="71.910281" style="fill-opacity: 0.239216; stroke: #6b7280; stroke-width: 0.75"/>
      </g>
     </g>
    </g>
    <g id="ytick_19">
     <g id="line2d_52">
      <g>
       <use xlink:href="#m57e66270d4" x="80.820312" y="54.169481" style="fill-opacity: 0.239216; stroke: #6b7280; stroke-width: 0.75"/>
      </g>
     </g>
    </g>
    <g id="ytick_20">
     <g id="line2d_53">
      <g>
       <use xlink:href="#m57e66270d4" x="80.820312" y="45.299081" style="fill-opacity: 0.239216; stroke: #6b7280; stroke-width: 0.75"/>
      </g>
     </g>
    </g>
    <g id="ytick_21">
     <g id="line2d_54">
      <g>
       <use xlink:href="#m57e66270d4" x="80.820312" y="36.428681" style="fill-opacity: 0.239216; stroke: #6b7280; stroke-width: 0.75"/>
      </g>
     </g>
    </g>
   </g>
   <g id="patch_3">
    <path d="M 80.820312 204.966281 
L 80.820312 27.558281 
" style="fill: none; stroke: #cfd4da; stroke-linejoin: miter; stroke-linecap: square"/>
   </g>
   <g id="patch_4">
    <path d="M 443.520312 204.966281 
L 443.520312 27.558281 
" style="fill: none; stroke: #cfd4da; stroke-linejoin: miter; stroke-linecap: square"/>
   </g>
   <g id="patch_5">
    <path d="M 80.820312 204.966281 
L 443.520312 204.966281 
" style="fill: none; stroke: #cfd4da; stroke-linejoin: miter; stroke-linecap: square"/>
   </g>
   <g id="patch_6">
    <path d="M 80.820312 27.558281 
L 443.520312 27.558281 
" style="fill: none; stroke: #cfd4da; stroke-linejoin: miter; stroke-linecap: square"/>
   </g>
  </g>
  <g id="axes_2">
   <g id="patch_7">
    <path d="M 80.820312 204.966281 
L 443.520312 204.966281 
L 443.520312 27.558281 
L 80.820312 27.558281 
L 80.820312 204.966281 
z
" style="fill: none"/>
   </g>
   <g id="patch_8">
    <path d="M 80.820312 35.622281 
L 372.27567 35.622281 
L 372.27567 70.408164 
L 80.820312 70.408164 
z
" clip-path="url(#p3aca2273a0)" style="fill: #ff6b35; stroke: #ffffff; stroke-width: 1.5; stroke-linejoin: miter"/>
   </g>
   <g id="patch_9">
    <path d="M 80.820312 98.86934 
L 255.693527 98.86934 
L 255.693527 133.655222 
L 80.820312 133.655222 
z
" clip-path="url(#p3aca2273a0)" style="fill: #ff8c42; stroke: #ffffff; stroke-width: 1.5; stroke-linejoin: miter"/>
   </g>
   <g id="patch_10">
    <path d="M 80.820312 162.116399 
L 197.402455 162.116399 
L 197.402455 196.902281 
L 80.820312 196.902281 
z
" clip-path="url(#p3aca2273a0)" style="fill: #ffa45b; stroke: #ffffff; stroke-width: 1.5; stroke-linejoin: miter"/>
   </g>
   <g id="matplotlib.axis_3">
    <g id="xtick_22">
     <g id="line2d_55">
      <path d="M 80.820312 204.966281 
L 80.820312 27.558281 
" clip-path="url(#p3aca2273a0)" style="fill: none; stroke: #000000; stroke-opacity: 0.24; stroke-width: 0.75; stroke-linecap: square"/>
     </g>
     <g id="line2d_56">
      <g>
       <use xlink:href="#md331b9c869" x="80.820312" y="204.966281" style="fill-opacity: 0.239216; stroke: #6b7280; stroke-width: 0.75"/>
      </g>
     </g>
     <g id="text_13">
      <!-- 0 -->
      <g style="fill: #6b7280" transform="translate(78.275312 224.295031) scale(0.08 -0.08)">
       <use xlink:href="#DejaVuSans-30"/>
      </g>
     </g>
    </g>
    <g id="xtick_23">
     <g id="line2d_57">
      <path d="M 145.58817 204.966281 
L 145.58817 27.558281 
" clip-path="url(#p3aca2273a0)" style="fill: none; stroke: #000000; stroke-opacity: 0.24; stroke-width: 0.75; stroke-linecap: square"/>
     </g>
     <g id="line2d_58">
      <g>
       <use xlink:href="#md331b9c869" x="145.58817" y="204.966281" style="fill-opacity: 0.239216; stroke: #6b7280; stroke-width: 0.75"/>
      </g>
     </g>
     <g id="text_14">
      <!-- 50 -->
      <g style="fill: #6b7280" transform="translate(140.49817 224.295031) scale(0.08 -0.08)">
       <defs>
        <path id="DejaVuSans-35" d="M 691 4666 
L 3169 4666 
L 3169 4134 
L 1269 4134 
L 1269 2991 
Q 1406 3038 1543 3061 
Q 1681 3084 1819 3084 
Q 2600 3084 3056 2656 
Q 3513 2228 3513 1497 
Q 3513 744 3044 326 
Q 2575 -91 1722 -91 
Q 1428 -91 1123 -41 
Q 819 9 494 109 
L 494 744 
Q 775 591 1075 516 
Q 1375 441 1709 441 
Q 2250 441 2565 725 
Q 2881 1009 2881 1497 
Q 2881 1984 2565 2268 
Q 2250 2553 1709 2553 
Q 1456 2553 1204 2497 
Q 953 2441 691 2322 
L 691 4666 
z
" transform="scale(0.015625)"/>
       </defs>
       <use xlink:href="#DejaVuSans-35"/>
       <use xlink:href="#DejaVuSans-30" transform="translate(63.623047 0)"/>
      </g>
     </g>
    </g>
    <g id="xtick_24">
     <g id="line2d_59">
      <path d="M 210.356027 204.966281 
L 210.356027 27.558281 
" clip-path="url(#p3aca2273a0)" style="fill: none; stroke: #000000; stroke-opacity: 0.24; stroke-width: 0.75; stroke-linecap: square"/>
     </g>
     <g id="line2d_60">
      <g>
       <use xlink:href="#md331b9c869" x="210.356027" y="204.966281" style="fill-opacity: 0.239216; stroke: #6b7280; stroke-width: 0.75"/>
      </g>
     </g>
     <g id="text_15">
      <!-- 100 -->
      <g style="fill: #6b7280" transform="translate(202.721027 224.295031) scale(0.08 -0.08)">
       <use xlink:href="#DejaVuSans-31"/>
       <use xlink:href="#DejaVuSans-30" transform="translate(63.623047 0)"/>
       <use xlink:href="#DejaVuSans-30" transform="translate(127.246094 0)"/>
      </g>
     </g>
    </g>
    <g id="xtick_25">
     <g id="line2d_61">
      <path d="M 275.123884 204.966281 
L 275.123884 27.558281 
" clip-path="url(#p3aca2273a0)" style="fill: none; stroke: #000000; stroke-opacity: 0.24; stroke-width: 0.75; stroke-linecap: square"/>
     </g>
     <g id="line2d_62">
      <g>
       <use xlink:href="#md331b9c869" x="275.123884" y="204.966281" style="fill-opacity: 0.239216; stroke: #6b7280; stroke-width: 0.75"/>
      </g>
     </g>
     <g id="text_16">
      <!-- 150 -->
      <g style="fill: #6b7280" transform="translate(267.488884 224.295031) scale(0.08 -0.08)">
       <use xlink:href="#DejaVuSans-31"/>
       <use xlink:href="#DejaVuSans-35" transform="translate(63.623047 0)"/>
       <use xlink:href="#DejaVuSans-30" transform="translate(127.246094 0)"/>
      </g>
     </g>
    </g>
    <g id="xtick_26">
     <g id="line2d_63">
      <path d="M 339.891741 204.966281 
L 339.891741 27.558281 
" clip-path="url(#p3aca2273a0)" style="fill: none; stroke: #000000; stroke-opacity: 0.24; stroke-width: 0.75; stroke-linecap: square"/>
     </g>
     <g id="line2d_64">
      <g>
       <use xlink:href="#md331b9c869" x="339.891741" y="204.966281" style="fill-opacity: 0.239216; stroke: #6b7280; stroke-width: 0.75"/>
      </g>
     </g>
     <g id="text_17">
      <!-- 200 -->
      <g style="fill: #6b7280" transform="translate(332.256741 224.295031) scale(0.08 -0.08)">
       <use xlink:href="#DejaVuSans-32"/>
       <use xlink:href="#DejaVuSans-30" transform="translate(63.623047 0)"/>
       <use xlink:href="#DejaVuSans-30" transform="translate(127.246094 0)"/>
      </g>
     </g>
    </g>
    <g id="xtick_27">
     <g id="line2d_65">
      <path d="M 404.659598 204.966281 
L 404.659598 27.558281 
" clip-path="url(#p3aca2273a0)" style="fill: none; stroke: #000000; stroke-opacity: 0.24; stroke-width: 0.75; stroke-linecap: square"/>
     </g>
     <g id="line2d_66">
      <g>
       <use xlink:href="#md331b9c869" x="404.659598" y="204.966281" style="fill-opacity: 0.239216; stroke: #6b7280; stroke-width: 0.75"/>
      </g>
     </g>
     <g id="text_18">
      <!-- 250 -->
      <g style="fill: #6b7280" transform="translate(397.024598 224.295031) scale(0.08 -0.08)">
       <use xlink:href="#DejaVuSans-32"/>
       <use xlink:href="#DejaVuSans-35" transform="translate(63.623047 0)"/>
       <use xlink:href="#DejaVuSans-30" transform="translate(127.246094 0)"/>
      </g>
     </g>
    </g>
    <g id="xtick_28">
     <g id="line2d_67">
      <g>
       <use xlink:href="#me8d6a1331a" x="93.773884" y="204.966281" style="fill-opacity: 0.239216; stroke: #6b7280; stroke-width: 0.75"/>
      </g>
     </g>
    </g>
    <g id="xtick_29">
     <g id="line2d_68">
      <g>
       <use xlink:href="#me8d6a1331a" x="106.727455" y="204.966281" style="fill-opacity: 0.239216; stroke: #6b7280; stroke-width: 0.75"/>
      </g>
     </g>
    </g>
    <g id="xtick_30">
     <g id="line2d_69">
      <g>
       <use xlink:href="#me8d6a1331a" x="119.681027" y="204.966281" style="fill-opacity: 0.239216; stroke: #6b7280; stroke-width: 0.75"/>
      </g>
     </g>
    </g>
    <g id="xtick_31">
     <g id="line2d_70">
      <g>
       <use xlink:href="#me8d6a1331a" x="132.634598" y="204.966281" style="fill-opacity: 0.239216; stroke: #6b7280; stroke-width: 0.75"/>
      </g>
     </g>
    </g>
    <g id="xtick_32">
     <g id="line2d_71">
      <g>
       <use xlink:href="#me8d6a1331a" x="158.541741" y="204.966281" style="fill-opacity: 0.239216; stroke: #6b7280; stroke-width: 0.75"/>
      </g>
     </g>
    </g>
    <g id="xtick_33">
     <g id="line2d_72">
      <g>
       <use xlink:href="#me8d6a1331a" x="171.495313" y="204.966281" style="fill-opacity: 0.239216; stroke: #6b7280; stroke-width: 0.75"/>
      </g>
     </g>
    </g>
    <g id="xtick_34">
     <g id="line2d_73">
      <g>
       <use xlink:href="#me8d6a1331a" x="184.448884" y="204.966281" style="fill-opacity: 0.239216; stroke: #6b7280; stroke-width: 0.75"/>
      </g>
     </g>
    </g>
    <g id="xtick_35">
     <g id="line2d_74">
      <g>
       <use xlink:href="#me8d6a1331a" x="197.402455" y="204.966281" style="fill-opacity: 0.239216; stroke: #6b7280; stroke-width: 0.75"/>
      </g>
     </g>
    </g>
    <g id="xtick_36">
     <g id="line2d_75">
      <g>
       <use xlink:href="#me8d6a1331a" x="223.309598" y="204.966281" style="fill-opacity: 0.239216; stroke: #6b7280; stroke-width: 0.75"/>
      </g>
     </g>
    </g>
    <g id="xtick_37">
     <g id="line2d_76">
      <g>
       <use xlink:href="#me8d6a1331a" x="236.26317" y="204.966281" style="fill-opacity: 0.239216; stroke: #6b7280; stroke-width: 0.75"/>
      </g>
     </g>
    </g>
    <g id="xtick_38">
     <g id="line2d_77">
      <g>
       <use xlink:href="#me8d6a1331a" x="249.216741" y="204.966281" style="fill-opacity: 0.239216; stroke: #6b7280; stroke-width: 0.75"/>
      </g>
     </g>
    </g>
    <g id="xtick_39">
     <g id="line2d_78">
      <g>
       <use xlink:href="#me8d6a1331a" x="262.170313" y="204.966281" style="fill-opacity: 0.239216; stroke: #6b7280; stroke-width: 0.75"/>
      </g>
     </g>
    </g>
    <g id="xtick_40">
     <g id="line2d_79">
      <g>
       <use xlink:href="#me8d6a1331a" x="288.077455" y="204.966281" style="fill-opacity: 0.239216; stroke: #6b7280; stroke-width: 0.75"/>
      </g>
     </g>
    </g>
    <g id="xtick_41">
     <g id="line2d_80">
      <g>
       <use xlink:href="#me8d6a1331a" x="301.031027" y="204.966281" style="fill-opacity: 0.239216; stroke: #6b7280; stroke-width: 0.75"/>
      </g>
     </g>
    </g>
    <g id="xtick_42">
     <g id="line2d_81">
      <g>
       <use xlink:href="#me8d6a1331a" x="313.984598" y="204.966281" style="fill-opacity: 0.239216; stroke: #6b7280; stroke-width: 0.75"/>
      </g>
     </g>
    </g>
    <g id="xtick_43">
     <g id="line2d_82">
      <g>
       <use xlink:href="#me8d6a1331a" x="326.93817" y="204.966281" style="fill-opacity: 0.239216; stroke: #6b7280; stroke-width: 0.75"/>
      </g>
     </g>
    </g>
    <g id="xtick_44">
     <g id="line2d_83">
      <g>
       <use xlink:href="#me8d6a1331a" x="352.845312" y="204.966281" style="fill-opacity: 0.239216; stroke: #6b7280; stroke-width: 0.75"/>
      </g>
     </g>
    </g>
    <g id="xtick_45">
     <g id="line2d_84">
      <g>
       <use xlink:href="#me8d6a1331a" x="365.798884" y="204.966281" style="fill-opacity: 0.239216; stroke: #6b7280; stroke-width: 0.75"/>
      </g>
     </g>
    </g>
    <g id="xtick_46">
     <g id="line2d_85">
      <g>
       <use xlink:href="#me8d6a1331a" x="378.752455" y="204.966281" style="fill-opacity: 0.239216; stroke: #6b7280; stroke-width: 0.75"/>
      </g>
     </g>
    </g>
    <g id="xtick_47">
     <g id="line2d_86">
      <g>
       <use xlink:href="#me8d6a1331a" x="391.706027" y="204.966281" style="fill-opacity: 0.239216; stroke: #6b7280; stroke-width: 0.75"/>
      </g>
     </g>
    </g>
    <g id="xtick_48">
     <g id="line2d_87">
      <g>
       <use xlink:href="#me8d6a1331a" x="417.61317" y="204.966281" style="fill-opacity: 0.239216; stroke: #6b7280; stroke-width: 0.75"/>
      </g>
     </g>
    </g>
    <g id="xtick_49">
     <g id="line2d_88">
      <g>
       <use xlink:href="#me8d6a1331a" x="430.566741" y="204.966281" style="fill-opacity: 0.239216; stroke: #6b7280; stroke-width: 0.75"/>
      </g>
     </g>
    </g>
    <g id="xtick_50">
     <g id="line2d_89">
      <g>
       <use xlink:href="#me8d6a1331a" x="443.520312" y="204.966281" style="fill-opacity: 0.239216; stroke: #6b7280; stroke-width: 0.75"/>
      </g>
     </g>
    </g>
    <g id="text_19">
     <!-- SOM allocation (USD, thousands) -->
     <g style="fill: #6b7280" transform="translate(187.802188 240.797375) scale(0.09 -0.09)">
      <defs>
       <path id="DejaVuSans-53" d="M 3425 4513 
L 3425 3897 
Q 3066 4069 2747 4153 
Q 2428 4238 2131 4238 
Q 1616 4238 1336 4038 
Q 1056 3838 1056 3469 
Q 1056 3159 1242 3001 
Q 1428 2844 1947 2747 
L 2328 2669 
Q 3034 2534 3370 2195 
Q 3706 1856 3706 1288 
Q 3706 609 3251 259 
Q 2797 -91 1919 -91 
Q 1588 -91 1214 -16 
Q 841 59 441 206 
L 441 856 
Q 825 641 1194 531 
Q 1563 422 1919 422 
Q 2459 422 2753 634 
Q 3047 847 3047 1241 
Q 3047 1584 2836 1778 
Q 2625 1972 2144 2069 
L 1759 2144 
Q 1053 2284 737 2584 
Q 422 2884 422 3419 
Q 422 4038 858 4394 
Q 1294 4750 2059 4750 
Q 2388 4750 2728 4690 
Q 3069 4631 3425 4513 
z
" transform="scale(0.015625)"/>
       <path id="DejaVuSans-4f" d="M 2522 4238 
Q 1834 4238 1429 3725 
Q 1025 3213 1025 2328 
Q 1025 1447 1429 934 
Q 1834 422 2522 422 
Q 3209 422 3611 934 
Q 4013 1447 4013 2328 
Q 4013 3213 3611 3725 
Q 3209 4238 2522 4238 
z
M 2522 4750 
Q 3503 4750 4090 4092 
Q 4678 3434 4678 2328 
Q 4678 1225 4090 567 
Q 3503 -91 2522 -91 
Q 1538 -91 948 565 
Q 359 1222 359 2328 
Q 359 3434 948 4092 
Q 1538 4750 2522 4750 
z
" transform="scale(0.015625)"/>
       <path id="DejaVuSans-4d" d="M 628 4666 
L 1569 4666 
L 2759 1491 
L 3956 4666 
L 4897 4666 
L 4897 0 
L 4281 0 
L 4281 4097 
L 3078 897 
L 2444 897 
L 1241 4097 
L 1241 0 
L 628 0 
L 628 4666 
z
" transform="scale(0.015625)"/>
       <path id="DejaVuSans-20" transform="scale(0.015625)"/>
       <path id="DejaVuSans-61" d="M 2194 1759 
Q 1497 1759 1228 1600 
Q 959 1441 959 1056 
Q 959 750 1161 570 
Q 1363 391 1709 391 
Q 2188 391 2477 730 
Q 2766 1069 2766 1631 
L 2766 1759 
L 2194 1759 
z
M 3341 1997 
L 3341 0 
L 2766 0 
L 2766 531 
Q 2569 213 2275 61 
Q 1981 -91 1556 -91 
Q 1019 -91 701 211 
Q 384 513 384 1019 
Q 384 1609 779 1909 
Q 1175 2209 1959 2209 
L 2766 2209 
L 2766 2266 
Q 2766 2663 2505 2880 
Q 2244 3097 1772 3097 
Q 1472 3097 1187 3025 
Q 903 2953 641 2809 
L 641 3341 
Q 956 3463 1253 3523 
Q 1550 3584 1831 3584 
Q 2591 3584 2966 3190 
Q 3341 2797 3341 1997 
z
" transform="scale(0.015625)"/>
       <path id="DejaVuSans-6c" d="M 603 4863 
L 1178 4863 
L 1178 0 
L 603 0 
L 603 4863 
z
" transform="scale(0.015625)"/>
       <path id="DejaVuSans-6f" d="M 1959 3097 
Q 1497 3097 1228 2736 
Q 959 2375 959 1747 
Q 959 1119 1226 758 
Q 1494 397 1959 397 
Q 2419 397 2687 759 
Q 2956 1122 2956 1747 
Q 2956 2369 2687 2733 
Q 2419 3097 1959 3097 
z
M 1959 3584 
Q 2709 3584 3137 3096 
Q 3566 2609 3566 1747 
Q 3566 888 3137 398 
Q 2709 -91 1959 -91 
Q 1206 -91 779 398 
Q 353 888 353 1747 
Q 353 2609 779 3096 
Q 1206 3584 1959 3584 
z
" transform="scale(0.015625)"/>
       <path id="DejaVuSans-63" d="M 3122 3366 
L 3122 2828 
Q 2878 2963 2633 3030 
Q 2388 3097 2138 3097 
Q 1578 3097 1268 2742 
Q 959 2388 959 1747 
Q 959 1106 1268 751 
Q 1578 397 2138 397 
Q 2388 397 2633 464 
Q 2878 531 3122 666 
L 3122 134 
Q 2881 22 2623 -34 
Q 2366 -91 2075 -91 
Q 1284 -91 818 406 
Q 353 903 353 1747 
Q 353 2603 823 3093 
Q 1294 3584 2113 3584 
Q 2378 3584 2631 3529 
Q 2884 3475 3122 3366 
z
" transform="scale(0.015625)"/>
       <path id="DejaVuSans-74" d="M 1172 4494 
L 1172 3500 
L 2356 3500 
L 2356 3053 
L 1172 3053 
L 1172 1153 
Q 1172 725 1289 603 
Q 1406 481 1766 481 
L 2356 481 
L 2356 0 
L 1766 0 
Q 1100 0 847 248 
Q 594 497 594 1153 
L 594 3053 
L 172 3053 
L 172 3500 
L 594 3500 
L 594 4494 
L 1172 4494 
z
" transform="scale(0.015625)"/>
       <path id="DejaVuSans-69" d="M 603 3500 
L 1178 3500 
L 1178 0 
L 603 0 
L 603 3500 
z
M 603 4863 
L 1178 4863 
L 1178 4134 
L 603 4134 
L 603 4863 
z
" transform="scale(0.015625)"/>
       <path id="DejaVuSans-6e" d="M 3513 2113 
L 3513 0 
L 2938 0 
L 2938 2094 
Q 2938 2591 2744 2837 
Q 2550 3084 2163 3084 
Q 1697 3084 1428 2787 
Q 1159 2491 1159 1978 
L 1159 0 
L 581 0 
L 581 3500 
L 1159 3500 
L 1159 2956 
Q 1366 3272 1645 3428 
Q 1925 3584 2291 3584 
Q 2894 3584 3203 3211 
Q 3513 2838 3513 2113 
z
" transform="scale(0.015625)"/>
       <path id="DejaVuSans-28" d="M 1984 4856 
Q 1566 4138 1362 3434 
Q 1159 2731 1159 2009 
Q 1159 1288 1364 580 
Q 1569 -128 1984 -844 
L 1484 -844 
Q 1016 -109 783 600 
Q 550 1309 550 2009 
Q 550 2706 781 3412 
Q 1013 4119 1484 4856 
L 1984 4856 
z
" transform="scale(0.015625)"/>
       <path id="DejaVuSans-55" d="M 556 4666 
L 1191 4666 
L 1191 1831 
Q 1191 1081 1462 751 
Q 1734 422 2344 422 
Q 2950 422 3222 751 
Q 3494 1081 3494 1831 
L 3494 4666 
L 4128 4666 
L 4128 1753 
Q 4128 841 3676 375 
Q 3225 -91 2344 -91 
Q 1459 -91 1007 375 
Q 556 841 556 1753 
L 556 4666 
z
" transform="scale(0.015625)"/>
       <path id="DejaVuSans-44" d="M 1259 4147 
L 1259 519 
L 2022 519 
Q 2988 519 3436 956 
Q 3884 1394 3884 2338 
Q 3884 3275 3436 3711 
Q 2988 4147 2022 4147 
L 1259 4147 
z
M 628 4666 
L 1925 4666 
Q 3281 4666 3915 4102 
Q 4550 3538 4550 2338 
Q 4550 1131 3912 565 
Q 3275 0 1925 0 
L 628 0 
L 628 4666 
z
" transform="scale(0.015625)"/>
       <path id="DejaVuSans-2c" d="M 750 794 
L 1409 794 
L 1409 256 
L 897 -744 
L 494 -744 
L 750 256 
L 750 794 
z
" transform="scale(0.015625)"/>
       <path id="DejaVuSans-68" d="M 3513 2113 
L 3513 0 
L 2938 0 
L 2938 2094 
Q 2938 2591 2744 2837 
Q 2550 3084 2163 3084 
Q 1697 3084 1428 2787 
Q 1159 2491 1159 1978 
L 1159 0 
L 581 0 
L 581 4863 
L 1159 4863 
L 1159 2956 
Q 1366 3272 1645 3428 
Q 1925 3584 2291 3584 
Q 2894 3584 3203 3211 
Q 3513 2838 3513 2113 
z
" transform="scale(0.015625)"/>
       <path id="DejaVuSans-75" d="M 544 1381 
L 544 3500 
L 1119 3500 
L 1119 1403 
Q 1119 906 1312 657 
Q 1506 409 1894 409 
Q 2359 409 2629 706 
Q 2900 1003 2900 1516 
L 2900 3500 
L 3475 3500 
L 3475 0 
L 2900 0 
L 2900 538 
Q 2691 219 2414 64 
Q 2138 -91 1772 -91 
Q 1169 -91 856 284 
Q 544 659 544 1381 
z
M 1991 3584 
L 1991 3584 
z
" transform="scale(0.015625)"/>
       <path id="DejaVuSans-73" d="M 2834 3397 
L 2834 2853 
Q 2591 2978 2328 3040 
Q 2066 3103 1784 3103 
Q 1356 3103 1142 2972 
Q 928 2841 928 2578 
Q 928 2378 1081 2264 
Q 1234 2150 1697 2047 
L 1894 2003 
Q 2506 1872 2764 1633 
Q 3022 1394 3022 966 
Q 3022 478 2636 193 
Q 2250 -91 1575 -91 
Q 1294 -91 989 -36 
Q 684 19 347 128 
L 347 722 
Q 666 556 975 473 
Q 1284 391 1588 391 
Q 1994 391 2212 530 
Q 2431 669 2431 922 
Q 2431 1156 2273 1281 
Q 2116 1406 1581 1522 
L 1381 1569 
Q 847 1681 609 1914 
Q 372 2147 372 2553 
Q 372 3047 722 3315 
Q 1072 3584 1716 3584 
Q 2034 3584 2315 3537 
Q 2597 3491 2834 3397 
z
" transform="scale(0.015625)"/>
       <path id="DejaVuSans-64" d="M 2906 2969 
L 2906 4863 
L 3481 4863 
L 3481 0 
L 2906 0 
L 2906 525 
Q 2725 213 2448 61 
Q 2172 -91 1784 -91 
Q 1150 -91 751 415 
Q 353 922 353 1747 
Q 353 2572 751 3078 
Q 1150 3584 1784 3584 
Q 2172 3584 2448 3432 
Q 2725 3281 2906 2969 
z
M 947 1747 
Q 947 1113 1208 752 
Q 1469 391 1925 391 
Q 2381 391 2643 752 
Q 2906 1113 2906 1747 
Q 2906 2381 2643 2742 
Q 2381 3103 1925 3103 
Q 1469 3103 1208 2742 
Q 947 2381 947 1747 
z
" transform="scale(0.015625)"/>
       <path id="DejaVuSans-29" d="M 513 4856 
L 1013 4856 
Q 1481 4119 1714 3412 
Q 1947 2706 1947 2009 
Q 1947 1309 1714 600 
Q 1481 -109 1013 -844 
L 513 -844 
Q 928 -128 1133 580 
Q 1338 1288 1338 2009 
Q 1338 2731 1133 3434 
Q 928 4138 513 4856 
z
" transform="scale(0.015625)"/>
      </defs>
      <use xlink:href="#DejaVuSans-53"/>
      <use xlink:href="#DejaVuSans-4f" transform="translate(63.476562 0)"/>
      <use xlink:href="#DejaVuSans-4d" transform="translate(142.1875 0)"/>
      <use xlink:href="#DejaVuSans-20" transform="translate(228.466797 0)"/>
      <use xlink:href="#DejaVuSans-61" transform="translate(260.253906 0)"/>
      <use xlink:href="#DejaVuSans-6c" transform="translate(321.533203 0)"/>
      <use xlink:href="#DejaVuSans-6c" transform="translate(349.316406 0)"/>
      <use xlink:href="#DejaVuSans-6f" transform="translate(377.099609 0)"/>
      <use xlink:href="#DejaVuSans-63" transform="translate(438.28125 0)"/>
      <use xlink:href="#DejaVuSans-61" transform="translate(493.261719 0)"/>
      <use xlink:href="#DejaVuSans-74" transform="translate(554.541016 0)"/>
      <use xlink:href="#DejaVuSans-69" transform="translate(593.75 0)"/>
      <use xlink:href="#DejaVuSans-6f" transform="translate(621.533203 0)"/>
      <use xlink:href="#DejaVuSans-6e" transform="translate(682.714844 0)"/>
      <use xlink:href="#DejaVuSans-20" transform="translate(746.09375 0)"/>
      <use xlink:href="#DejaVuSans-28" transform="translate(777.880859 0)"/>
      <use xlink:href="#DejaVuSans-55" transform="translate(816.894531 0)"/>
      <use xlink:href="#DejaVuSans-53" transform="translate(890.087891 0)"/>
      <use xlink:href="#DejaVuSans-44" transform="translate(953.564453 0)"/>
      <use xlink:href="#DejaVuSans-2c" transform="translate(1030.566406 0)"/>
      <use xlink:href="#DejaVuSans-20" transform="translate(1062.353516 0)"/>
      <use xlink:href="#DejaVuSans-74" transform="translate(1094.140625 0)"/>
      <use xlink:href="#DejaVuSans-68" transform="translate(1133.349609 0)"/>
      <use xlink:href="#DejaVuSans-6f" transform="translate(1196.728516 0)"/>
      <use xlink:href="#DejaVuSans-75" transform="translate(1257.910156 0)"/>
      <use xlink:href="#DejaVuSans-73" transform="translate(1321.289062 0)"/>
      <use xlink:href="#DejaVuSans-61" transform="translate(1373.388672 0)"/>
      <use xlink:href="#DejaVuSans-6e" transform="translate(1434.667969 0)"/>
      <use xlink:href="#DejaVuSans-64" transform="translate(1498.046875 0)"/>
      <use xlink:href="#DejaVuSans-73" transform="translate(1561.523438 0)"/>
      <use xlink:href="#DejaVuSans-29" transform="translate(1613.623047 0)"/>
     </g>
    </g>
   </g>
   <g id="matplotlib.axis_4">
    <g id="ytick_22">
     <g id="line2d_90">
      <path d="M 80.820312 53.015222 
L 443.520312 53.015222 
" clip-path="url(#p3aca2273a0)" style="fill: none; stroke: #000000; stroke-opacity: 0.24; stroke-width: 0.75; stroke-linecap: square"/>
     </g>
     <g id="line2d_91">
      <g>
       <use xlink:href="#m3be31b6576" x="80.820312" y="53.015222" style="fill-opacity: 0.239216; stroke: #6b7280; stroke-width: 0.75"/>
      </g>
     </g>
     <g id="text_20">
      <!-- Seoul -->
      <g style="fill: #6b7280" transform="translate(39.834375 51.975379) scale(0.1 -0.1)">
       <defs>
        <path id="DejaVuSans-65" d="M 3597 1894 
L 3597 1613 
L 953 1613 
Q 991 1019 1311 708 
Q 1631 397 2203 397 
Q 2534 397 2845 478 
Q 3156 559 3463 722 
L 3463 178 
Q 3153 47 2828 -22 
Q 2503 -91 2169 -91 
Q 1331 -91 842 396 
Q 353 884 353 1716 
Q 353 2575 817 3079 
Q 1281 3584 2069 3584 
Q 2775 3584 3186 3129 
Q 3597 2675 3597 1894 
z
M 3022 2063 
Q 3016 2534 2758 2815 
Q 2500 3097 2075 3097 
Q 1594 3097 1305 2825 
Q 1016 2553 972 2059 
L 3022 2063 
z
" transform="scale(0.015625)"/>
       </defs>
       <use xlink:href="#DejaVuSans-53"/>
       <use xlink:href="#DejaVuSans-65" transform="translate(63.476562 0)"/>
       <use xlink:href="#DejaVuSans-6f" transform="translate(125 0)"/>
       <use xlink:href="#DejaVuSans-75" transform="translate(186.181641 0)"/>
       <use xlink:href="#DejaVuSans-6c" transform="translate(249.560547 0)"/>
      </g>
      <!-- (Korea First) -->
      <g style="fill: #6b7280" transform="translate(7.2 63.173191) scale(0.1 -0.1)">
       <defs>
        <path id="DejaVuSans-4b" d="M 628 4666 
L 1259 4666 
L 1259 2694 
L 3353 4666 
L 4166 4666 
L 1850 2491 
L 4331 0 
L 3500 0 
L 1259 2247 
L 1259 0 
L 628 0 
L 628 4666 
z
" transform="scale(0.015625)"/>
        <path id="DejaVuSans-72" d="M 2631 2963 
Q 2534 3019 2420 3045 
Q 2306 3072 2169 3072 
Q 1681 3072 1420 2755 
Q 1159 2438 1159 1844 
L 1159 0 
L 581 0 
L 581 3500 
L 1159 3500 
L 1159 2956 
Q 1341 3275 1631 3429 
Q 1922 3584 2338 3584 
Q 2397 3584 2469 3576 
Q 2541 3569 2628 3553 
L 2631 2963 
z
" transform="scale(0.015625)"/>
        <path id="DejaVuSans-46" d="M 628 4666 
L 3309 4666 
L 3309 4134 
L 1259 4134 
L 1259 2759 
L 3109 2759 
L 3109 2228 
L 1259 2228 
L 1259 0 
L 628 0 
L 628 4666 
z
" transform="scale(0.015625)"/>
       </defs>
       <use xlink:href="#DejaVuSans-28"/>
       <use xlink:href="#DejaVuSans-4b" transform="translate(39.013672 0)"/>
       <use xlink:href="#DejaVuSans-6f" transform="translate(99.589844 0)"/>
       <use xlink:href="#DejaVuSans-72" transform="translate(160.771484 0)"/>
       <use xlink:href="#DejaVuSans-65" transform="translate(199.634766 0)"/>
       <use xlink:href="#DejaVuSans-61" transform="translate(261.158203 0)"/>
       <use xlink:href="#DejaVuSans-20" transform="translate(322.4375 0)"/>
       <use xlink:href="#DejaVuSans-46" transform="translate(354.224609 0)"/>
       <use xlink:href="#DejaVuSans-69" transform="translate(404.494141 0)"/>
       <use xlink:href="#DejaVuSans-72" transform="translate(432.277344 0)"/>
       <use xlink:href="#DejaVuSans-73" transform="translate(473.390625 0)"/>
       <use xlink:href="#DejaVuSans-74" transform="translate(525.490234 0)"/>
       <use xlink:href="#DejaVuSans-29" transform="translate(564.699219 0)"/>
      </g>
     </g>
    </g>
    <g id="ytick_23">
     <g id="line2d_92">
      <path d="M 80.820312 116.262281 
L 443.520312 116.262281 
" clip-path="url(#p3aca2273a0)" style="fill: none; stroke: #000000; stroke-opacity: 0.24; stroke-width: 0.75; stroke-linecap: square"/>
     </g>
     <g id="line2d_93">
      <g>
       <use xlink:href="#m3be31b6576" x="80.820312" y="116.262281" style="fill-opacity: 0.239216; stroke: #6b7280; stroke-width: 0.75"/>
      </g>
     </g>
     <g id="text_21">
      <!-- Tokyo -->
      <g style="fill: #6b7280" transform="translate(39.578125 120.0615) scale(0.1 -0.1)">
       <defs>
        <path id="DejaVuSans-54" d="M -19 4666 
L 3928 4666 
L 3928 4134 
L 2272 4134 
L 2272 0 
L 1638 0 
L 1638 4134 
L -19 4134 
L -19 4666 
z
" transform="scale(0.015625)"/>
        <path id="DejaVuSans-6b" d="M 581 4863 
L 1159 4863 
L 1159 1991 
L 2875 3500 
L 3609 3500 
L 1753 1863 
L 3688 0 
L 2938 0 
L 1159 1709 
L 1159 0 
L 581 0 
L 581 4863 
z
" transform="scale(0.015625)"/>
        <path id="DejaVuSans-79" d="M 2059 -325 
Q 1816 -950 1584 -1140 
Q 1353 -1331 966 -1331 
L 506 -1331 
L 506 -850 
L 844 -850 
Q 1081 -850 1212 -737 
Q 1344 -625 1503 -206 
L 1606 56 
L 191 3500 
L 800 3500 
L 1894 763 
L 2988 3500 
L 3597 3500 
L 2059 -325 
z
" transform="scale(0.015625)"/>
       </defs>
       <use xlink:href="#DejaVuSans-54"/>
       <use xlink:href="#DejaVuSans-6f" transform="translate(44.083984 0)"/>
       <use xlink:href="#DejaVuSans-6b" transform="translate(105.265625 0)"/>
       <use xlink:href="#DejaVuSans-79" transform="translate(159.550781 0)"/>
       <use xlink:href="#DejaVuSans-6f" transform="translate(218.730469 0)"/>
      </g>
     </g>
    </g>
    <g id="ytick_24">
     <g id="line2d_94">
      <path d="M 80.820312 179.50934 
L 443.520312 179.50934 
" clip-path="url(#p3aca2273a0)" style="fill: none; stroke: #000000; stroke-opacity: 0.24; stroke-width: 0.75; stroke-linecap: square"/>
     </g>
     <g id="line2d_95">
      <g>
       <use xlink:href="#m3be31b6576" x="80.820312" y="179.50934" style="fill-opacity: 0.239216; stroke: #6b7280; stroke-width: 0.75"/>
      </g>
     </g>
     <g id="text_22">
      <!-- Singapore -->
      <g style="fill: #6b7280" transform="translate(17.123437 183.308559) scale(0.1 -0.1)">
       <defs>
        <path id="DejaVuSans-67" d="M 2906 1791 
Q 2906 2416 2648 2759 
Q 2391 3103 1925 3103 
Q 1463 3103 1205 2759 
Q 947 2416 947 1791 
Q 947 1169 1205 825 
Q 1463 481 1925 481 
Q 2391 481 2648 825 
Q 2906 1169 2906 1791 
z
M 3481 434 
Q 3481 -459 3084 -895 
Q 2688 -1331 1869 -1331 
Q 1566 -1331 1297 -1286 
Q 1028 -1241 775 -1147 
L 775 -588 
Q 1028 -725 1275 -790 
Q 1522 -856 1778 -856 
Q 2344 -856 2625 -561 
Q 2906 -266 2906 331 
L 2906 616 
Q 2728 306 2450 153 
Q 2172 0 1784 0 
Q 1141 0 747 490 
Q 353 981 353 1791 
Q 353 2603 747 3093 
Q 1141 3584 1784 3584 
Q 2172 3584 2450 3431 
Q 2728 3278 2906 2969 
L 2906 3500 
L 3481 3500 
L 3481 434 
z
" transform="scale(0.015625)"/>
        <path id="DejaVuSans-70" d="M 1159 525 
L 1159 -1331 
L 581 -1331 
L 581 3500 
L 1159 3500 
L 1159 2969 
Q 1341 3281 1617 3432 
Q 1894 3584 2278 3584 
Q 2916 3584 3314 3078 
Q 3713 2572 3713 1747 
Q 3713 922 3314 415 
Q 2916 -91 2278 -91 
Q 1894 -91 1617 61 
Q 1341 213 1159 525 
z
M 3116 1747 
Q 3116 2381 2855 2742 
Q 2594 3103 2138 3103 
Q 1681 3103 1420 2742 
Q 1159 2381 1159 1747 
Q 1159 1113 1420 752 
Q 1681 391 2138 391 
Q 2594 391 2855 752 
Q 3116 1113 3116 1747 
z
" transform="scale(0.015625)"/>
       </defs>
       <use xlink:href="#DejaVuSans-53"/>
       <use xlink:href="#DejaVuSans-69" transform="translate(63.476562 0)"/>
       <use xlink:href="#DejaVuSans-6e" transform="translate(91.259766 0)"/>
       <use xlink:href="#DejaVuSans-67" transform="translate(154.638672 0)"/>
       <use xlink:href="#DejaVuSans-61" transform="translate(218.115234 0)"/>
       <use xlink:href="#DejaVuSans-70" transform="translate(279.394531 0)"/>
       <use xlink:href="#DejaVuSans-6f" transform="translate(342.871094 0)"/>
       <use xlink:href="#DejaVuSans-72" transform="translate(404.052734 0)"/>
       <use xlink:href="#DejaVuSans-65" transform="translate(442.916016 0)"/>
      </g>
     </g>
    </g>
    <g id="ytick_25">
     <g id="line2d_96">
      <g>
       <use xlink:href="#m57e66270d4" x="80.820312" y="27.716399" style="fill-opacity: 0.239216; stroke: #6b7280; stroke-width: 0.75"/>
      </g>
     </g>
    </g>
    <g id="ytick_26">
     <g id="line2d_97">
      <g>
       <use xlink:href="#m57e66270d4" x="80.820312" y="40.365811" style="fill-opacity: 0.239216; stroke: #6b7280; stroke-width: 0.75"/>
      </g>
     </g>
    </g>
    <g id="ytick_27">
     <g id="line2d_98">
      <g>
       <use xlink:href="#m57e66270d4" x="80.820312" y="65.664634" style="fill-opacity: 0.239216; stroke: #6b7280; stroke-width: 0.75"/>
      </g>
     </g>
    </g>
    <g id="ytick_28">
     <g id="line2d_99">
      <g>
       <use xlink:href="#m57e66270d4" x="80.820312" y="78.314046" style="fill-opacity: 0.239216; stroke: #6b7280; stroke-width: 0.75"/>
      </g>
     </g>
    </g>
    <g id="ytick_29">
     <g id="line2d_100">
      <g>
       <use xlink:href="#m57e66270d4" x="80.820312" y="90.963458" style="fill-opacity: 0.239216; stroke: #6b7280; stroke-width: 0.75"/>
      </g>
     </g>
    </g>
    <g id="ytick_30">
     <g id="line2d_101">
      <g>
       <use xlink:href="#m57e66270d4" x="80.820312" y="103.612869" style="fill-opacity: 0.239216; stroke: #6b7280; stroke-width: 0.75"/>
      </g>
     </g>
    </g>
    <g id="ytick_31">
     <g id="line2d_102">
      <g>
       <use xlink:href="#m57e66270d4" x="80.820312" y="128.911693" style="fill-opacity: 0.239216; stroke: #6b7280; stroke-width: 0.75"/>
      </g>
     </g>
    </g>
    <g id="ytick_32">
     <g id="line2d_103">
      <g>
       <use xlink:href="#m57e66270d4" x="80.820312" y="141.561105" style="fill-opacity: 0.239216; stroke: #6b7280; stroke-width: 0.75"/>
      </g>
     </g>
    </g>
    <g id="ytick_33">
     <g id="line2d_104">
      <g>
       <use xlink:href="#m57e66270d4" x="80.820312" y="154.210517" style="fill-opacity: 0.239216; stroke: #6b7280; stroke-width: 0.75"/>
      </g>
     </g>
    </g>
    <g id="ytick_34">
     <g id="line2d_105">
      <g>
       <use xlink:href="#m57e66270d4" x="80.820312" y="166.859928" style="fill-opacity: 0.239216; stroke: #6b7280; stroke-width: 0.75"/>
      </g>
     </g>
    </g>
    <g id="ytick_35">
     <g id="line2d_106">
      <g>
       <use xlink:href="#m57e66270d4" x="80.820312" y="192.158752" style="fill-opacity: 0.239216; stroke: #6b7280; stroke-width: 0.75"/>
      </g>
     </g>
    </g>
    <g id="ytick_36">
     <g id="line2d_107">
      <g>
       <use xlink:href="#m57e66270d4" x="80.820312" y="204.808164" style="fill-opacity: 0.239216; stroke: #6b7280; stroke-width: 0.75"/>
      </g>
     </g>
    </g>
   </g>
   <g id="patch_11">
    <path d="M 80.820312 204.966281 
L 80.820312 27.558281 
" style="fill: none; stroke: #e5e7eb; stroke-linejoin: miter; stroke-linecap: square"/>
   </g>
   <g id="patch_12">
    <path d="M 80.820312 204.966281 
L 443.520312 204.966281 
" style="fill: none; stroke: #e5e7eb; stroke-linejoin: miter; stroke-linecap: square"/>
   </g>
   <g id="text_23">
    <!-- $225K  ·  50% -->
    <g style="fill: #1f2933" transform="translate(378.752455 55.774597) scale(0.1 -0.1)">
     <defs>
      <path id="DejaVuSans-Bold-24" d="M 2484 -941 
L 1978 -941 
L 1975 0 
Q 1584 16 1218 87 
Q 853 159 506 288 
L 506 1106 
Q 866 922 1233 823 
Q 1600 725 1978 713 
L 1978 1684 
L 1875 1703 
Q 1128 1834 814 2115 
Q 500 2397 500 2925 
Q 500 3484 883 3798 
Q 1266 4113 1975 4141 
L 1978 4863 
L 2484 4863 
L 2484 4153 
Q 2797 4128 3109 4075 
Q 3422 4022 3738 3938 
L 3738 3144 
Q 3425 3275 3112 3348 
Q 2800 3422 2484 3438 
L 2484 2541 
L 2584 2522 
Q 3378 2397 3698 2105 
Q 4019 1813 4019 1241 
Q 4019 666 3637 358 
Q 3256 50 2484 6 
L 2484 -941 
z
M 1978 2613 
L 1978 3428 
Q 1756 3416 1623 3308 
Q 1491 3200 1491 3034 
Q 1491 2850 1612 2745 
Q 1734 2641 1978 2613 
z
M 2484 1594 
L 2484 725 
Q 2756 728 2892 831 
Q 3028 934 3028 1141 
Q 3028 1353 2903 1458 
Q 2778 1563 2484 1594 
z
" transform="scale(0.015625)"/>
      <path id="DejaVuSans-Bold-32" d="M 1844 884 
L 3897 884 
L 3897 0 
L 506 0 
L 506 884 
L 2209 2388 
Q 2438 2594 2547 2791 
Q 2656 2988 2656 3200 
Q 2656 3528 2436 3728 
Q 2216 3928 1850 3928 
Q 1569 3928 1234 3808 
Q 900 3688 519 3450 
L 519 4475 
Q 925 4609 1322 4679 
Q 1719 4750 2100 4750 
Q 2938 4750 3402 4381 
Q 3866 4013 3866 3353 
Q 3866 2972 3669 2642 
Q 3472 2313 2841 1759 
L 1844 884 
z
" transform="scale(0.015625)"/>
      <path id="DejaVuSans-Bold-35" d="M 678 4666 
L 3669 4666 
L 3669 3781 
L 1638 3781 
L 1638 3059 
Q 1775 3097 1914 3117 
Q 2053 3138 2203 3138 
Q 3056 3138 3531 2711 
Q 4006 2284 4006 1522 
Q 4006 766 3489 337 
Q 2972 -91 2053 -91 
Q 1656 -91 1267 -14 
Q 878 63 494 219 
L 494 1166 
Q 875 947 1217 837 
Q 1559 728 1863 728 
Q 2300 728 2551 942 
Q 2803 1156 2803 1522 
Q 2803 1891 2551 2103 
Q 2300 2316 1863 2316 
Q 1603 2316 1309 2248 
Q 1016 2181 678 2041 
L 678 4666 
z
" transform="scale(0.015625)"/>
      <path id="DejaVuSans-Bold-4b" d="M 588 4666 
L 1791 4666 
L 1791 2963 
L 3525 4666 
L 4922 4666 
L 2675 2456 
L 5153 0 
L 3647 0 
L 1791 1838 
L 1791 0 
L 588 0 
L 588 4666 
z
" transform="scale(0.015625)"/>
      <path id="DejaVuSans-Bold-20" transform="scale(0.015625)"/>
      <path id="DejaVuSans-Bold-b7" d="M 653 2828 
L 1778 2828 
L 1778 1619 
L 653 1619 
L 653 2828 
z
" transform="scale(0.015625)"/>
      <path id="DejaVuSans-Bold-30" d="M 2944 2338 
Q 2944 3213 2780 3570 
Q 2616 3928 2228 3928 
Q 1841 3928 1675 3570 
Q 1509 3213 1509 2338 
Q 1509 1453 1675 1090 
Q 1841 728 2228 728 
Q 2613 728 2778 1090 
Q 2944 1453 2944 2338 
z
M 4147 2328 
Q 4147 1169 3647 539 
Q 3147 -91 2228 -91 
Q 1306 -91 806 539 
Q 306 1169 306 2328 
Q 306 3491 806 4120 
Q 1306 4750 2228 4750 
Q 3147 4750 3647 4120 
Q 4147 3491 4147 2328 
z
" transform="scale(0.015625)"/>
      <path id="DejaVuSans-Bold-25" d="M 4959 1925 
Q 4738 1925 4616 1733 
Q 4494 1541 4494 1184 
Q 4494 825 4614 633 
Q 4734 441 4959 441 
Q 5184 441 5303 633 
Q 5422 825 5422 1184 
Q 5422 1541 5301 1733 
Q 5181 1925 4959 1925 
z
M 4959 2450 
Q 5541 2450 5875 2112 
Q 6209 1775 6209 1184 
Q 6209 594 5875 251 
Q 5541 -91 4959 -91 
Q 4378 -91 4042 251 
Q 3706 594 3706 1184 
Q 3706 1772 4042 2111 
Q 4378 2450 4959 2450 
z
M 2094 -91 
L 1403 -91 
L 4319 4750 
L 5013 4750 
L 2094 -91 
z
M 1453 4750 
Q 2034 4750 2367 4411 
Q 2700 4072 2700 3481 
Q 2700 2891 2367 2550 
Q 2034 2209 1453 2209 
Q 872 2209 539 2550 
Q 206 2891 206 3481 
Q 206 4072 539 4411 
Q 872 4750 1453 4750 
z
M 1453 4225 
Q 1228 4225 1106 4031 
Q 984 3838 984 3481 
Q 984 3122 1106 2926 
Q 1228 2731 1453 2731 
Q 1678 2731 1798 2926 
Q 1919 3122 1919 3481 
Q 1919 3838 1797 4031 
Q 1675 4225 1453 4225 
z
" transform="scale(0.015625)"/>
     </defs>
     <use xlink:href="#DejaVuSans-Bold-24"/>
     <use xlink:href="#DejaVuSans-Bold-32" transform="translate(69.580078 0)"/>
     <use xlink:href="#DejaVuSans-Bold-32" transform="translate(139.160156 0)"/>
     <use xlink:href="#DejaVuSans-Bold-35" transform="translate(208.740234 0)"/>
     <use xlink:href="#DejaVuSans-Bold-4b" transform="translate(278.320312 0)"/>
     <use xlink:href="#DejaVuSans-Bold-20" transform="translate(355.810547 0)"/>
     <use xlink:href="#DejaVuSans-Bold-20" transform="translate(390.625 0)"/>
     <use xlink:href="#DejaVuSans-Bold-b7" transform="translate(425.439453 0)"/>
     <use xlink:href="#DejaVuSans-Bold-20" transform="translate(463.427734 0)"/>
     <use xlink:href="#DejaVuSans-Bold-20" transform="translate(498.242188 0)"/>
     <use xlink:href="#DejaVuSans-Bold-35" transform="translate(533.056641 0)"/>
     <use xlink:href="#DejaVuSans-Bold-30" transform="translate(602.636719 0)"/>
     <use xlink:href="#DejaVuSans-Bold-25" transform="translate(672.216797 0)"/>
    </g>
   </g>
   <g id="text_24">
    <!-- $135K  ·  30% -->
    <g style="fill: #1f2933" transform="translate(262.170313 119.021656) scale(0.1 -0.1)">
     <defs>
      <path id="DejaVuSans-Bold-31" d="M 750 831 
L 1813 831 
L 1813 3847 
L 722 3622 
L 722 4441 
L 1806 4666 
L 2950 4666 
L 2950 831 
L 4013 831 
L 4013 0 
L 750 0 
L 750 831 
z
" transform="scale(0.015625)"/>
      <path id="DejaVuSans-Bold-33" d="M 2981 2516 
Q 3453 2394 3698 2092 
Q 3944 1791 3944 1325 
Q 3944 631 3412 270 
Q 2881 -91 1863 -91 
Q 1503 -91 1142 -33 
Q 781 25 428 141 
L 428 1069 
Q 766 900 1098 814 
Q 1431 728 1753 728 
Q 2231 728 2486 893 
Q 2741 1059 2741 1369 
Q 2741 1688 2480 1852 
Q 2219 2016 1709 2016 
L 1228 2016 
L 1228 2791 
L 1734 2791 
Q 2188 2791 2409 2933 
Q 2631 3075 2631 3366 
Q 2631 3634 2415 3781 
Q 2200 3928 1806 3928 
Q 1516 3928 1219 3862 
Q 922 3797 628 3669 
L 628 4550 
Q 984 4650 1334 4700 
Q 1684 4750 2022 4750 
Q 2931 4750 3382 4451 
Q 3834 4153 3834 3553 
Q 3834 3144 3618 2883 
Q 3403 2622 2981 2516 
z
" transform="scale(0.015625)"/>
     </defs>
     <use xlink:href="#DejaVuSans-Bold-24"/>
     <use xlink:href="#DejaVuSans-Bold-31" transform="translate(69.580078 0)"/>
     <use xlink:href="#DejaVuSans-Bold-33" transform="translate(139.160156 0)"/>
     <use xlink:href="#DejaVuSans-Bold-35" transform="translate(208.740234 0)"/>
     <use xlink:href="#DejaVuSans-Bold-4b" transform="translate(278.320312 0)"/>
     <use xlink:href="#DejaVuSans-Bold-20" transform="translate(355.810547 0)"/>
     <use xlink:href="#DejaVuSans-Bold-20" transform="translate(390.625 0)"/>
     <use xlink:href="#DejaVuSans-Bold-b7" transform="translate(425.439453 0)"/>
     <use xlink:href="#DejaVuSans-Bold-20" transform="translate(463.427734 0)"/>
     <use xlink:href="#DejaVuSans-Bold-20" transform="translate(498.242188 0)"/>
     <use xlink:href="#DejaVuSans-Bold-33" transform="translate(533.056641 0)"/>
     <use xlink:href="#DejaVuSans-Bold-30" transform="translate(602.636719 0)"/>
     <use xlink:href="#DejaVuSans-Bold-25" transform="translate(672.216797 0)"/>
    </g>
   </g>
   <g id="text_25">
    <!-- $90K  ·  20% -->
    <g style="fill: #1f2933" transform="translate(203.879241 182.268715) scale(0.1 -0.1)">
     <defs>
      <path id="DejaVuSans-Bold-39" d="M 641 103 
L 641 966 
Q 928 831 1190 764 
Q 1453 697 1709 697 
Q 2247 697 2547 995 
Q 2847 1294 2900 1881 
Q 2688 1725 2447 1647 
Q 2206 1569 1925 1569 
Q 1209 1569 770 1986 
Q 331 2403 331 3084 
Q 331 3838 820 4291 
Q 1309 4744 2131 4744 
Q 3044 4744 3544 4128 
Q 4044 3513 4044 2388 
Q 4044 1231 3459 570 
Q 2875 -91 1856 -91 
Q 1528 -91 1228 -42 
Q 928 6 641 103 
z
M 2125 2350 
Q 2441 2350 2600 2554 
Q 2759 2759 2759 3169 
Q 2759 3575 2600 3781 
Q 2441 3988 2125 3988 
Q 1809 3988 1650 3781 
Q 1491 3575 1491 3169 
Q 1491 2759 1650 2554 
Q 1809 2350 2125 2350 
z
" transform="scale(0.015625)"/>
     </defs>
     <use xlink:href="#DejaVuSans-Bold-24"/>
     <use xlink:href="#DejaVuSans-Bold-39" transform="translate(69.580078 0)"/>
     <use xlink:href="#DejaVuSans-Bold-30" transform="translate(139.160156 0)"/>
     <use xlink:href="#DejaVuSans-Bold-4b" transform="translate(208.740234 0)"/>
     <use xlink:href="#DejaVuSans-Bold-20" transform="translate(286.230469 0)"/>
     <use xlink:href="#DejaVuSans-Bold-20" transform="translate(321.044922 0)"/>
     <use xlink:href="#DejaVuSans-Bold-b7" transform="translate(355.859375 0)"/>
     <use xlink:href="#DejaVuSans-Bold-20" transform="translate(393.847656 0)"/>
     <use xlink:href="#DejaVuSans-Bold-20" transform="translate(428.662109 0)"/>
     <use xlink:href="#DejaVuSans-Bold-32" transform="translate(463.476562 0)"/>
     <use xlink:href="#DejaVuSans-Bold-30" transform="translate(533.056641 0)"/>
     <use xlink:href="#DejaVuSans-Bold-25" transform="translate(602.636719 0)"/>
    </g>
   </g>
   <g id="text_26">
    <!-- SOM target regional split  ·  $450K ARR -->
    <g style="fill: #1f2933" transform="translate(80.820312 15.558281) scale(0.11 -0.11)">
     <defs>
      <path id="DejaVuSans-Bold-53" d="M 3834 4519 
L 3834 3531 
Q 3450 3703 3084 3790 
Q 2719 3878 2394 3878 
Q 1963 3878 1756 3759 
Q 1550 3641 1550 3391 
Q 1550 3203 1689 3098 
Q 1828 2994 2194 2919 
L 2706 2816 
Q 3484 2659 3812 2340 
Q 4141 2022 4141 1434 
Q 4141 663 3683 286 
Q 3225 -91 2284 -91 
Q 1841 -91 1394 -6 
Q 947 78 500 244 
L 500 1259 
Q 947 1022 1364 901 
Q 1781 781 2169 781 
Q 2563 781 2772 912 
Q 2981 1044 2981 1288 
Q 2981 1506 2839 1625 
Q 2697 1744 2272 1838 
L 1806 1941 
Q 1106 2091 782 2419 
Q 459 2747 459 3303 
Q 459 4000 909 4375 
Q 1359 4750 2203 4750 
Q 2588 4750 2994 4692 
Q 3400 4634 3834 4519 
z
" transform="scale(0.015625)"/>
      <path id="DejaVuSans-Bold-4f" d="M 2719 3878 
Q 2169 3878 1866 3472 
Q 1563 3066 1563 2328 
Q 1563 1594 1866 1187 
Q 2169 781 2719 781 
Q 3272 781 3575 1187 
Q 3878 1594 3878 2328 
Q 3878 3066 3575 3472 
Q 3272 3878 2719 3878 
z
M 2719 4750 
Q 3844 4750 4481 4106 
Q 5119 3463 5119 2328 
Q 5119 1197 4481 553 
Q 3844 -91 2719 -91 
Q 1597 -91 958 553 
Q 319 1197 319 2328 
Q 319 3463 958 4106 
Q 1597 4750 2719 4750 
z
" transform="scale(0.015625)"/>
      <path id="DejaVuSans-Bold-4d" d="M 588 4666 
L 2119 4666 
L 3181 2169 
L 4250 4666 
L 5778 4666 
L 5778 0 
L 4641 0 
L 4641 3413 
L 3566 897 
L 2803 897 
L 1728 3413 
L 1728 0 
L 588 0 
L 588 4666 
z
" transform="scale(0.015625)"/>
      <path id="DejaVuSans-Bold-74" d="M 1759 4494 
L 1759 3500 
L 2913 3500 
L 2913 2700 
L 1759 2700 
L 1759 1216 
Q 1759 972 1856 886 
Q 1953 800 2241 800 
L 2816 800 
L 2816 0 
L 1856 0 
Q 1194 0 917 276 
Q 641 553 641 1216 
L 641 2700 
L 84 2700 
L 84 3500 
L 641 3500 
L 641 4494 
L 1759 4494 
z
" transform="scale(0.015625)"/>
      <path id="DejaVuSans-Bold-61" d="M 2106 1575 
Q 1756 1575 1579 1456 
Q 1403 1338 1403 1106 
Q 1403 894 1545 773 
Q 1688 653 1941 653 
Q 2256 653 2472 879 
Q 2688 1106 2688 1447 
L 2688 1575 
L 2106 1575 
z
M 3816 1997 
L 3816 0 
L 2688 0 
L 2688 519 
Q 2463 200 2181 54 
Q 1900 -91 1497 -91 
Q 953 -91 614 226 
Q 275 544 275 1050 
Q 275 1666 698 1953 
Q 1122 2241 2028 2241 
L 2688 2241 
L 2688 2328 
Q 2688 2594 2478 2717 
Q 2269 2841 1825 2841 
Q 1466 2841 1156 2769 
Q 847 2697 581 2553 
L 581 3406 
Q 941 3494 1303 3539 
Q 1666 3584 2028 3584 
Q 2975 3584 3395 3211 
Q 3816 2838 3816 1997 
z
" transform="scale(0.015625)"/>
      <path id="DejaVuSans-Bold-72" d="M 3138 2547 
Q 2991 2616 2845 2648 
Q 2700 2681 2553 2681 
Q 2122 2681 1889 2404 
Q 1656 2128 1656 1613 
L 1656 0 
L 538 0 
L 538 3500 
L 1656 3500 
L 1656 2925 
Q 1872 3269 2151 3426 
Q 2431 3584 2822 3584 
Q 2878 3584 2943 3579 
Q 3009 3575 3134 3559 
L 3138 2547 
z
" transform="scale(0.015625)"/>
      <path id="DejaVuSans-Bold-67" d="M 2919 594 
Q 2688 288 2409 144 
Q 2131 0 1766 0 
Q 1125 0 706 504 
Q 288 1009 288 1791 
Q 288 2575 706 3076 
Q 1125 3578 1766 3578 
Q 2131 3578 2409 3434 
Q 2688 3291 2919 2981 
L 2919 3500 
L 4044 3500 
L 4044 353 
Q 4044 -491 3511 -936 
Q 2978 -1381 1966 -1381 
Q 1638 -1381 1331 -1331 
Q 1025 -1281 716 -1178 
L 716 -306 
Q 1009 -475 1290 -558 
Q 1572 -641 1856 -641 
Q 2406 -641 2662 -400 
Q 2919 -159 2919 353 
L 2919 594 
z
M 2181 2772 
Q 1834 2772 1640 2515 
Q 1447 2259 1447 1791 
Q 1447 1309 1634 1061 
Q 1822 813 2181 813 
Q 2531 813 2725 1069 
Q 2919 1325 2919 1791 
Q 2919 2259 2725 2515 
Q 2531 2772 2181 2772 
z
" transform="scale(0.015625)"/>
      <path id="DejaVuSans-Bold-65" d="M 4031 1759 
L 4031 1441 
L 1416 1441 
Q 1456 1047 1700 850 
Q 1944 653 2381 653 
Q 2734 653 3104 758 
Q 3475 863 3866 1075 
L 3866 213 
Q 3469 63 3072 -14 
Q 2675 -91 2278 -91 
Q 1328 -91 801 392 
Q 275 875 275 1747 
Q 275 2603 792 3093 
Q 1309 3584 2216 3584 
Q 3041 3584 3536 3087 
Q 4031 2591 4031 1759 
z
M 2881 2131 
Q 2881 2450 2695 2645 
Q 2509 2841 2209 2841 
Q 1884 2841 1681 2658 
Q 1478 2475 1428 2131 
L 2881 2131 
z
" transform="scale(0.015625)"/>
      <path id="DejaVuSans-Bold-69" d="M 538 3500 
L 1656 3500 
L 1656 0 
L 538 0 
L 538 3500 
z
M 538 4863 
L 1656 4863 
L 1656 3950 
L 538 3950 
L 538 4863 
z
" transform="scale(0.015625)"/>
      <path id="DejaVuSans-Bold-6f" d="M 2203 2784 
Q 1831 2784 1636 2517 
Q 1441 2250 1441 1747 
Q 1441 1244 1636 976 
Q 1831 709 2203 709 
Q 2569 709 2762 976 
Q 2956 1244 2956 1747 
Q 2956 2250 2762 2517 
Q 2569 2784 2203 2784 
z
M 2203 3584 
Q 3106 3584 3614 3096 
Q 4122 2609 4122 1747 
Q 4122 884 3614 396 
Q 3106 -91 2203 -91 
Q 1297 -91 786 396 
Q 275 884 275 1747 
Q 275 2609 786 3096 
Q 1297 3584 2203 3584 
z
" transform="scale(0.015625)"/>
      <path id="DejaVuSans-Bold-6e" d="M 4056 2131 
L 4056 0 
L 2931 0 
L 2931 347 
L 2931 1631 
Q 2931 2084 2911 2256 
Q 2891 2428 2841 2509 
Q 2775 2619 2662 2680 
Q 2550 2741 2406 2741 
Q 2056 2741 1856 2470 
Q 1656 2200 1656 1722 
L 1656 0 
L 538 0 
L 538 3500 
L 1656 3500 
L 1656 2988 
Q 1909 3294 2193 3439 
Q 2478 3584 2822 3584 
Q 3428 3584 3742 3212 
Q 4056 2841 4056 2131 
z
" transform="scale(0.015625)"/>
      <path id="DejaVuSans-Bold-6c" d="M 538 4863 
L 1656 4863 
L 1656 0 
L 538 0 
L 538 4863 
z
" transform="scale(0.015625)"/>
      <path id="DejaVuSans-Bold-73" d="M 3272 3391 
L 3272 2541 
Q 2913 2691 2578 2766 
Q 2244 2841 1947 2841 
Q 1628 2841 1473 2761 
Q 1319 2681 1319 2516 
Q 1319 2381 1436 2309 
Q 1553 2238 1856 2203 
L 2053 2175 
Q 2913 2066 3209 1816 
Q 3506 1566 3506 1031 
Q 3506 472 3093 190 
Q 2681 -91 1863 -91 
Q 1516 -91 1145 -36 
Q 775 19 384 128 
L 384 978 
Q 719 816 1070 734 
Q 1422 653 1784 653 
Q 2113 653 2278 743 
Q 2444 834 2444 1013 
Q 2444 1163 2330 1236 
Q 2216 1309 1875 1350 
L 1678 1375 
Q 931 1469 631 1722 
Q 331 1975 331 2491 
Q 331 3047 712 3315 
Q 1094 3584 1881 3584 
Q 2191 3584 2531 3537 
Q 2872 3491 3272 3391 
z
" transform="scale(0.015625)"/>
      <path id="DejaVuSans-Bold-70" d="M 1656 506 
L 1656 -1331 
L 538 -1331 
L 538 3500 
L 1656 3500 
L 1656 2988 
Q 1888 3294 2169 3439 
Q 2450 3584 2816 3584 
Q 3463 3584 3878 3070 
Q 4294 2556 4294 1747 
Q 4294 938 3878 423 
Q 3463 -91 2816 -91 
Q 2450 -91 2169 54 
Q 1888 200 1656 506 
z
M 2400 2772 
Q 2041 2772 1848 2508 
Q 1656 2244 1656 1747 
Q 1656 1250 1848 986 
Q 2041 722 2400 722 
Q 2759 722 2948 984 
Q 3138 1247 3138 1747 
Q 3138 2247 2948 2509 
Q 2759 2772 2400 2772 
z
" transform="scale(0.015625)"/>
      <path id="DejaVuSans-Bold-34" d="M 2356 3675 
L 1038 1722 
L 2356 1722 
L 2356 3675 
z
M 2156 4666 
L 3494 4666 
L 3494 1722 
L 4159 1722 
L 4159 850 
L 3494 850 
L 3494 0 
L 2356 0 
L 2356 850 
L 288 850 
L 288 1881 
L 2156 4666 
z
" transform="scale(0.015625)"/>
      <path id="DejaVuSans-Bold-41" d="M 3419 850 
L 1538 850 
L 1241 0 
L 31 0 
L 1759 4666 
L 3194 4666 
L 4922 0 
L 3713 0 
L 3419 850 
z
M 1838 1716 
L 3116 1716 
L 2478 3572 
L 1838 1716 
z
" transform="scale(0.015625)"/>
      <path id="DejaVuSans-Bold-52" d="M 2297 2597 
Q 2675 2597 2839 2737 
Q 3003 2878 3003 3200 
Q 3003 3519 2839 3656 
Q 2675 3794 2297 3794 
L 1791 3794 
L 1791 2597 
L 2297 2597 
z
M 1791 1766 
L 1791 0 
L 588 0 
L 588 4666 
L 2425 4666 
Q 3347 4666 3776 4356 
Q 4206 4047 4206 3378 
Q 4206 2916 3982 2619 
Q 3759 2322 3309 2181 
Q 3556 2125 3751 1926 
Q 3947 1728 4147 1325 
L 4800 0 
L 3519 0 
L 2950 1159 
Q 2778 1509 2601 1637 
Q 2425 1766 2131 1766 
L 1791 1766 
z
" transform="scale(0.015625)"/>
     </defs>
     <use xlink:href="#DejaVuSans-Bold-53"/>
     <use xlink:href="#DejaVuSans-Bold-4f" transform="translate(72.021484 0)"/>
     <use xlink:href="#DejaVuSans-Bold-4d" transform="translate(157.03125 0)"/>
     <use xlink:href="#DejaVuSans-Bold-20" transform="translate(256.542969 0)"/>
     <use xlink:href="#DejaVuSans-Bold-74" transform="translate(291.357422 0)"/>
     <use xlink:href="#DejaVuSans-Bold-61" transform="translate(339.160156 0)"/>
     <use xlink:href="#DejaVuSans-Bold-72" transform="translate(406.640625 0)"/>
     <use xlink:href="#DejaVuSans-Bold-67" transform="translate(455.957031 0)"/>
     <use xlink:href="#DejaVuSans-Bold-65" transform="translate(527.539062 0)"/>
     <use xlink:href="#DejaVuSans-Bold-74" transform="translate(595.361328 0)"/>
     <use xlink:href="#DejaVuSans-Bold-20" transform="translate(643.164062 0)"/>
     <use xlink:href="#DejaVuSans-Bold-72" transform="translate(677.978516 0)"/>
     <use xlink:href="#DejaVuSans-Bold-65" transform="translate(727.294922 0)"/>
     <use xlink:href="#DejaVuSans-Bold-67" transform="translate(795.117188 0)"/>
     <use xlink:href="#DejaVuSans-Bold-69" transform="translate(866.699219 0)"/>
     <use xlink:href="#DejaVuSans-Bold-6f" transform="translate(900.976562 0)"/>
     <use xlink:href="#DejaVuSans-Bold-6e" transform="translate(969.677734 0)"/>
     <use xlink:href="#DejaVuSans-Bold-61" transform="translate(1040.869141 0)"/>
     <use xlink:href="#DejaVuSans-Bold-6c" transform="translate(1108.349609 0)"/>
     <use xlink:href="#DejaVuSans-Bold-20" transform="translate(1142.626953 0)"/>
     <use xlink:href="#DejaVuSans-Bold-73" transform="translate(1177.441406 0)"/>
     <use xlink:href="#DejaVuSans-Bold-70" transform="translate(1236.962891 0)"/>
     <use xlink:href="#DejaVuSans-Bold-6c" transform="translate(1308.544922 0)"/>
     <use xlink:href="#DejaVuSans-Bold-69" transform="translate(1342.822266 0)"/>
     <use xlink:href="#DejaVuSans-Bold-74" transform="translate(1377.099609 0)"/>
     <use xlink:href="#DejaVuSans-Bold-20" transform="translate(1424.902344 0)"/>
     <use xlink:href="#DejaVuSans-Bold-20" transform="translate(1459.716797 0)"/>
     <use xlink:href="#DejaVuSans-Bold-b7" transform="translate(1494.53125 0)"/>
     <use xlink:href="#DejaVuSans-Bold-20" transform="translate(1532.519531 0)"/>
     <use xlink:href="#DejaVuSans-Bold-20" transform="translate(1567.333984 0)"/>
     <use xlink:href="#DejaVuSans-Bold-24" transform="translate(1602.148438 0)"/>
     <use xlink:href="#DejaVuSans-Bold-34" transform="translate(1671.728516 0)"/>
     <use xlink:href="#DejaVuSans-Bold-35" transform="translate(1741.308594 0)"/>
     <use xlink:href="#DejaVuSans-Bold-30" transform="translate(1810.888672 0)"/>
     <use xlink:href="#DejaVuSans-Bold-4b" transform="translate(1880.46875 0)"/>
     <use xlink:href="#DejaVuSans-Bold-20" transform="translate(1957.958984 0)"/>
     <use xlink:href="#DejaVuSans-Bold-41" transform="translate(1992.773438 0)"/>
     <use xlink:href="#DejaVuSans-Bold-52" transform="translate(2070.166016 0)"/>
     <use xlink:href="#DejaVuSans-Bold-52" transform="translate(2147.167969 0)"/>
    </g>
   </g>
  </g>
 </g>
 <defs>
  <clipPath id="p3aca2273a0">
   <rect x="80.820312" y="27.558281" width="362.7" height="177.408"/>
  </clipPath>
 </defs>
</svg>
